<svg width="32" height="36" viewBox="0 0 32 36" fill="none" xmlns="http://www.w3.org/2000/svg">
<path fill-rule="evenodd" clip-rule="evenodd" d="M5.90245 3.2459C5.90245 1.45324 7.35569 0 9.14835 0H25.2303C28.8972 0 31.8697 2.97254 31.8697 6.63935H30.0992C30.0992 3.95036 27.9193 1.77049 25.2303 1.77049H9.14835C8.33351 1.77049 7.67294 2.43106 7.67294 3.2459V11.3607H5.90245V3.2459ZM30.9844 9.14755C31.4734 9.14755 31.8697 9.54389 31.8697 10.0328V30.9836C31.8697 32.7763 30.4165 34.2295 28.6238 34.2295H24.9353C24.4463 34.2295 24.05 33.8332 24.05 33.3443C24.05 32.8554 24.4463 32.459 24.9353 32.459H28.6238C29.4386 32.459 30.0992 31.7985 30.0992 30.9836V10.0328C30.0992 9.54389 30.4955 9.14755 30.9844 9.14755Z" fill="#546FFF"/>
<path fill-rule="evenodd" clip-rule="evenodd" d="M23.6074 1.09466C23.6074 0.490095 24.0975 0 24.702 0H25.1795C28.8744 0 31.8697 2.99528 31.8697 6.69014C31.8697 7.23248 31.43 7.67214 30.8877 7.67214H28.0336C25.5891 7.67214 23.6074 5.69045 23.6074 3.2459V1.09466ZM25.3779 1.77442V3.2459C25.3779 4.71263 26.5669 5.90165 28.0336 5.90165H30.0363C29.6693 3.62297 27.7372 1.86796 25.3779 1.77442Z" fill="#546FFF"/>
<path fill-rule="evenodd" clip-rule="evenodd" d="M8.55739 15.9344C7.79654 15.9344 6.84209 16.7381 6.56198 18.3536L6.36949 19.4637L5.33642 19.014C5.14422 18.9303 4.93757 18.8852 4.72132 18.8852C3.82893 18.8852 2.95082 19.72 2.95082 20.9508C2.95082 21.2454 3.00362 21.5225 3.0969 21.772L3.32826 22.3908L2.80083 22.7887C2.21502 23.2306 1.77049 24.0656 1.77049 25.082C1.77049 26.0697 2.18476 26.8697 2.73444 27.3219L4.73217 25.5929L5.89079 26.9317L3.60875 28.9067C3.5647 29.0978 3.54099 29.2992 3.54099 29.5082C3.54099 30.8932 4.54329 31.8689 5.60656 31.8689C5.70665 31.8689 5.80505 31.8608 5.90135 31.845C6.08642 31.8148 6.26377 31.7563 6.43057 31.6728L7.53829 31.1188L7.70387 32.3462C7.73119 32.5487 7.77255 32.7338 7.82485 32.902C7.83463 32.9263 7.84389 32.9511 7.85261 32.9762C7.9485 33.252 8.0686 33.4771 8.20121 33.6564C8.49628 34.0466 8.86005 34.2295 9.14755 34.2295C9.44642 34.2295 9.79445 34.0647 10.1009 33.6434C10.4066 33.2229 10.623 32.5984 10.623 31.8689V23.419C10.0496 23.8945 9.34754 24.1967 8.55739 24.1967H7.67214V22.4262H8.55739C9.01213 22.4262 9.50734 22.1697 9.92358 21.587C10.3386 21.0059 10.623 20.1579 10.623 19.1803C10.623 18.2028 10.3386 17.3547 9.92358 16.7737C9.50734 16.191 9.01213 15.9344 8.55739 15.9344ZM12.3935 22.4262V24.1967H17.4099V25.9672H12.3935V27.1476H15.4996V30.6885H17.4099V32.459H13.7291V28.918H12.3935V31.8689C12.3935 32.932 12.0813 33.9304 11.5327 34.6847C10.9847 35.4382 10.1524 36 9.14755 36C8.14028 36 7.33074 35.4663 6.77272 34.6954C6.52819 34.3615 6.33329 33.9857 6.19385 33.596C6.19066 33.5948 6.18745 33.5939 6.18453 33.5934L6.18251 33.5931C6.16792 33.5954 6.15331 33.5977 6.13867 33.5999C5.96477 33.6259 5.78711 33.6394 5.60656 33.6394C3.41045 33.6394 1.77049 31.7085 1.77049 29.5082C1.77049 29.2851 1.78696 29.0656 1.81879 28.8512C0.690438 28.0496 0 26.6219 0 25.082C0 23.8044 0.470913 22.6182 1.26571 21.7918C1.20969 21.5203 1.18033 21.2388 1.18033 20.9508C1.18033 18.9223 2.68026 17.1148 4.72132 17.1148C4.83308 17.1148 4.94366 17.1204 5.05282 17.1314C5.60835 15.507 6.85401 14.1639 8.55739 14.1639C9.73233 14.1639 10.7125 14.8322 11.3643 15.7446C12.0173 16.6588 12.3935 17.8763 12.3935 19.1803V20.6557H13.7291V17.1148H17.4099V18.8852H15.4996V22.4262H12.3935Z" fill="#546FFF"/>
<path d="M22.7213 18.2951C22.7213 19.1099 22.0608 19.7705 21.2459 19.7705C20.4311 19.7705 19.7705 19.1099 19.7705 18.2951C19.7705 17.4802 20.4311 16.8197 21.2459 16.8197C22.0608 16.8197 22.7213 17.4802 22.7213 18.2951Z" fill="#546FFF"/>
<path d="M22.7213 24.7869C22.7213 25.6017 22.0608 26.2623 21.2459 26.2623C20.4311 26.2623 19.7705 25.6017 19.7705 24.7869C19.7705 23.972 20.4311 23.3115 21.2459 23.3115C22.0608 23.3115 22.7213 23.972 22.7213 24.7869Z" fill="#546FFF"/>
<path d="M22.7213 31.2787C22.7213 32.0936 22.0608 32.7541 21.2459 32.7541C20.4311 32.7541 19.7705 32.0936 19.7705 31.2787C19.7705 30.4639 20.4311 29.8033 21.2459 29.8033C22.0608 29.8033 22.7213 30.4639 22.7213 31.2787Z" fill="#546FFF"/>
</svg>
