<svg width="47" height="36" viewBox="0 0 47 36" fill="none" xmlns="http://www.w3.org/2000/svg">
<path fill-rule="evenodd" clip-rule="evenodd" d="M31.5006 7C27.8906 7 24.6134 8.4156 22.1903 10.724C21.5926 11.2934 21.0471 11.917 20.5617 12.5868C20.2376 13.034 19.6123 13.1338 19.1651 12.8097C18.7179 12.4856 18.6181 11.8604 18.9422 11.4132C19.4993 10.6445 20.1252 9.92909 20.8108 9.27593C23.5909 6.62741 27.3568 5 31.5006 5C40.061 5 47.0006 11.9396 47.0006 20.5C47.0006 29.0604 40.061 36 31.5006 36C27.3568 36 23.5909 34.3726 20.8108 31.7241C20.4109 31.3431 20.3956 30.7101 20.7766 30.3103C21.1575 29.9104 21.7905 29.8951 22.1903 30.276C24.6134 32.5844 27.8906 34 31.5006 34C38.9564 34 45.0006 27.9558 45.0006 20.5C45.0006 13.0442 38.9564 7 31.5006 7Z" fill="#546FFF"/>
<path fill-rule="evenodd" clip-rule="evenodd" d="M26 1C26 0.447716 26.4477 8.35087e-07 27 7.86805e-07L36 0C36.5523 -4.82823e-08 37 0.447715 37 1C37 1.55228 36.5523 2 36 2L27 2C26.4477 2 26 1.55229 26 1Z" fill="#546FFF"/>
<path fill-rule="evenodd" clip-rule="evenodd" d="M32.5 2V6H30.5V2H32.5Z" fill="#546FFF"/>
<path fill-rule="evenodd" clip-rule="evenodd" d="M23 18L1.39877e-07 18L0 16L23 16V18Z" fill="#546FFF"/>
<path fill-rule="evenodd" clip-rule="evenodd" d="M19 23L4 23L4 21L19 21V23Z" fill="#546FFF"/>
<path fill-rule="evenodd" clip-rule="evenodd" d="M19 28H12V26H19V28Z" fill="#546FFF"/>
<path d="M30.5 13C30.5 12.4477 30.9477 12 31.5 12C32.0523 12 32.5 12.4477 32.5 13V17C32.5 17.5523 32.0523 18 31.5 18C30.9477 18 30.5 17.5523 30.5 17V13Z" fill="#546FFF"/>
<path d="M30 21.5C30 20.6716 30.6716 20 31.5 20C32.3284 20 33 20.6716 33 21.5C33 22.3284 32.3284 23 31.5 23C30.6716 23 30 22.3284 30 21.5Z" fill="#546FFF"/>
</svg>
