<svg width="36" height="36" viewBox="0 0 36 36" fill="none" xmlns="http://www.w3.org/2000/svg">
<g clip-path="url(#clip0)">
<path d="M27 36C26.901 36 26.802 35.9805 26.709 35.9415C26.352 35.79 18 32.181 18 24.804V18.5355C18 18.213 18.2055 17.928 18.51 17.8245L26.76 15.039C26.916 14.9865 27.0855 14.9865 27.24 15.039L35.49 17.8245C35.7945 17.9265 36 18.213 36 18.5355V24.804C36 32.181 27.648 35.79 27.291 35.9415C27.198 35.9805 27.099 36 27 36ZM19.5 19.0755V24.804C19.5 30.48 25.5825 33.741 27 34.4235C28.416 33.7395 34.5 30.465 34.5 24.804V19.0755L27 16.542L19.5 19.0755Z" fill="#546FFF"/>
<path d="M26.2499 28.5C26.2364 28.5 26.2214 28.5 26.2094 28.4985C25.9949 28.4865 25.7984 28.386 25.6649 28.218L22.6649 24.468C22.4069 24.144 22.4579 23.673 22.7819 23.4135C23.1089 23.157 23.5799 23.2095 23.8364 23.5305L26.3114 26.625L30.9689 21.969C31.2614 21.6765 31.7369 21.6765 32.0294 21.969C32.3219 22.2615 32.3219 22.737 32.0294 23.0295L26.7794 28.2795C26.6399 28.4205 26.4479 28.5 26.2499 28.5Z" fill="#546FFF"/>
<path d="M14.25 31.5H3.75C1.6815 31.5 0 29.8185 0 27.75V8.24999C0 6.18149 1.6815 4.49999 3.75 4.49999H6.75C7.164 4.49999 7.5 4.83599 7.5 5.24999C7.5 5.66399 7.164 5.99999 6.75 5.99999H3.75C2.5095 5.99999 1.5 7.00949 1.5 8.24999V27.75C1.5 28.9905 2.5095 30 3.75 30H14.25C14.664 30 15 30.336 15 30.75C15 31.164 14.664 31.5 14.25 31.5Z" fill="#546FFF"/>
<path d="M24.75 12.75C24.336 12.75 24 12.414 24 12V8.24999C24 7.00949 22.9905 5.99999 21.75 5.99999H18.75C18.336 5.99999 18 5.66399 18 5.24999C18 4.83599 18.336 4.49999 18.75 4.49999H21.75C23.8185 4.49999 25.5 6.18149 25.5 8.24999V12C25.5 12.414 25.164 12.75 24.75 12.75Z" fill="#546FFF"/>
<path d="M17.2503 8.99999H8.25029C7.00978 8.99999 6.00028 7.99049 6.00028 6.74999V3.74999C6.00028 3.33599 6.33628 2.99999 6.75028 2.99999H9.07529C9.42329 1.28999 10.9398 -7.62939e-06 12.7503 -7.62939e-06C14.5608 -7.62939e-06 16.0773 1.28999 16.4253 2.99999H18.7503C19.1643 2.99999 19.5003 3.33599 19.5003 3.74999V6.74999C19.5003 7.99049 18.4908 8.99999 17.2503 8.99999ZM7.50028 4.49999V6.74999C7.50028 7.16249 7.83778 7.49999 8.25029 7.49999H17.2503C17.6628 7.49999 18.0003 7.16249 18.0003 6.74999V4.49999H15.7503C15.3363 4.49999 15.0003 4.16399 15.0003 3.74999C15.0003 2.50949 13.9908 1.49999 12.7503 1.49999C11.5098 1.49999 10.5003 2.50949 10.5003 3.74999C10.5003 4.16399 10.1643 4.49999 9.75029 4.49999H7.50028Z" fill="#546FFF"/>
<path d="M20.25 13.5H5.25C4.836 13.5 4.5 13.164 4.5 12.75C4.5 12.336 4.836 12 5.25 12H20.25C20.664 12 21 12.336 21 12.75C21 13.164 20.664 13.5 20.25 13.5Z" fill="#546FFF"/>
<path d="M14.25 18H5.25C4.836 18 4.5 17.664 4.5 17.25C4.5 16.836 4.836 16.5 5.25 16.5H14.25C14.664 16.5 15 16.836 15 17.25C15 17.664 14.664 18 14.25 18Z" fill="#546FFF"/>
<path d="M14.25 22.5H5.25C4.836 22.5 4.5 22.164 4.5 21.75C4.5 21.336 4.836 21 5.25 21H14.25C14.664 21 15 21.336 15 21.75C15 22.164 14.664 22.5 14.25 22.5Z" fill="#546FFF"/>
</g>
<defs>
<clipPath id="clip0">
<rect width="36" height="36" fill="white"/>
</clipPath>
</defs>
</svg>
