<svg width="146" height="68" viewBox="0 0 146 68" fill="none" xmlns="http://www.w3.org/2000/svg">
<g clip-path="url(#clip0_723_1961)">
<path d="M56.1499 43.2461C56.1499 43.543 56.0596 43.6126 55.7694 43.6034C55.1797 43.5802 54.5804 43.6034 53.9906 43.6034C53.7385 43.6034 53.6671 43.5477 53.6671 43.2971C53.6671 41.7658 53.6671 40.2344 53.6671 38.7031C53.6671 38.4015 53.5768 38.3505 53.2914 38.3551C51.744 38.3551 50.1966 38.3551 48.6492 38.3551C48.3781 38.3551 48.2925 38.4061 48.2973 38.6892C48.2973 40.2205 48.2973 41.7518 48.2973 43.2785C48.2973 43.543 48.2212 43.608 47.9596 43.6034C47.346 43.6034 46.7277 43.6034 46.1093 43.6034C45.9048 43.6034 45.8145 43.5662 45.8145 43.3389C45.8145 39.4595 45.8145 35.5786 45.8145 31.6962C45.8145 31.4641 45.9143 31.4317 46.1141 31.4363C46.7419 31.4363 47.3698 31.4363 48.0166 31.4363C48.2544 31.4363 48.3163 31.5013 48.3163 31.7333C48.3163 33.1857 48.3163 34.6382 48.3163 36.0952C48.3163 36.3458 48.3734 36.4247 48.6445 36.4247C50.2141 36.4247 51.7884 36.4247 53.358 36.4247C53.6339 36.4247 53.6862 36.3365 53.6862 36.0906C53.6862 34.6474 53.6862 33.2043 53.6862 31.7611C53.6862 31.5013 53.7623 31.427 54.0239 31.4363C54.62 31.4549 55.2145 31.4549 55.8075 31.4363C56.0786 31.4363 56.169 31.4966 56.1642 31.7751C56.1642 33.6915 56.1642 35.6034 56.1642 37.5152C56.1642 39.427 56.1309 41.3342 56.1499 43.2461Z" fill="#FEFEFE"/>
<path d="M60.1644 39.775C61.1584 39.775 62.1573 39.775 63.1561 39.775C64.1549 39.775 65.1966 39.775 66.2144 39.775C66.4284 39.775 66.5141 39.724 66.5141 39.5059C66.5224 39.069 66.4873 38.6323 66.4094 38.2019C66.067 36.5453 65.2298 35.246 63.4985 34.7541C61.6816 34.2391 60.0122 34.5824 58.7089 35.9885C57.5484 37.2275 57.3201 38.7402 57.6388 40.3411C57.7401 41.0018 58.0113 41.6267 58.4272 42.1574C58.8431 42.6881 59.39 43.1073 60.0169 43.376C60.6675 43.6651 61.3727 43.819 62.0875 43.8278C62.8024 43.8366 63.5113 43.7001 64.1692 43.427C64.659 43.2324 65.0988 42.9349 65.4573 42.5555C65.8157 42.1761 66.084 41.7242 66.2429 41.2321C66.3095 41.0326 66.3 40.963 66.0575 40.9676C65.501 40.9676 64.9397 40.9676 64.3785 40.9676C64.3138 40.9558 64.247 40.9665 64.1896 40.9979C64.1322 41.0293 64.088 41.0793 64.0645 41.1393C63.8876 41.4857 63.5863 41.7565 63.2179 41.9003C62.8811 42.0657 62.5078 42.1478 62.1308 42.1395C61.7539 42.1312 61.3848 42.0326 61.056 41.8526C60.7272 41.6725 60.4488 41.4163 60.2452 41.1067C60.0416 40.797 59.9191 40.4433 59.8885 40.0766C59.8219 39.8214 59.9075 39.775 60.1644 39.775ZM59.8837 37.9885C59.9352 37.4545 60.1949 36.9601 60.6091 36.6075C61.0234 36.2548 61.5606 36.0708 62.1099 36.0934C62.6592 36.1161 63.1786 36.3436 63.5609 36.729C63.9433 37.1145 64.1593 37.6285 64.1644 38.1648C64.1882 38.3411 64.0313 38.2715 63.9504 38.2715C63.3035 38.2715 62.6519 38.2715 62.0051 38.2715C61.3582 38.2715 60.7732 38.2715 60.1549 38.2715C59.9123 38.2994 59.8457 38.2344 59.8837 37.9978V37.9885Z" fill="#FEFEFE"/>
<path d="M76.1694 37.9652C76.1694 39.7471 76.1694 41.529 76.1694 43.3109C76.1694 43.5475 76.0981 43.6078 75.8698 43.6032C75.3181 43.6032 74.7663 43.58 74.2193 43.6032C73.934 43.6032 73.8388 43.5522 73.8436 43.2505C73.8436 41.696 73.8436 40.1461 73.8436 38.6102C73.8598 38.1732 73.7986 37.7368 73.6629 37.3201C73.5775 37.0392 73.4011 36.7929 73.1602 36.6181C72.9192 36.4432 72.6266 36.3493 72.3263 36.3503C71.0754 36.2807 70.3525 36.8979 70.224 38.1369C70.1384 38.986 70.186 39.8399 70.1765 40.6937C70.167 41.5475 70.1765 42.4431 70.1765 43.3155C70.1765 43.5707 70.1004 43.6264 69.853 43.6218C69.2823 43.6218 68.7115 43.6218 68.136 43.6218C67.9362 43.6218 67.8411 43.5893 67.8459 43.3573C67.8459 40.604 67.8459 37.8491 67.8459 35.0928C67.8459 34.9025 67.8792 34.8236 68.098 34.8283C68.6592 34.8468 69.2205 34.8468 69.7817 34.8283C70.0243 34.8283 70.0576 34.9164 70.0528 35.116C70.0528 35.4083 70.0528 35.7007 70.0528 35.993C70.5588 35.3317 71.2884 34.8665 72.1123 34.6798C72.9293 34.5003 73.7832 34.5716 74.557 34.8839C75.5368 35.2784 75.9221 36.0904 76.0791 37.0417C76.1317 37.347 76.1619 37.6556 76.1694 37.9652Z" fill="#FEFEFE"/>
<path d="M86.6 43.2971C86.6618 43.3806 86.7189 43.4688 86.8092 43.5987H84.0743C83.8841 43.5987 83.8365 43.4548 83.7604 43.3481L80.7402 39.1718C80.6783 39.0836 80.607 39.0047 80.4928 38.8562V39.2553C80.4928 40.6103 80.4928 41.9653 80.4928 43.3203C80.4928 43.5291 80.4405 43.608 80.2122 43.6033C79.6177 43.6033 79.0231 43.6033 78.4286 43.6033C78.2193 43.6033 78.167 43.5384 78.167 43.3388C78.167 39.4595 78.167 35.5801 78.167 31.7008C78.167 31.4688 78.2431 31.427 78.4571 31.427C79.0136 31.427 79.5749 31.4502 80.1361 31.427C80.4167 31.427 80.4928 31.492 80.4928 31.7657C80.4928 33.9003 80.4928 36.0302 80.4928 38.1602V38.4896L80.5547 38.5221L82.1052 36.6428L83.4751 34.9815C83.5369 34.9073 83.5797 34.8145 83.7034 34.8145H86.3859L85.0684 36.3365C84.4549 37.0418 83.846 37.7565 83.2182 38.4572C83.066 38.6242 83.0803 38.7217 83.2182 38.8887C84.3502 40.3551 85.4775 41.8245 86.6 43.2971Z" fill="#FEFEFE"/>
<path d="M89.0638 39.7748C90.0627 39.798 91.0615 39.7748 92.0603 39.7748C93.0592 39.7748 94.1008 39.7748 95.1186 39.7748C95.3232 39.7748 95.3945 39.7238 95.3945 39.5196C95.3992 39.0609 95.361 38.6027 95.2804 38.1507C95.1602 37.4038 94.8401 36.7011 94.3525 36.1135C93.865 35.5259 93.2271 35.0743 92.5034 34.8041C91.7797 34.5339 90.9957 34.4547 90.2306 34.5747C89.4655 34.6946 88.7464 35.0094 88.1459 35.4871C86.7713 36.5451 86.3147 38.0069 86.4336 39.6635C86.4472 40.3005 86.6072 40.9265 86.9019 41.4951C87.1967 42.0638 87.6185 42.5605 88.1364 42.9488C88.7123 43.3525 89.3714 43.6292 90.0678 43.7598C90.7642 43.8904 91.4814 43.8718 92.1697 43.7052C92.845 43.6032 93.478 43.3201 93.9978 42.8874C94.5177 42.4548 94.9041 41.8896 95.1139 41.2551C95.1995 41.0324 95.1567 40.9767 94.9141 40.9813C94.3862 40.9813 93.8582 40.9813 93.335 40.9813C93.2433 40.9643 93.1485 40.9803 93.068 41.0264C92.9875 41.0725 92.9269 41.1455 92.8974 41.2319C92.8065 41.4226 92.6612 41.5837 92.4789 41.696C92.123 41.9381 91.7083 42.0852 91.2761 42.1226C90.8439 42.16 90.4092 42.0866 90.0151 41.9094C89.6581 41.7581 89.3518 41.5123 89.1307 41.1998C88.9096 40.8873 88.7826 40.5207 88.7642 40.1414C88.7024 39.8769 88.7404 39.7748 89.0638 39.7748ZM88.7547 37.9929C88.8223 37.4715 89.088 36.9939 89.4993 36.6545C89.9107 36.3151 90.4376 36.1388 90.9759 36.1604C91.5141 36.1819 92.0244 36.3999 92.4058 36.7711C92.7872 37.1422 93.0119 37.6396 93.0354 38.1646C93.0639 38.3363 92.8974 38.2714 92.8213 38.2714C92.1792 38.2714 91.5419 38.2714 90.9188 38.2714C90.2957 38.2714 89.6631 38.2714 89.0163 38.2714C88.788 38.2992 88.7166 38.2389 88.7547 38.0022V37.9929Z" fill="#FEFEFE"/>
<path d="M99.071 31.6962C99.071 35.5755 99.071 39.4533 99.071 43.3296C99.071 43.5523 98.9996 43.6034 98.7856 43.5987C98.2006 43.5987 97.6203 43.5987 97.0353 43.5987C96.7832 43.5987 96.7451 43.5106 96.7451 43.2971C96.7451 41.3621 96.7451 39.4317 96.7451 37.4966C96.7451 35.5616 96.7451 33.673 96.7451 31.7611C96.7451 31.4874 96.8212 31.4131 97.1018 31.4224C97.6583 31.4456 98.2196 31.4224 98.7808 31.4224C98.9854 31.4224 99.071 31.4688 99.071 31.6962Z" fill="#FEFEFE"/>
<path d="M56.1499 43.2461C56.1499 43.543 56.0596 43.6126 55.7694 43.6034C55.1797 43.5802 54.5804 43.6034 53.9906 43.6034C53.7385 43.6034 53.6671 43.5477 53.6671 43.2971C53.6671 41.7658 53.6671 40.2344 53.6671 38.7031C53.6671 38.4015 53.5768 38.3505 53.2914 38.3551C51.744 38.3551 50.1966 38.3551 48.6492 38.3551C48.3781 38.3551 48.2925 38.4061 48.2973 38.6892C48.2973 40.2205 48.2973 41.7518 48.2973 43.2785C48.2973 43.543 48.2212 43.608 47.9596 43.6034C47.346 43.6034 46.7277 43.6034 46.1093 43.6034C45.9048 43.6034 45.8145 43.5662 45.8145 43.3389C45.8145 39.4595 45.8145 35.5786 45.8145 31.6962C45.8145 31.4641 45.9143 31.4317 46.1141 31.4363C46.7419 31.4363 47.3698 31.4363 48.0166 31.4363C48.2544 31.4363 48.3163 31.5013 48.3163 31.7333C48.3163 33.1857 48.3163 34.6382 48.3163 36.0952C48.3163 36.3458 48.3734 36.4247 48.6445 36.4247C50.2141 36.4247 51.7884 36.4247 53.358 36.4247C53.6339 36.4247 53.6862 36.3365 53.6862 36.0906C53.6862 34.6474 53.6862 33.2043 53.6862 31.7611C53.6862 31.5013 53.7623 31.427 54.0239 31.4363C54.62 31.4549 55.2145 31.4549 55.8075 31.4363C56.0786 31.4363 56.169 31.4966 56.1642 31.7751C56.1642 33.6915 56.1642 35.6034 56.1642 37.5152C56.1642 39.427 56.1309 41.3342 56.1499 43.2461Z" fill="#EB1B23"/>
<path d="M60.1644 39.775C61.1584 39.775 62.1573 39.775 63.1561 39.775C64.1549 39.775 65.1966 39.775 66.2144 39.775C66.4284 39.775 66.5141 39.724 66.5141 39.5059C66.5224 39.069 66.4873 38.6323 66.4094 38.2019C66.067 36.5453 65.2298 35.246 63.4985 34.7541C61.6816 34.2391 60.0122 34.5824 58.7089 35.9885C57.5484 37.2275 57.3201 38.7402 57.6388 40.3411C57.7401 41.0018 58.0113 41.6267 58.4272 42.1574C58.8431 42.6881 59.39 43.1073 60.0169 43.376C60.6675 43.6651 61.3727 43.819 62.0875 43.8278C62.8024 43.8366 63.5113 43.7001 64.1692 43.427C64.659 43.2324 65.0988 42.9349 65.4573 42.5555C65.8157 42.1761 66.084 41.7242 66.2429 41.2321C66.3095 41.0326 66.3 40.963 66.0575 40.9676C65.501 40.9676 64.9397 40.9676 64.3785 40.9676C64.3138 40.9558 64.247 40.9665 64.1896 40.9979C64.1322 41.0293 64.088 41.0793 64.0645 41.1393C63.8876 41.4857 63.5863 41.7565 63.2179 41.9003C62.8811 42.0657 62.5078 42.1478 62.1308 42.1395C61.7539 42.1312 61.3848 42.0326 61.056 41.8526C60.7272 41.6725 60.4488 41.4163 60.2452 41.1067C60.0416 40.797 59.9191 40.4433 59.8885 40.0766C59.8219 39.8214 59.9075 39.775 60.1644 39.775ZM59.8837 37.9885C59.9352 37.4545 60.1949 36.9601 60.6091 36.6075C61.0234 36.2548 61.5606 36.0708 62.1099 36.0934C62.6592 36.1161 63.1786 36.3436 63.5609 36.729C63.9433 37.1145 64.1593 37.6285 64.1644 38.1648C64.1882 38.3411 64.0313 38.2715 63.9504 38.2715C63.3035 38.2715 62.6519 38.2715 62.0051 38.2715C61.3582 38.2715 60.7732 38.2715 60.1549 38.2715C59.9123 38.2994 59.8457 38.2344 59.8837 37.9978V37.9885Z" fill="#EB1B23"/>
<path d="M76.1694 37.9652C76.1694 39.7471 76.1694 41.529 76.1694 43.3109C76.1694 43.5475 76.0981 43.6078 75.8698 43.6032C75.3181 43.6032 74.7663 43.58 74.2193 43.6032C73.934 43.6032 73.8388 43.5522 73.8436 43.2505C73.8436 41.696 73.8436 40.1461 73.8436 38.6102C73.8598 38.1732 73.7986 37.7368 73.6629 37.3201C73.5775 37.0392 73.4011 36.7929 73.1602 36.6181C72.9192 36.4432 72.6266 36.3493 72.3263 36.3503C71.0754 36.2807 70.3525 36.8979 70.224 38.1369C70.1384 38.986 70.186 39.8399 70.1765 40.6937C70.167 41.5475 70.1765 42.4431 70.1765 43.3155C70.1765 43.5707 70.1004 43.6264 69.853 43.6218C69.2823 43.6218 68.7115 43.6218 68.136 43.6218C67.9362 43.6218 67.8411 43.5893 67.8459 43.3573C67.8459 40.604 67.8459 37.8491 67.8459 35.0928C67.8459 34.9025 67.8792 34.8236 68.098 34.8283C68.6592 34.8468 69.2205 34.8468 69.7817 34.8283C70.0243 34.8283 70.0576 34.9164 70.0528 35.116C70.0528 35.4083 70.0528 35.7007 70.0528 35.993C70.5588 35.3317 71.2884 34.8665 72.1123 34.6798C72.9293 34.5003 73.7832 34.5716 74.557 34.8839C75.5368 35.2784 75.9221 36.0904 76.0791 37.0417C76.1317 37.347 76.1619 37.6556 76.1694 37.9652Z" fill="#EB1B23"/>
<path d="M86.6 43.2971C86.6618 43.3806 86.7189 43.4688 86.8092 43.5987H84.0743C83.8841 43.5987 83.8365 43.4548 83.7604 43.3481L80.7402 39.1718C80.6783 39.0836 80.607 39.0047 80.4928 38.8562V39.2553C80.4928 40.6103 80.4928 41.9653 80.4928 43.3203C80.4928 43.5291 80.4405 43.608 80.2122 43.6033C79.6177 43.6033 79.0231 43.6033 78.4286 43.6033C78.2193 43.6033 78.167 43.5384 78.167 43.3388C78.167 39.4595 78.167 35.5801 78.167 31.7008C78.167 31.4688 78.2431 31.427 78.4571 31.427C79.0136 31.427 79.5749 31.4502 80.1361 31.427C80.4167 31.427 80.4928 31.492 80.4928 31.7657C80.4928 33.9003 80.4928 36.0302 80.4928 38.1602V38.4896L80.5547 38.5221L82.1052 36.6428L83.4751 34.9815C83.5369 34.9073 83.5797 34.8145 83.7034 34.8145H86.3859L85.0684 36.3365C84.4549 37.0418 83.846 37.7565 83.2182 38.4572C83.066 38.6242 83.0803 38.7217 83.2182 38.8887C84.3502 40.3551 85.4775 41.8245 86.6 43.2971Z" fill="#EB1B23"/>
<path d="M89.0638 39.7748C90.0627 39.798 91.0615 39.7748 92.0603 39.7748C93.0592 39.7748 94.1008 39.7748 95.1186 39.7748C95.3232 39.7748 95.3945 39.7238 95.3945 39.5196C95.3992 39.0609 95.361 38.6027 95.2804 38.1507C95.1602 37.4038 94.8401 36.7011 94.3525 36.1135C93.865 35.5259 93.2271 35.0743 92.5034 34.8041C91.7797 34.5339 90.9957 34.4547 90.2306 34.5747C89.4655 34.6946 88.7464 35.0094 88.1459 35.4871C86.7713 36.5451 86.3147 38.0069 86.4336 39.6635C86.4472 40.3005 86.6072 40.9265 86.9019 41.4951C87.1967 42.0638 87.6185 42.5605 88.1364 42.9488C88.7123 43.3525 89.3714 43.6292 90.0678 43.7598C90.7642 43.8904 91.4814 43.8718 92.1697 43.7052C92.845 43.6032 93.478 43.3201 93.9978 42.8874C94.5177 42.4548 94.9041 41.8896 95.1139 41.2551C95.1995 41.0324 95.1567 40.9767 94.9141 40.9813C94.3862 40.9813 93.8582 40.9813 93.335 40.9813C93.2433 40.9643 93.1485 40.9803 93.068 41.0264C92.9875 41.0725 92.9269 41.1455 92.8974 41.2319C92.8065 41.4226 92.6612 41.5837 92.4789 41.696C92.123 41.9381 91.7083 42.0852 91.2761 42.1226C90.8439 42.16 90.4092 42.0866 90.0151 41.9094C89.6581 41.7581 89.3518 41.5123 89.1307 41.1998C88.9096 40.8873 88.7826 40.5207 88.7642 40.1414C88.7024 39.8769 88.7404 39.7748 89.0638 39.7748ZM88.7547 37.9929C88.8223 37.4715 89.088 36.9939 89.4993 36.6545C89.9107 36.3151 90.4376 36.1388 90.9759 36.1604C91.5141 36.1819 92.0244 36.3999 92.4058 36.7711C92.7872 37.1422 93.0119 37.6396 93.0354 38.1646C93.0639 38.3363 92.8974 38.2714 92.8213 38.2714C92.1792 38.2714 91.5419 38.2714 90.9188 38.2714C90.2957 38.2714 89.6631 38.2714 89.0163 38.2714C88.788 38.2992 88.7166 38.2389 88.7547 38.0022V37.9929Z" fill="#EB1B23"/>
<path d="M99.071 31.6962C99.071 35.5755 99.071 39.4533 99.071 43.3296C99.071 43.5523 98.9996 43.6034 98.7856 43.5987C98.2006 43.5987 97.6203 43.5987 97.0353 43.5987C96.7832 43.5987 96.7451 43.5106 96.7451 43.2971C96.7451 41.3621 96.7451 39.4317 96.7451 37.4966C96.7451 35.5616 96.7451 33.673 96.7451 31.7611C96.7451 31.4874 96.8212 31.4131 97.1018 31.4224C97.6583 31.4456 98.2196 31.4224 98.7808 31.4224C98.9854 31.4224 99.071 31.4688 99.071 31.6962Z" fill="#EB1B23"/>
<path d="M105.088 33.0464C103.886 30.8081 102.176 28.867 100.089 27.3712C97.1116 25.1725 93.7771 23.4769 90.2244 22.355C84.4645 20.4293 78.5143 19.6404 71.9221 19.6125C71.337 19.6358 70.224 19.6636 69.1158 19.7146C65.3648 19.891 61.6427 20.4477 58.0098 21.3759C53.9375 22.3553 50.0572 23.9793 46.5233 26.1833C44.0683 27.6754 41.9801 29.6763 40.4066 32.0441C38.6944 34.7494 38.0998 37.6543 38.9512 40.768C39.644 43.0919 40.9571 45.1946 42.7563 46.8608C45.0309 49.0351 47.6833 50.798 50.5899 52.0673C55.6062 54.2899 60.9733 55.6645 66.4618 56.1323C69.8001 56.4547 73.1601 56.5059 76.5071 56.2854C79.9855 56.0751 83.4353 55.5406 86.8093 54.6891C90.7732 53.739 94.5594 52.1872 98.0295 50.0905C100.476 48.6524 102.583 46.7263 104.213 44.4385C106.681 40.8051 107.086 36.9907 105.088 33.0464ZM102.91 43.4362C101.519 45.4607 99.7053 47.175 97.5872 48.4664C94.2932 50.5304 90.6748 52.054 86.8759 52.9768C81.7946 54.2769 76.5503 54.869 71.299 54.7355C66.2841 54.6787 61.3021 53.9384 56.4973 52.536C52.7066 51.4874 49.1409 49.7803 45.9715 47.4965C44.14 46.2017 42.6219 44.5305 41.5244 42.601C39.5838 38.9815 39.9691 35.5058 42.3139 32.1926C43.7852 30.2098 45.6542 28.5395 47.8075 27.2831C51.2672 25.2134 55.0486 23.7058 59.0039 22.819C62.4347 21.9998 65.9393 21.5087 69.4678 21.3527C70.4761 21.3063 71.4892 21.3016 72.6498 21.2831C78.2678 21.2476 83.8566 22.0744 89.2113 23.7332C92.8183 24.7921 96.2014 26.4738 99.1996 28.6984C100.922 29.9721 102.348 31.5867 103.385 33.4362C105.24 36.8562 105.002 40.2019 102.91 43.4362Z" fill="#4C5566" fill-opacity="0.8"/>
<path d="M56.1499 43.2461C56.1499 43.543 56.0596 43.6126 55.7694 43.6034C55.1797 43.5802 54.5804 43.6034 53.9906 43.6034C53.7385 43.6034 53.6671 43.5477 53.6671 43.2971C53.6671 41.7658 53.6671 40.2344 53.6671 38.7031C53.6671 38.4015 53.5768 38.3505 53.2914 38.3551C51.744 38.3551 50.1966 38.3551 48.6492 38.3551C48.3781 38.3551 48.2925 38.4061 48.2973 38.6892C48.2973 40.2205 48.2973 41.7518 48.2973 43.2785C48.2973 43.543 48.2212 43.608 47.9596 43.6034C47.346 43.6034 46.7277 43.6034 46.1093 43.6034C45.9048 43.6034 45.8145 43.5662 45.8145 43.3389C45.8145 39.4595 45.8145 35.5786 45.8145 31.6962C45.8145 31.4641 45.9143 31.4317 46.1141 31.4363C46.7419 31.4363 47.3698 31.4363 48.0166 31.4363C48.2544 31.4363 48.3163 31.5013 48.3163 31.7333C48.3163 33.1857 48.3163 34.6382 48.3163 36.0952C48.3163 36.3458 48.3734 36.4247 48.6445 36.4247C50.2141 36.4247 51.7884 36.4247 53.358 36.4247C53.6339 36.4247 53.6862 36.3365 53.6862 36.0906C53.6862 34.6474 53.6862 33.2043 53.6862 31.7611C53.6862 31.5013 53.7623 31.427 54.0239 31.4363C54.62 31.4549 55.2145 31.4549 55.8075 31.4363C56.0786 31.4363 56.169 31.4966 56.1642 31.7751C56.1642 33.6915 56.1642 35.6034 56.1642 37.5152C56.1642 39.427 56.1309 41.3342 56.1499 43.2461Z" fill="#FEFEFE"/>
<path d="M60.1644 39.775C61.1584 39.775 62.1573 39.775 63.1561 39.775C64.1549 39.775 65.1966 39.775 66.2144 39.775C66.4284 39.775 66.5141 39.724 66.5141 39.5059C66.5224 39.069 66.4873 38.6323 66.4094 38.2019C66.067 36.5453 65.2298 35.246 63.4985 34.7541C61.6816 34.2391 60.0122 34.5824 58.7089 35.9885C57.5484 37.2275 57.3201 38.7402 57.6388 40.3411C57.7401 41.0018 58.0113 41.6267 58.4272 42.1574C58.8431 42.6881 59.39 43.1073 60.0169 43.376C60.6675 43.6651 61.3727 43.819 62.0875 43.8278C62.8024 43.8366 63.5113 43.7001 64.1692 43.427C64.659 43.2324 65.0988 42.9349 65.4573 42.5555C65.8157 42.1761 66.084 41.7242 66.2429 41.2321C66.3095 41.0326 66.3 40.963 66.0575 40.9676C65.501 40.9676 64.9397 40.9676 64.3785 40.9676C64.3138 40.9558 64.247 40.9665 64.1896 40.9979C64.1322 41.0293 64.088 41.0793 64.0645 41.1393C63.8876 41.4857 63.5863 41.7565 63.2179 41.9003C62.8811 42.0657 62.5078 42.1478 62.1308 42.1395C61.7539 42.1312 61.3848 42.0326 61.056 41.8526C60.7272 41.6725 60.4488 41.4163 60.2452 41.1067C60.0416 40.797 59.9191 40.4433 59.8885 40.0766C59.8219 39.8214 59.9075 39.775 60.1644 39.775ZM59.8837 37.9885C59.9352 37.4545 60.1949 36.9601 60.6091 36.6075C61.0234 36.2548 61.5606 36.0708 62.1099 36.0934C62.6592 36.1161 63.1786 36.3436 63.5609 36.729C63.9433 37.1145 64.1593 37.6285 64.1644 38.1648C64.1882 38.3411 64.0313 38.2715 63.9504 38.2715C63.3035 38.2715 62.6519 38.2715 62.0051 38.2715C61.3582 38.2715 60.7732 38.2715 60.1549 38.2715C59.9123 38.2994 59.8457 38.2344 59.8837 37.9978V37.9885Z" fill="#FEFEFE"/>
<path d="M76.1694 37.9652C76.1694 39.7471 76.1694 41.529 76.1694 43.3109C76.1694 43.5475 76.0981 43.6078 75.8698 43.6032C75.3181 43.6032 74.7663 43.58 74.2193 43.6032C73.934 43.6032 73.8388 43.5522 73.8436 43.2505C73.8436 41.696 73.8436 40.1461 73.8436 38.6102C73.8598 38.1732 73.7986 37.7368 73.6629 37.3201C73.5775 37.0392 73.4011 36.7929 73.1602 36.6181C72.9192 36.4432 72.6266 36.3493 72.3263 36.3503C71.0754 36.2807 70.3525 36.8979 70.224 38.1369C70.1384 38.986 70.186 39.8399 70.1765 40.6937C70.167 41.5475 70.1765 42.4431 70.1765 43.3155C70.1765 43.5707 70.1004 43.6264 69.853 43.6218C69.2823 43.6218 68.7115 43.6218 68.136 43.6218C67.9362 43.6218 67.8411 43.5893 67.8459 43.3573C67.8459 40.604 67.8459 37.8491 67.8459 35.0928C67.8459 34.9025 67.8792 34.8236 68.098 34.8283C68.6592 34.8468 69.2205 34.8468 69.7817 34.8283C70.0243 34.8283 70.0576 34.9164 70.0528 35.116C70.0528 35.4083 70.0528 35.7007 70.0528 35.993C70.5588 35.3317 71.2884 34.8665 72.1123 34.6798C72.9293 34.5003 73.7832 34.5716 74.557 34.8839C75.5368 35.2784 75.9221 36.0904 76.0791 37.0417C76.1317 37.347 76.1619 37.6556 76.1694 37.9652Z" fill="#FEFEFE"/>
<path d="M86.6 43.2971C86.6618 43.3806 86.7189 43.4688 86.8092 43.5987H84.0743C83.8841 43.5987 83.8365 43.4548 83.7604 43.3481L80.7402 39.1718C80.6783 39.0836 80.607 39.0047 80.4928 38.8562V39.2553C80.4928 40.6103 80.4928 41.9653 80.4928 43.3203C80.4928 43.5291 80.4405 43.608 80.2122 43.6033C79.6177 43.6033 79.0231 43.6033 78.4286 43.6033C78.2193 43.6033 78.167 43.5384 78.167 43.3388C78.167 39.4595 78.167 35.5801 78.167 31.7008C78.167 31.4688 78.2431 31.427 78.4571 31.427C79.0136 31.427 79.5749 31.4502 80.1361 31.427C80.4167 31.427 80.4928 31.492 80.4928 31.7657C80.4928 33.9003 80.4928 36.0302 80.4928 38.1602V38.4896L80.5547 38.5221L82.1052 36.6428L83.4751 34.9815C83.5369 34.9073 83.5797 34.8145 83.7034 34.8145H86.3859L85.0684 36.3365C84.4549 37.0418 83.846 37.7565 83.2182 38.4572C83.066 38.6242 83.0803 38.7217 83.2182 38.8887C84.3502 40.3551 85.4775 41.8245 86.6 43.2971Z" fill="#FEFEFE"/>
<path d="M89.0638 39.7748C90.0627 39.798 91.0615 39.7748 92.0603 39.7748C93.0592 39.7748 94.1008 39.7748 95.1186 39.7748C95.3232 39.7748 95.3945 39.7238 95.3945 39.5196C95.3992 39.0609 95.361 38.6027 95.2804 38.1507C95.1602 37.4038 94.8401 36.7011 94.3525 36.1135C93.865 35.5259 93.2271 35.0743 92.5034 34.8041C91.7797 34.5339 90.9957 34.4547 90.2306 34.5747C89.4655 34.6946 88.7464 35.0094 88.1459 35.4871C86.7713 36.5451 86.3147 38.0069 86.4336 39.6635C86.4472 40.3005 86.6072 40.9265 86.9019 41.4951C87.1967 42.0638 87.6185 42.5605 88.1364 42.9488C88.7123 43.3525 89.3714 43.6292 90.0678 43.7598C90.7642 43.8904 91.4814 43.8718 92.1697 43.7052C92.845 43.6032 93.478 43.3201 93.9978 42.8874C94.5177 42.4548 94.9041 41.8896 95.1139 41.2551C95.1995 41.0324 95.1567 40.9767 94.9141 40.9813C94.3862 40.9813 93.8582 40.9813 93.335 40.9813C93.2433 40.9643 93.1485 40.9803 93.068 41.0264C92.9875 41.0725 92.9269 41.1455 92.8974 41.2319C92.8065 41.4226 92.6612 41.5837 92.4789 41.696C92.123 41.9381 91.7083 42.0852 91.2761 42.1226C90.8439 42.16 90.4092 42.0866 90.0151 41.9094C89.6581 41.7581 89.3518 41.5123 89.1307 41.1998C88.9096 40.8873 88.7826 40.5207 88.7642 40.1414C88.7024 39.8769 88.7404 39.7748 89.0638 39.7748ZM88.7547 37.9929C88.8223 37.4715 89.088 36.9939 89.4993 36.6545C89.9107 36.3151 90.4376 36.1388 90.9759 36.1604C91.5141 36.1819 92.0244 36.3999 92.4058 36.7711C92.7872 37.1422 93.0119 37.6396 93.0354 38.1646C93.0639 38.3363 92.8974 38.2714 92.8213 38.2714C92.1792 38.2714 91.5419 38.2714 90.9188 38.2714C90.2957 38.2714 89.6631 38.2714 89.0163 38.2714C88.788 38.2992 88.7166 38.2389 88.7547 38.0022V37.9929Z" fill="#FEFEFE"/>
<path d="M99.071 31.6962C99.071 35.5755 99.071 39.4533 99.071 43.3296C99.071 43.5523 98.9996 43.6034 98.7856 43.5987C98.2006 43.5987 97.6203 43.5987 97.0353 43.5987C96.7832 43.5987 96.7451 43.5106 96.7451 43.2971C96.7451 41.3621 96.7451 39.4317 96.7451 37.4966C96.7451 35.5616 96.7451 33.673 96.7451 31.7611C96.7451 31.4874 96.8212 31.4131 97.1018 31.4224C97.6583 31.4456 98.2196 31.4224 98.7808 31.4224C98.9854 31.4224 99.071 31.4688 99.071 31.6962Z" fill="#FEFEFE"/>
<path d="M56.1499 43.2461C56.1499 43.543 56.0596 43.6126 55.7694 43.6034C55.1797 43.5802 54.5804 43.6034 53.9906 43.6034C53.7385 43.6034 53.6671 43.5477 53.6671 43.2971C53.6671 41.7658 53.6671 40.2344 53.6671 38.7031C53.6671 38.4015 53.5768 38.3505 53.2914 38.3551C51.744 38.3551 50.1966 38.3551 48.6492 38.3551C48.3781 38.3551 48.2925 38.4061 48.2973 38.6892C48.2973 40.2205 48.2973 41.7518 48.2973 43.2785C48.2973 43.543 48.2212 43.608 47.9596 43.6034C47.346 43.6034 46.7277 43.6034 46.1093 43.6034C45.9048 43.6034 45.8145 43.5662 45.8145 43.3389C45.8145 39.4595 45.8145 35.5786 45.8145 31.6962C45.8145 31.4641 45.9143 31.4317 46.1141 31.4363C46.7419 31.4363 47.3698 31.4363 48.0166 31.4363C48.2544 31.4363 48.3163 31.5013 48.3163 31.7333C48.3163 33.1857 48.3163 34.6382 48.3163 36.0952C48.3163 36.3458 48.3734 36.4247 48.6445 36.4247C50.2141 36.4247 51.7884 36.4247 53.358 36.4247C53.6339 36.4247 53.6862 36.3365 53.6862 36.0906C53.6862 34.6474 53.6862 33.2043 53.6862 31.7611C53.6862 31.5013 53.7623 31.427 54.0239 31.4363C54.62 31.4549 55.2145 31.4549 55.8075 31.4363C56.0786 31.4363 56.169 31.4966 56.1642 31.7751C56.1642 33.6915 56.1642 35.6034 56.1642 37.5152C56.1642 39.427 56.1309 41.3342 56.1499 43.2461Z" fill="#4C5566" fill-opacity="0.8"/>
<path d="M86.8092 43.5987H84.0743C83.8841 43.5987 83.8365 43.4548 83.7604 43.3481L80.7402 39.1718C80.6783 39.0836 80.607 39.0047 80.4928 38.8562V39.2553C80.4928 40.6103 80.4928 41.9653 80.4928 43.3203C80.4928 43.5291 80.4405 43.608 80.2122 43.6033C79.6177 43.6033 79.0231 43.6033 78.4286 43.6033C78.2193 43.6033 78.167 43.5384 78.167 43.3388C78.167 39.4595 78.167 35.5801 78.167 31.7008C78.167 31.4688 78.2431 31.427 78.4571 31.427C79.0136 31.427 79.5749 31.4502 80.1361 31.427C80.4167 31.427 80.4928 31.492 80.4928 31.7657C80.4928 33.9003 80.4928 36.0302 80.4928 38.1602V38.4896L80.5547 38.5221L82.1052 36.6428L83.4751 34.9815C83.5369 34.9073 83.5797 34.8145 83.7034 34.8145H86.3859L85.0684 36.3365C84.4549 37.0418 83.846 37.7565 83.2182 38.4572C83.066 38.6242 83.0803 38.7217 83.2182 38.8887C84.3534 40.3551 85.4838 41.8245 86.6095 43.2971C86.6618 43.3806 86.7379 43.4873 86.8092 43.5987Z" fill="#4C5566" fill-opacity="0.8"/>
<path d="M60.1644 39.775C61.1584 39.775 62.1573 39.775 63.1561 39.775C64.1549 39.775 65.1966 39.775 66.2144 39.775C66.4284 39.775 66.5141 39.724 66.5141 39.5059C66.5224 39.069 66.4873 38.6323 66.4094 38.2019C66.067 36.5453 65.2298 35.246 63.4985 34.7541C61.6816 34.2391 60.0122 34.5824 58.7089 35.9885C57.5484 37.2275 57.3201 38.7402 57.6388 40.3411C57.7401 41.0018 58.0113 41.6267 58.4272 42.1574C58.8431 42.6881 59.39 43.1073 60.0169 43.376C60.6675 43.6651 61.3727 43.819 62.0875 43.8278C62.8024 43.8366 63.5113 43.7001 64.1692 43.427C64.659 43.2324 65.0988 42.9349 65.4573 42.5555C65.8157 42.1761 66.084 41.7242 66.2429 41.2321C66.3095 41.0326 66.3 40.963 66.0575 40.9676C65.501 40.9676 64.9397 40.9676 64.3785 40.9676C64.3138 40.9558 64.247 40.9665 64.1896 40.9979C64.1322 41.0293 64.088 41.0793 64.0645 41.1393C63.8876 41.4857 63.5863 41.7565 63.2179 41.9003C62.8811 42.0657 62.5078 42.1478 62.1308 42.1395C61.7539 42.1312 61.3848 42.0326 61.056 41.8526C60.7272 41.6725 60.4488 41.4163 60.2452 41.1067C60.0416 40.797 59.9191 40.4433 59.8885 40.0766C59.8219 39.8214 59.9075 39.775 60.1644 39.775ZM59.8837 37.9885C59.9352 37.4545 60.1949 36.9601 60.6091 36.6075C61.0234 36.2548 61.5606 36.0708 62.1099 36.0934C62.6592 36.1161 63.1786 36.3436 63.5609 36.729C63.9433 37.1145 64.1593 37.6285 64.1644 38.1648C64.1882 38.3411 64.0313 38.2715 63.9504 38.2715C63.3035 38.2715 62.6519 38.2715 62.0051 38.2715C61.3582 38.2715 60.7732 38.2715 60.1549 38.2715C59.9123 38.2994 59.8457 38.2344 59.8837 37.9978V37.9885Z" fill="#4C5566" fill-opacity="0.8"/>
<path d="M89.0638 39.7748C90.0627 39.798 91.0615 39.7748 92.0603 39.7748C93.0592 39.7748 94.1008 39.7748 95.1186 39.7748C95.3232 39.7748 95.3945 39.7238 95.3945 39.5196C95.3992 39.0609 95.361 38.6027 95.2804 38.1507C95.1602 37.4038 94.8401 36.7011 94.3525 36.1135C93.865 35.5259 93.2271 35.0743 92.5034 34.8041C91.7797 34.5339 90.9957 34.4547 90.2306 34.5747C89.4655 34.6946 88.7464 35.0094 88.1459 35.4871C86.7713 36.5451 86.3147 38.0069 86.4336 39.6635C86.4472 40.3005 86.6072 40.9265 86.9019 41.4951C87.1967 42.0638 87.6185 42.5605 88.1364 42.9488C88.7123 43.3525 89.3714 43.6292 90.0678 43.7598C90.7642 43.8904 91.4814 43.8718 92.1697 43.7052C92.845 43.6032 93.478 43.3201 93.9978 42.8874C94.5177 42.4548 94.9041 41.8896 95.1139 41.2551C95.1995 41.0324 95.1567 40.9767 94.9141 40.9813C94.3862 40.9813 93.8582 40.9813 93.335 40.9813C93.2433 40.9643 93.1485 40.9803 93.068 41.0264C92.9875 41.0725 92.9269 41.1455 92.8974 41.2319C92.8065 41.4226 92.6612 41.5837 92.4789 41.696C92.123 41.9381 91.7083 42.0852 91.2761 42.1226C90.8439 42.16 90.4092 42.0866 90.0151 41.9094C89.6581 41.7581 89.3518 41.5123 89.1307 41.1998C88.9096 40.8873 88.7826 40.5207 88.7642 40.1414C88.7024 39.8769 88.7404 39.7748 89.0638 39.7748ZM88.7547 37.9929C88.8223 37.4715 89.088 36.9939 89.4993 36.6545C89.9107 36.3151 90.4376 36.1388 90.9759 36.1604C91.5141 36.1819 92.0244 36.3999 92.4058 36.7711C92.7872 37.1422 93.0119 37.6396 93.0354 38.1646C93.0639 38.3363 92.8974 38.2714 92.8213 38.2714C92.1792 38.2714 91.5419 38.2714 90.9188 38.2714C90.2957 38.2714 89.6631 38.2714 89.0163 38.2714C88.788 38.2992 88.7166 38.2389 88.7547 38.0022V37.9929Z" fill="#4C5566" fill-opacity="0.8"/>
<path d="M76.1836 43.3109C76.1836 43.5475 76.1123 43.6078 75.8839 43.6032C75.3322 43.6032 74.7805 43.58 74.2335 43.6032C73.9481 43.6032 73.853 43.5522 73.8578 43.2505C73.8578 41.696 73.8578 40.1461 73.8578 38.6102C73.8739 38.1732 73.8128 37.7368 73.677 37.3201C73.5917 37.0392 73.4153 36.7929 73.1743 36.6181C72.9334 36.4432 72.6408 36.3493 72.3405 36.3503C71.0896 36.2807 70.3666 36.8979 70.2382 38.1369C70.1526 38.986 70.2001 39.8399 70.1906 40.6937C70.1811 41.5475 70.1906 42.4431 70.1906 43.3155C70.1906 43.5707 70.1145 43.6264 69.8672 43.6218C69.2964 43.6218 68.7257 43.6218 68.1502 43.6218C67.9504 43.6218 67.8553 43.5893 67.86 43.3573C67.86 40.604 67.86 37.8491 67.86 35.0928C67.86 34.9025 67.8933 34.8236 68.1121 34.8283C68.6734 34.8468 69.2346 34.8468 69.7959 34.8283C70.0384 34.8283 70.0717 34.9164 70.067 35.116C70.067 35.4083 70.067 35.7007 70.067 35.993C70.573 35.3317 71.3026 34.8665 72.1265 34.6798C72.9435 34.5003 73.7973 34.5716 74.5712 34.8839C75.551 35.2784 75.9363 36.0904 76.0932 37.0417C76.1397 37.349 76.1636 37.6592 76.1646 37.9698C76.1788 39.7471 76.1741 41.529 76.1836 43.3109Z" fill="#4C5566" fill-opacity="0.8"/>
<path d="M99.071 31.6962C99.071 35.5755 99.071 39.4533 99.071 43.3296C99.071 43.5523 98.9996 43.6034 98.7856 43.5987C98.2006 43.5987 97.6203 43.5987 97.0353 43.5987C96.7832 43.5987 96.7451 43.5106 96.7451 43.2971C96.7451 41.3621 96.7451 39.4317 96.7451 37.4966C96.7451 35.5616 96.7451 33.673 96.7451 31.7611C96.7451 31.4874 96.8212 31.4131 97.1018 31.4224C97.6583 31.4456 98.2196 31.4224 98.7808 31.4224C98.9854 31.4224 99.071 31.4688 99.071 31.6962Z" fill="#4C5566" fill-opacity="0.8"/>
</g>
<defs>
<clipPath id="clip0_723_1961">
<rect width="69" height="38" fill="white" transform="translate(38 19)"/>
</clipPath>
</defs>
</svg>
