<svg width="146" height="68" viewBox="0 0 146 68" fill="none" xmlns="http://www.w3.org/2000/svg">
<path fill-rule="evenodd" clip-rule="evenodd" d="M100.367 53.098L94.1476 33.3811C93.9241 32.6115 93.7824 31.8207 93.725 31.0217H88.8914C88.7492 31.5878 88.5061 32.124 88.1736 32.6049C87.937 32.8908 87.715 33.1884 87.5087 33.4966L79.2975 44.1627L78.305 41.0131L84.0367 33.4539C84.6886 32.5398 85.4585 31.7148 86.3267 31H81.1445C80.6726 31.8944 80.0988 32.7319 79.4342 33.4959L76.8906 36.8556L75.834 33.5309C75.5841 32.7022 75.3902 31.8579 75.2536 31.0035H69.3036C69.6986 31.7661 70.0235 32.5626 70.2742 33.3832L73.0714 41.8677L71.3181 44.1627L67.9194 33.5176C67.652 32.7124 67.5164 31.8697 67.5179 31.0217H62.6421C62.5135 31.5983 62.2849 32.1482 61.9666 32.6469C61.8058 32.9437 61.6223 33.2278 61.4178 33.4966L46.3663 53.2344C45.4783 54.3716 44.45 55.3933 43.3057 56.2756H48.2364L56.1715 45.788H66.3254L67.4756 49.2806L64.5207 53.14C63.7706 54.1981 62.9071 55.1723 61.9454 56.0453C61.8546 56.1465 61.7557 56.2401 61.6496 56.3253H66.2937L68.7534 53.1757L69.7452 56.3253H74.3893L76.7011 53.1757L77.6507 56.3253H83.4345C82.9381 55.3062 82.5144 54.2537 82.1665 53.1757L80.5204 48.2573L82.3462 45.8657H92.5226L94.8126 53.1232C95.1648 54.1457 95.4123 55.2009 95.5515 56.2728H101.695C101.11 55.2787 100.664 54.2108 100.367 53.098ZM58.4833 42.6943L63.3162 36.3285L65.4294 42.6943H58.4833ZM73.7032 51.5672L72.5846 48.0627L74.2519 45.823L75.4762 49.2421L73.7032 51.5672ZM84.8066 42.6943L89.4085 36.3285L91.5216 42.6943H84.8066Z" fill="#4C5566" fill-opacity="0.8"/>
</svg>
