<svg width="145" height="68" viewBox="0 0 145 68" fill="none" xmlns="http://www.w3.org/2000/svg">
<path d="M75.4982 40.0844V37.4115C75.4982 37.2609 75.3476 37.1103 75.197 37.1479C73.0512 37.2232 71.7712 38.1644 71.0559 38.955C69.2488 40.9126 69.3617 43.6232 69.3617 44.3009V50.2115C69.3617 50.3621 69.4747 50.475 69.6253 50.475H72.2982C72.4488 50.475 72.5617 50.3621 72.5617 50.2115V44.1503C72.5617 44.1503 72.4488 42.1926 73.39 41.1385C73.8041 40.6868 74.4064 40.4232 75.197 40.3856C75.3476 40.3856 75.4982 40.235 75.4982 40.0844Z" fill="#4C5566" fill-opacity="0.8"/>
<path d="M125.042 40.0844V37.4115C125.042 37.2609 124.892 37.1103 124.741 37.1479C122.595 37.2232 121.315 38.1644 120.6 38.955C118.793 40.9126 118.906 43.6232 118.906 44.3009V50.2115C118.906 50.3621 119.019 50.475 119.169 50.475H121.842C121.993 50.475 122.106 50.3621 122.106 50.2115V44.1503C122.106 44.1503 121.993 42.1926 122.934 41.1385C123.348 40.6868 123.95 40.4232 124.741 40.3856C124.929 40.3856 125.042 40.235 125.042 40.0844Z" fill="#4C5566" fill-opacity="0.8"/>
<path d="M32.9945 52.3199C28.1757 52.3199 24.298 48.4046 24.298 43.6234C24.298 38.8422 28.2133 34.8893 32.9945 34.8893C37.8133 34.8893 41.691 38.8046 41.691 43.5857C41.691 48.3669 37.8133 52.3199 32.9945 52.3199ZM45.9451 35.8304C45.6063 34.5504 45.0416 33.3457 44.1757 32.4422C43.2721 31.5763 42.0674 31.0493 40.7874 30.6728C37.4368 29.7316 33.5592 29.8069 30.171 30.5599C26.7451 31.3504 24.2604 33.5716 22.2274 36.3575C20.3451 38.9552 18.5757 42.1552 18.3121 45.3928C18.0486 48.781 19.7427 52.0563 22.1898 54.4281C24.5616 56.8752 27.7992 58.5693 31.2251 58.3057C34.4627 58.0422 37.6627 56.2728 40.2604 54.3904C43.0463 52.3575 45.2674 49.9104 46.058 46.4846C46.811 43.0587 46.8863 39.181 45.9451 35.8304Z" fill="#4C5566" fill-opacity="0.8"/>
<path d="M101.022 37.4114L96.6548 46.9738L92.2501 37.4114C92.1748 37.2608 92.0242 37.1855 91.8736 37.1855H89.3136C89.1254 37.1855 88.9748 37.4114 89.0501 37.562L94.8854 50.3243C94.923 50.4373 95.0359 50.4749 95.1489 50.4749H98.123C98.2359 50.4749 98.3489 50.3996 98.3865 50.3243L104.222 37.562C104.297 37.3738 104.184 37.1855 103.958 37.1855H101.398C101.21 37.1479 101.059 37.2608 101.022 37.4114Z" fill="#4C5566" fill-opacity="0.8"/>
<path d="M106.859 42.193L106.897 42.1177C107.575 40.7247 109.005 39.7836 110.549 39.7836C112.092 39.7836 113.56 40.6871 114.2 42.1177L114.238 42.193H106.859ZM110.172 36.8471C106.596 37.0353 103.735 39.9341 103.546 43.473C103.32 47.5012 106.558 50.8894 110.549 50.8894C112.77 50.8894 114.878 49.8353 116.196 48.0659C116.309 47.953 116.271 47.7647 116.12 47.6518L114.087 46.3341C113.975 46.2588 113.824 46.2965 113.711 46.4094C112.958 47.3506 111.791 47.9153 110.549 47.9153C108.779 47.9153 107.236 46.7859 106.671 45.0918L106.633 45.0165H114.426H117.25C117.4 45.0165 117.513 44.9036 117.513 44.753C117.551 44.4518 117.589 44.1506 117.589 43.8494C117.589 39.8588 114.238 36.6212 110.172 36.8471Z" fill="#4C5566" fill-opacity="0.8"/>
<path d="M82.6894 47.8773C80.4682 47.8773 78.6612 46.0703 78.6612 43.8491C78.6612 41.6279 80.4682 39.8208 82.6894 39.8208C84.9106 39.8208 86.7176 41.6279 86.7176 43.8491C86.7553 46.0703 84.9106 47.8773 82.6894 47.8773ZM82.6894 36.8091C78.8118 36.8091 75.6494 39.9714 75.6494 43.8491C75.6494 47.7267 78.8118 50.8891 82.6894 50.8891C86.5671 50.8891 89.7294 47.7267 89.7294 43.8491C89.7294 39.9714 86.5671 36.8091 82.6894 36.8091Z" fill="#4C5566" fill-opacity="0.8"/>
<path d="M59.3484 34.8892C54.5295 34.8892 50.6143 38.8045 50.6143 43.6233C50.6143 48.4421 54.5295 52.3574 59.3484 52.3574C64.1672 52.3574 68.0825 48.4421 68.0825 43.6233C68.0825 43.1715 68.0448 42.7197 67.9695 42.2303C67.9319 42.0797 67.8189 42.0045 67.706 42.0045H59.9884C59.8378 42.0045 59.7248 42.1174 59.7248 42.268V44.9409C59.7248 45.0915 59.8378 45.2045 59.9884 45.2045H64.6566L64.619 45.2797C63.866 47.6139 61.7201 49.1574 59.2354 49.1197C56.2237 49.0445 53.7766 46.5221 53.8519 43.4727C53.9272 40.4986 56.3743 38.0892 59.386 38.0892C61.1554 38.0892 62.8119 38.9174 63.8284 40.348C63.9037 40.4609 64.0919 40.4986 64.2048 40.4233L66.426 38.9927C66.5766 38.9174 66.5766 38.7292 66.5013 38.6162C64.8448 36.2821 62.2095 34.8892 59.3484 34.8892Z" fill="#4C5566" fill-opacity="0.8"/>
</svg>
