<svg width="145" height="68" viewBox="0 0 145 68" fill="none" xmlns="http://www.w3.org/2000/svg">
<g clip-path="url(#clip0)">
<path d="M102.074 43H88.4404V47.2221H102.074V43Z" fill="#4C5566" fill-opacity="0.8"/>
<path d="M93.0804 52.5657H99.7654V48.5415H88.4404V58.5471H102.074V54.3029H93.0804V52.5657Z" fill="#4C5566" fill-opacity="0.8"/>
<path d="M69.9239 43H61.5017C58.8628 43 56.5758 44.5173 55.1465 47.2221H69.9019V43H69.9239Z" fill="#4C5566" fill-opacity="0.8"/>
<path d="M62.6235 52.5657H65.2843V54.3029H62.7554C60.3585 54.3029 59.259 52.3678 59.259 49.9709C59.259 49.4871 59.303 49.0033 59.4129 48.5415H54.8609C54.773 48.9593 54.751 49.3991 54.751 49.8389V51.6421C54.751 55.4244 57.7856 58.5471 61.546 58.5471H69.9682V48.5415H62.6675V52.5657H62.6235Z" fill="#4C5566" fill-opacity="0.8"/>
<path d="M118.699 51.6861C118.061 49.9049 116.544 48.6295 114.762 48.5415H104.075C104.405 50.7405 106.186 52.4118 108.385 52.5657H113.575C114.059 52.4997 114.499 52.8296 114.565 53.3134C114.631 53.7972 114.301 54.237 113.817 54.3029C113.729 54.3249 113.641 54.3029 113.553 54.3029H104.075V58.5251H114.587C117.049 58.4811 119.029 56.2601 119.029 53.5113C119.029 52.8956 118.919 52.2798 118.699 51.6861Z" fill="#4C5566" fill-opacity="0.8"/>
<path d="M118.544 43H108.803C106.384 43.022 104.383 44.8252 104.097 47.2221H118.544V43Z" fill="#4C5566" fill-opacity="0.8"/>
<path d="M48.5278 51.7521C48.5278 53.0495 47.3843 54.083 45.955 54.083C44.5256 54.083 43.4041 53.0495 43.3821 51.7521V48.5415H38.7422V51.7961C38.7422 55.5344 41.403 58.591 44.6795 58.591H47.2084C50.485 58.591 53.1898 55.5564 53.1678 51.7961V48.5415H48.5278V51.7521Z" fill="#4C5566" fill-opacity="0.8"/>
<path d="M43.3821 43H38.7422V47.2221H43.3821V43Z" fill="#4C5566" fill-opacity="0.8"/>
<path d="M53.1683 43H48.5283V47.2221H53.1683V43Z" fill="#4C5566" fill-opacity="0.8"/>
<path d="M26.9114 43H22.2715V58.5471H26.9114V52.5658H32.0791V58.5471H36.7191V48.5415H26.9114V43Z" fill="#4C5566" fill-opacity="0.8"/>
<path d="M36.719 43H32.0791V47.2221H36.719V43Z" fill="#4C5566" fill-opacity="0.8"/>
<path d="M71.9697 58.5471H76.6097V52.5657H81.7554V58.5471H86.3953V48.5415H71.9697V58.5471Z" fill="#4C5566" fill-opacity="0.8"/>
<path d="M86.3948 43H81.7549V47.2221H86.3948V43Z" fill="#4C5566" fill-opacity="0.8"/>
<path d="M76.6097 43H71.9697V47.2221H76.6097V43Z" fill="#4C5566" fill-opacity="0.8"/>
<path d="M120.172 56.2822C120.788 56.2822 121.293 56.81 121.271 57.4257C121.271 58.0414 120.744 58.5472 120.128 58.5252C119.512 58.5252 119.028 58.0195 119.028 57.4037C119.028 56.788 119.534 56.2822 120.172 56.2822ZM120.172 56.4801C119.644 56.4581 119.226 56.876 119.204 57.4037C119.182 57.9315 119.6 58.3493 120.128 58.3713C120.656 58.3933 121.073 57.9755 121.095 57.4477V57.4257C121.117 56.9199 120.722 56.5021 120.216 56.4801C120.194 56.4801 120.194 56.4801 120.172 56.4801ZM119.93 58.0634H119.732V56.766H120.238C120.546 56.766 120.7 56.876 120.7 57.1398C120.7 57.3158 120.568 57.4917 120.392 57.4917H120.37L120.744 58.0634H120.524L120.172 57.4917H119.952L119.93 58.0634ZM119.93 57.3378H120.172C120.414 57.3378 120.502 57.2718 120.502 57.1179C120.502 56.9639 120.436 56.9199 120.216 56.9199H119.952V57.3378H119.93Z" fill="black"/>
</g>
<defs>
<clipPath id="clip0">
<rect width="99" height="15.5691" fill="white" transform="translate(22.2715 43)"/>
</clipPath>
</defs>
</svg>
