<svg width="146" height="68" viewBox="0 0 146 68" fill="none" xmlns="http://www.w3.org/2000/svg">
<g clip-path="url(#clip0)">
<path d="M66.3862 59.0699C64.1839 58.9514 62.5406 58.0452 61.5795 56.4193C60.9347 55.3278 60.7384 53.8923 61.0334 52.4255C61.3603 50.8003 62.4702 49.3358 64.1736 48.2824C65.1524 47.6766 65.9902 47.3006 67.6961 46.701C68.125 46.5503 68.4952 46.4115 68.5191 46.3922C68.5533 46.3651 68.5581 46.2689 68.541 45.9568C68.492 45.069 68.6401 43.6858 68.8909 42.6876C69.3127 41.0078 70.1243 39.6526 71.2016 38.8307C71.9748 38.2401 72.9885 37.796 73.9977 37.6056C74.555 37.5007 75.4884 37.501 76.0128 37.6066C78.2599 38.059 79.5212 39.7911 79.0245 41.7426C78.9199 42.1541 78.5894 42.8286 78.3096 43.2017C77.5929 44.1576 76.5146 45.0077 74.992 45.8164C74.8006 45.9184 74.1739 46.2263 73.5998 46.5012C73.0256 46.7759 72.538 47.0189 72.5154 47.0415C72.4834 47.0734 72.4915 47.1667 72.5535 47.4804C72.8391 48.9307 73.3193 50.1561 74.1394 51.5264C74.4653 52.0718 74.9162 52.7596 74.9675 52.7915C75.0417 52.8373 75.3451 52.3471 75.5429 51.8621C75.7875 51.2618 75.9276 50.4679 75.8585 50.0735C75.8088 49.7911 75.6546 49.4929 75.4577 49.3003C75.3673 49.2112 75.2925 49.1269 75.2921 49.1131C75.2918 49.0995 76.056 49.0918 76.991 49.0966L78.6908 49.1053L78.6811 49.3209C78.6679 49.6156 78.5585 50.2439 78.4432 50.6912C78.1183 51.9489 77.5057 53.0245 76.4469 54.1993C76.322 54.3377 76.2197 54.4736 76.2197 54.5013C76.2197 54.5291 76.3952 54.7217 76.6095 54.9296C77.9479 56.2269 80.3186 57.7231 82.2488 58.4883C82.4363 58.5628 82.5893 58.6387 82.5887 58.6568C82.588 58.6787 81.4737 58.6929 79.332 58.6987L76.0764 58.7071L75.8911 58.6029C75.5129 58.3902 74.6754 57.7134 73.8708 56.9699C73.7005 56.8124 73.5391 56.6836 73.5123 56.6836C73.4855 56.6836 73.2961 56.7937 73.0921 56.9282C72.0468 57.6176 70.7975 58.2369 69.7409 58.5893C68.5391 58.9905 67.547 59.1325 66.3862 59.0702V59.0699ZM69.1274 56.2492C69.6147 56.1624 70.2134 55.9855 70.764 55.7658C71.3174 55.545 72.0036 55.2075 72.0281 55.1436C72.0378 55.1184 71.9109 54.9063 71.7467 54.672C70.9892 53.5928 70.1801 52.0751 69.6364 50.7138C69.4359 50.212 69.0616 49.1005 68.9899 48.7958C68.9673 48.6987 68.9264 48.6106 68.8989 48.5999C68.8231 48.5709 68.2012 48.9023 67.6638 49.2586C65.7539 50.5247 64.8384 52.0702 65.0417 53.6851C65.1321 54.4029 65.3593 54.926 65.7727 55.3678C66.5369 56.1843 67.7316 56.4984 69.1274 56.2492ZM72.3692 45.0196C73.076 44.6059 74.1971 43.6012 74.8242 42.8202C75.6268 41.8207 76.0535 40.888 76.0538 40.1316C76.0538 39.6991 75.9925 39.5055 75.7924 39.3054C75.5932 39.1066 75.3686 39.0243 75.0256 39.024C74.0077 39.024 72.9069 40.2323 72.4273 41.8762C72.1852 42.705 72.1265 43.151 72.1249 44.1634C72.1236 44.9367 72.1362 45.1087 72.1943 45.1087C72.2069 45.1087 72.2856 45.0687 72.3692 45.0196ZM89.2036 59.0505C87.5264 58.8817 86.4211 58.6309 85.174 58.1372C83.4771 57.4646 82.4176 56.6316 81.5227 55.2668C81.2548 54.8583 80.825 54.0005 80.6513 53.5264C79.8752 51.4141 79.7048 48.7548 80.1673 45.9807C80.6355 43.173 81.7021 40.4669 83.1738 38.3517C84.1284 36.9801 85.5487 35.5356 87.0149 34.4448C89.436 32.644 92.2227 31.537 95.3186 31.1478C96.2578 31.0297 96.7838 30.9994 97.893 31C99.5709 31.001 100.849 31.1288 102.536 31.4641C103.613 31.6784 105.328 32.1412 105.361 32.2267C105.378 32.2699 104.291 35.7525 104.246 35.7993C104.232 35.8138 104.066 35.7025 103.876 35.5508C102.35 34.3341 100.768 33.5934 99.1688 33.3472C98.6579 33.2685 97.6978 33.2675 97.1969 33.3453C94.9546 33.6925 92.8756 35.1251 91.0299 37.5949C90.4303 38.3972 89.7697 39.4726 89.2559 40.4821C88.5598 41.8504 88.0812 43.06 87.5971 44.6775C86.0551 49.8237 85.977 53.4192 87.3647 55.3656C87.9363 56.1676 88.7718 56.6784 89.832 56.8737C90.4406 56.986 91.9181 56.9179 92.0652 56.7711C92.0888 56.7478 92.8101 54.491 93.6679 51.7559C95.0776 47.2632 95.2299 46.7565 95.246 46.5019C95.2673 46.1598 95.2037 45.8542 95.0498 45.5598C94.9101 45.2923 94.5409 44.9292 94.2365 44.7605C94.1052 44.6875 93.9974 44.6165 93.9971 44.603C93.9967 44.5894 96.3617 44.5781 99.253 44.5781C102.144 44.5781 104.51 44.5894 104.509 44.603C104.509 44.6165 104.381 44.6865 104.225 44.7579C103.406 45.1322 102.813 45.6931 102.46 46.427C102.384 46.5858 101.722 48.6409 100.729 51.8056L99.1204 56.9273L98.6556 57.1499C96.7628 58.0584 94.4473 58.7126 92.1375 58.9918C91.7131 59.0434 89.5589 59.0863 89.2039 59.0505H89.2036ZM40.8175 58.6761C40.8068 58.6593 40.8769 58.6003 40.9727 58.5451C41.5439 58.2162 42.1852 57.534 42.4569 56.9653C42.5357 56.8008 49.7464 33.8355 49.9055 33.242C49.9335 33.1381 49.9571 32.9186 49.9574 32.7547C49.9597 32.2538 49.8041 31.8927 49.4378 31.5461C49.3378 31.4515 49.2561 31.3602 49.2561 31.3431C49.2561 31.2976 61.8473 31.3014 62.4247 31.3473C63.6749 31.4463 64.9265 31.7788 65.8837 32.2654C67.518 33.0964 68.4965 34.3577 68.7973 36.0207C68.8812 36.4835 68.8973 37.513 68.8286 38.0113C68.5484 40.0425 67.628 42.197 66.3749 43.7558C64.3449 46.2808 61.025 47.8954 56.9506 48.3395C55.659 48.4802 54.0315 48.5157 52.8791 48.4279C52.546 48.4024 52.2665 48.3885 52.2581 48.3969C52.2172 48.4382 49.6176 56.7791 49.5879 56.9653C49.4963 57.5395 49.7919 58.1849 50.3015 58.5232C50.4021 58.59 50.4757 58.6587 50.4654 58.6755C50.4396 58.7171 40.843 58.7174 40.8172 58.6758L40.8175 58.6761ZM55.1098 46.2876C56.0563 46.1198 56.8915 45.7693 57.6974 45.2023C58.0889 44.927 58.8931 44.1237 59.2249 43.6767C60.0549 42.5591 60.6655 41.2405 61.158 39.5035C61.4717 38.3966 61.6053 37.5533 61.605 36.6842C61.605 36.0142 61.5443 35.614 61.3758 35.1651C61.1257 34.499 60.6165 33.9727 59.9694 33.7112C59.4137 33.4866 58.9392 33.4276 57.7981 33.4408L56.9377 33.4505L54.9377 39.8185C53.8382 43.3211 52.9443 46.2037 52.9517 46.2243C52.9594 46.245 53.0976 46.2799 53.2583 46.3018C53.4196 46.3237 53.5736 46.347 53.601 46.3538C53.7262 46.3844 54.8409 46.3357 55.1098 46.2879V46.2876Z" fill="#4C5566" fill-opacity="0.8"/>
</g>
<defs>
<clipPath id="clip0">
<rect width="64.5454" height="28.4" fill="white" transform="translate(40.8154 31)"/>
</clipPath>
</defs>
</svg>
