<svg width="146" height="68" viewBox="0 0 146 68" fill="none" xmlns="http://www.w3.org/2000/svg">
<g clip-path="url(#clip0_856:55)">
<path d="M85.423 34.6058C84.7593 34.157 83.9733 33.9293 83.1751 33.9545C82.3178 33.9524 81.4828 34.2301 80.7943 34.7463V28.9556H77.9502V47.8441H80.7882V37.9866C80.7882 37.3007 81.3583 36.5435 82.4178 36.4967C82.6964 36.4845 82.9738 36.5402 83.2266 36.6593C83.4794 36.7783 83.7001 36.9571 83.87 37.1806C84.2225 37.7118 84.2004 38.4141 84.2004 39.1855V47.8441H87.0364V39.0735C87.0364 36.4886 86.7041 35.5686 85.425 34.6058" fill="#4C5566" fill-opacity="0.8"/>
<path d="M62.3534 41.0892C62.3723 41.9339 62.3481 42.7791 62.2809 43.6213C62.1842 44.639 61.7512 45.734 60.5688 45.734C59.3865 45.734 58.9091 44.5738 58.8587 43.5704C58.7923 42.7451 58.7674 41.917 58.7842 41.0892C58.7842 39.239 58.8567 38.4676 58.8587 38.4615C58.8728 37.4194 59.4086 36.3752 60.5688 36.3752C61.729 36.3752 62.2688 37.4194 62.2809 38.4514C62.2809 38.4676 62.3534 39.239 62.3534 41.0974V41.0892ZM65.0968 38.8706C64.694 34.8324 62.4259 33.9653 60.5648 33.9653C57.9262 33.9653 56.3168 35.6608 56.0288 38.8645C56.0066 39.121 55.9643 39.5912 55.9502 41.1035C55.9502 42.2046 56.0086 43.1063 56.0227 43.3424C56.206 46.3324 57.902 48.1744 60.5648 48.1744C63.2276 48.1744 64.9196 46.2998 65.1049 43.3404C65.117 43.1368 65.1794 42.2128 65.1794 41.1116C65.1794 40.5946 65.1351 39.2431 65.0968 38.8625V38.8706Z" fill="#4C5566" fill-opacity="0.8"/>
<path d="M91.7717 39.3896C91.7919 38.7627 91.7919 38.6324 91.806 38.4492C91.8865 37.3175 92.3861 36.3833 93.5342 36.3731C94.8958 36.3629 95.214 37.7104 95.2604 38.4574C95.2886 38.8481 95.3168 39.1107 95.3127 39.3896H91.7717ZM95.2725 43.1734C95.2733 43.3298 95.2645 43.4862 95.2463 43.6415C95.1697 44.3091 94.9059 45.7339 93.5241 45.7339C92.3498 45.7339 91.9006 44.6511 91.8201 43.5764C91.7672 42.9754 91.7443 42.3722 91.7516 41.7689H98.0743C98.0743 41.7689 98.0843 40.8184 98.0743 40.2465C98.0743 40.0226 98.0541 39.6481 97.9997 38.8604C97.9151 37.6493 97.466 36.3242 96.7912 35.4714C96.401 34.9835 95.9046 34.593 95.3408 34.3304C94.777 34.0677 94.1608 33.94 93.5402 33.9571C90.9882 33.9571 89.3909 35.6363 89.0767 38.8583C89.0102 39.6026 88.9854 40.3501 89.0021 41.0973C89.0021 42.1984 89.0606 43.1164 89.0726 43.3362C89.2459 46.2774 90.968 48.1682 93.5402 48.1682C96.1124 48.1682 97.8326 46.3262 98.0098 43.1897L95.2725 43.1734Z" fill="#4C5566" fill-opacity="0.8"/>
<path d="M46.9791 19.3163H93.0667L110.691 40.1486L93.0728 60.7061H46.9771L29.2861 40.0794L46.9791 19.3183V19.3163ZM94.1826 17H45.8652L26.2607 40L45.8673 62.8596H94.1806L113.719 40.0773L94.1826 17Z" fill="#4C5566" fill-opacity="0.8"/>
<path d="M47.5489 31.5226H48.8903C50.3487 31.5226 51.1402 32.3042 51.1765 33.7005C51.1765 33.8023 51.1926 33.9203 51.1926 34.1381C51.1957 34.2849 51.1903 34.4316 51.1765 34.5778C51.0959 35.4062 50.7354 36.8554 49.0273 36.8554H47.5489V31.5226V31.5226ZM54.2663 46.6782L53.9803 42.0355C53.8534 39.9594 53.3196 38.7401 52.2581 38.1132C53.0256 37.6471 54.0166 36.4849 54.0085 34.0852C53.9944 30.4215 51.7405 29.131 49.0877 29.1025H44.7471V47.8404H47.5469V39.2734H49.1039C50.0042 39.2734 51.0214 40.0693 51.1745 42.3062L51.4665 46.6924C51.4818 47.0803 51.5283 47.4663 51.6055 47.8465H54.4073C54.326 47.4621 54.2789 47.0711 54.2663 46.6782Z" fill="#4C5566" fill-opacity="0.8"/>
<path d="M73.3806 43.0531C73.3685 43.2567 73.3564 43.448 73.3464 43.5783C73.2658 44.6265 72.8992 45.7419 71.6322 45.7419C70.4519 45.7419 69.9846 44.5329 69.9 43.6454C69.8476 43.1061 69.8597 42.6888 69.8496 41.0971C69.8236 40.2206 69.8471 39.3433 69.9201 38.4694C70.0209 37.3011 70.472 36.3933 71.6322 36.3831C72.8287 36.3831 73.3323 37.4273 73.3464 38.4592C73.3464 38.4694 73.3685 38.7198 73.3886 39.2734H76.1945C76.1945 39.0861 76.1784 38.9274 76.1703 38.8338C75.85 34.9197 73.4914 33.9712 71.6282 33.9712C68.9896 33.9712 67.3822 35.6667 67.0922 38.8704C67.07 39.1269 67.0297 39.597 67.0156 41.1093C67.0156 42.2105 67.074 43.1122 67.0881 43.3483C67.2694 46.3383 68.9674 48.1722 71.6282 48.1803C74.3857 48.1905 75.9064 46.4909 76.1703 43.3462C76.1837 43.256 76.1891 43.1647 76.1864 43.0735H73.3806" fill="#4C5566" fill-opacity="0.8"/>
</g>
<defs>
<clipPath id="clip0_856:55">
<rect width="87.619" height="46" fill="white" transform="translate(26.1846 17)"/>
</clipPath>
</defs>
</svg>
