<svg width="90" height="44" viewBox="0 0 90 44" fill="none" xmlns="http://www.w3.org/2000/svg">
<path d="M7.96335 44L7.7641 43.971L7.57208 43.9058L7.42717 43.8261L7.26776 43.6848L7.12647 43.4964L7.03227 43.3008L6.96706 43.0798L6.9417 42.924V42.6595L6.9888 42.1849L7.13371 41.3082L7.37645 40.1199L7.55759 39.1816L7.61918 38.7468L7.59744 38.6925L7.47789 38.6345L6.97793 38.4316L6.27871 38.0947L5.49979 37.6346L5.02519 37.3158L4.40568 36.8412L4.03252 36.5079L3.634 36.1093L3.32606 35.776L2.8587 35.229L2.75726 35.0986L2.56163 34.845L2.08703 34.1783L2.00008 34.0443L1.8298 33.7835L1.78633 33.7508L1.77184 33.7726L1.77908 33.9392L1.82618 34.3921L1.92037 35.0189L2.17035 36.1202L2.23194 36.5477L2.24281 36.9825L2.22832 37.2071L2.18485 37.4317L2.10877 37.6527L2.03268 37.7831L1.924 37.9353L1.77546 38.0838L1.61243 38.1889L1.45664 38.2541L1.30448 38.2831L1.11247 38.2795L0.960309 38.2324L0.826262 38.1635L0.681346 38.0512L0.57266 37.9389L0.449481 37.7215L0.351663 37.4571L0.311812 37.1455V36.7325L0.348041 36.3738L0.518316 35.5261L0.717575 34.7254L0.779164 34.3921L0.804525 34.1312L0.822639 34.0624L0.866114 33.6349L0.880605 32.8669L0.855245 32.356L0.837131 32.2147L0.822639 31.9611L0.739313 31.501L0.71033 31.338L0.536431 30.646L0.373401 29.9649L0.2466 29.0157L0.203125 28.3274L0.210371 27.8021L0.217617 27.726V27.4217L0.232108 27.063L0.2466 26.9688L0.268337 26.6753L0.358909 25.987L0.478465 25.3457L0.612512 24.7878L0.808148 24.1321L0.967555 23.6611L1.25739 22.9438L1.54359 22.3424L1.88415 21.7192L2.09065 21.3751L2.47105 20.8063L2.90942 20.2302L3.25722 19.8136L3.33692 19.7303L3.44923 19.6035L3.8876 19.1615L3.98904 19.0745L4.38756 18.7122L4.95636 18.2702L5.20634 18.0891L5.49979 17.8898L5.52153 17.8464L5.51066 17.792L5.40559 17.6L5.34763 17.4152L5.30778 17.1254L5.31502 16.9117L5.38023 16.6218L5.48168 16.39L5.64471 16.1182L5.80411 15.9226L6.1193 15.6255L6.28233 15.5096L6.31132 15.4661L6.29682 15.4226L6.17002 15.3212L6.04322 15.1437L5.98163 15.0096L5.9599 14.9009L5.95265 14.6981L5.98888 14.5133L6.07583 14.2959L6.17002 14.1474L6.31856 13.9807L6.44174 13.8684L6.67723 13.7163L6.90185 13.6221L7.23153 13.5242L7.57208 13.4699L7.81844 13.4663L8.06842 13.4554L8.08653 13.4301L8.07204 13.3866L7.99958 13.2779L7.91626 13.1076L7.88003 12.9518L7.87641 12.796L7.89814 12.6729L7.95611 12.5388L8.04306 12.4084L8.15899 12.2925L8.33289 12.1838L8.47781 12.1331L8.59011 12.1113H8.84372L9.02124 12.1476L9.30745 12.249L9.5538 12.383L9.71683 12.4881L9.97406 12.7055L10.1552 12.8939L10.4523 13.2851L10.6226 13.5569L10.7385 13.7742L10.7747 13.8105L10.7892 13.7706L10.7747 13.5641L10.6914 13.104L10.6044 12.441L10.5284 11.9773L10.4197 11.557L10.3581 11.3867L10.282 11.2781L10.1987 11.2128L10.0972 11.1259L10.0356 11.01L10.003 10.8578L9.98493 10.7129L9.92696 10.6296L9.81103 10.4919L9.63351 10.2926L9.55743 10.2455L9.48135 10.2383L9.36179 10.2709L9.27846 10.26L9.19514 10.2021L9.06471 10.068L9.01399 10.0463L8.95965 10.0608L8.82198 10.1731L8.76764 10.1948L8.6988 10.1839L8.61185 10.1296L8.35463 9.86151L7.95973 9.34706L7.60831 8.78189L7.44166 8.47394L7.26051 8.05006L7.04314 7.45953L6.95981 7.32911L6.69897 7.02478L6.23524 6.54294L5.70629 5.99226L5.59036 5.91256L5.49617 5.87995L5.33314 5.85097L5.25343 5.80749L5.1846 5.69881L5.13388 5.52128L5.10489 5.2858L5.11214 5.13001L5.17735 4.77135L5.25343 4.5431L5.39473 4.21704L5.60848 3.80403L5.88019 3.32944L6.14104 2.94541L6.41638 2.58312L6.78954 2.14113L6.84026 2.09041L7.11922 1.80782L7.60107 1.38394L7.8438 1.19193L8.12638 0.985426L8.3981 0.807904L8.90168 0.496336L9.4741 0.231865L9.93421 0.0869494L10.2965 0.0144916L10.5827 0L10.8327 0.0362289L11.0066 0.0941951L11.0972 0.155784L11.1406 0.224619L11.1624 0.358666L11.137 0.510827L11.1551 0.579662L11.2312 0.681103L11.6841 1.19193L11.9051 1.42742L12.3941 1.97085L12.6151 2.19547L12.7347 2.27155L13.0789 2.40198L13.4049 2.55776L13.6658 2.70992L14.0824 3.00338L14.4664 3.31132L14.97 3.79679L15.1439 4.01779L15.1802 4.08662L15.1765 4.15546L15.1367 4.22791L15.0316 4.35471L15.0389 4.4163L15.1004 4.49963L15.2309 4.67715L15.2671 4.77497L15.2562 4.85467L15.1983 4.97061L15.191 5.02133L15.2454 5.1119L15.4555 5.33289L15.575 5.43434L15.6982 5.50317L15.8613 5.53215L15.9482 5.58287L16.0352 5.71692L16.075 5.81474L16.0931 5.94516L16.0786 6.09732L16.0352 6.26035L15.941 6.51396L15.7453 6.89798L15.4845 7.33998L15.22 7.724L14.8722 8.18773L14.5425 8.56451L14.2128 8.9268L13.76 9.36155L13.6549 9.4485L13.5535 9.53907L13.01 9.97019L12.5354 10.3071L12.4811 10.3796L12.4594 10.4665L12.434 12.3033L12.4268 12.6874L12.3869 13.7452L12.3941 13.7706H12.4231L12.492 13.651L12.5789 13.4916L12.6767 13.3286L12.7927 13.1511L12.9847 12.912L13.2093 12.6656L13.2709 12.6149L13.4484 12.4772L13.6875 12.3251L13.8759 12.2345L14.1295 12.1584L14.3215 12.1258L14.586 12.1403L14.7273 12.1802L14.9048 12.2599L15.0425 12.3577L15.1874 12.5135L15.2635 12.662L15.3214 12.8359L15.3323 13.017L15.2961 13.1692L15.2454 13.2924L15.1584 13.4337V13.4554L15.191 13.4699H15.4953L15.7489 13.5206L16.0062 13.6221L16.1511 13.709L16.3032 13.8576L16.3902 13.9916L16.4735 14.1727L16.5061 14.3285L16.5134 14.4843L16.4771 14.6546L16.4156 14.7886L16.3177 14.9227L16.1692 15.0422L16.0315 15.1183L16.017 15.1473L16.0424 15.1763L16.2199 15.2451L16.3431 15.314L16.5641 15.4408L16.959 15.7415L17.2706 16.0639L17.4155 16.2776L17.5169 16.495L17.5713 16.7015L17.593 16.8609L17.5857 17.0674L17.5459 17.2667L17.4662 17.466L17.3611 17.629L17.3466 17.6797L17.3648 17.7232L18.3828 18.4224L18.8248 18.7629L19.0856 18.9876L19.2595 19.1289L19.7341 19.5853L20.1363 20.031L20.408 20.3498L20.7087 20.7266L20.9876 21.1142L21.3536 21.683L21.8608 22.5742L22.2158 23.3604L22.3933 23.8386L22.4368 23.9582L22.5201 24.2009L22.5382 24.2842L22.694 24.7951L22.723 24.911L22.8353 25.4037L22.9621 26.2297L23.0346 26.8637L23.078 27.5992L23.0708 28.3962L23.0165 29.4795L22.9512 30.0917L22.9114 30.3526L22.8462 30.7366L22.81 30.9793L22.7266 31.4865L22.694 31.914L22.6976 32.0445L22.694 32.1169V32.9611L22.723 33.3487L22.7411 33.5335L22.7375 33.5878L22.7556 33.8378L22.7447 34.0624L22.7592 34.1349L22.7375 34.1965L22.665 34.8522L22.5998 35.2181L22.5093 35.6492L22.4767 35.7471L22.3462 36.2072L22.1977 36.66L22.1252 36.8774L22.089 36.9136H22.031L21.9876 36.8702L21.9405 36.7107L21.8463 36.1854L21.6905 35.5732L21.3391 34.3305L21.3028 34.0226L21.2883 33.9972H21.2738L21.2304 34.0479L21.0818 34.3015L20.6797 34.8667L20.2739 35.3703L20.0602 35.6094L19.4878 36.1927L19.3211 36.3448L18.9153 36.7071L18.5857 36.9752L18.1111 37.3303L17.5097 37.7288L16.9807 38.044L16.43 38.3229L15.7997 38.5946L15.2055 38.8048L14.6114 38.9751L14.1404 39.0946L13.4339 39.2323L12.6767 39.3337L12.0536 39.3844L11.0827 39.3772L10.7602 39.3518L10.5827 39.3446L9.75306 39.2431L8.90531 39.0692L8.36187 38.928L8.33289 38.9497L8.32564 38.9787L8.33289 39.1453L8.35463 39.2794L8.41622 39.6851L8.80749 41.6306L8.86545 42.0002L8.91617 42.3335L8.93067 42.8334L8.91617 43.0689L8.85821 43.3225L8.74952 43.558L8.61547 43.7247L8.47781 43.8515L8.34738 43.9275L8.15899 43.9819L7.96335 44Z" fill="#4C5566" fill-opacity="0.8"/>
<path d="M8.01969 43.4929L7.87477 43.4893L7.71174 43.4386L7.59219 43.3625L7.48712 43.232L7.4038 43.0581L7.34945 42.8118L7.33496 42.6162L7.37844 42.1198L7.45452 41.6778L7.52697 41.3119L7.53422 41.2177L7.64653 40.6598L7.77333 39.9316L7.78782 39.812L7.83854 39.5947L7.93636 39.0476L7.95085 39.0259L7.96897 39.0621L8.02331 39.4099L8.10664 40.0077L8.36749 41.3663L8.40371 41.5873L8.47255 42.0329L8.50878 42.4169L8.51965 42.7285L8.48342 43.0038L8.41821 43.1958L8.33126 43.3262L8.23344 43.4132L8.08852 43.4784L8.01969 43.4929Z" fill="#F9FAFF"/>
<path d="M21.9024 42.7428L21.6741 42.7102L21.5111 42.6595L21.3698 42.5725L21.2212 42.4385L21.1089 42.2646L21.0401 42.1088L20.993 41.9276L20.9785 41.6668L20.9821 41.5907L20.9785 41.5327L21.0147 41.1741L21.1379 40.5618L21.2865 40.0184L21.3662 39.7575L21.4749 39.3626L21.7067 38.5728L21.8915 37.7396L21.9821 37.2034L22.0074 37.1599L22.0436 37.1382L22.0799 37.1491L22.1052 37.1889L22.127 37.3193L22.1487 37.5874L22.1777 37.9968L22.2284 38.3591L22.2465 38.5402L22.3371 39.0945L22.3733 39.3047L22.5074 39.9278L22.6921 40.8553L22.7392 41.3009L22.7501 41.6414L22.7284 41.9131L22.674 42.1015L22.5871 42.2936L22.4893 42.4276L22.3842 42.5508L22.2719 42.6305L22.127 42.6993L21.9821 42.7355L21.9024 42.7428Z" fill="#4C5566" fill-opacity="0.8"/>
<path d="M3.05612 42.4059L2.81701 42.3986L2.61413 42.3515L2.42212 42.2573L2.29532 42.1559L2.18301 42.0363L2.06707 41.8552L2.00548 41.6813L1.95114 41.482L1.92578 41.1777L1.9294 40.9314L1.99099 40.4459L2.13953 39.7249L2.29169 39.0656L2.40763 38.6018L2.48733 38.2323L2.54167 37.9968L2.59964 37.6997L2.79528 36.7795L2.9257 35.9571L2.94019 35.7832L2.9728 35.7253L3.0054 35.718L3.04163 35.7325L3.05975 35.7977L3.12496 36.3267L3.25901 37.1346L3.53072 38.4279L3.65752 38.9496L3.66839 39.0149L3.72274 39.2576L3.81331 39.7322L3.8749 40.022L3.9546 40.6089L3.97271 40.9966L3.96185 41.319L3.91475 41.5762L3.83142 41.8154L3.76259 41.9494L3.64665 42.0979L3.5742 42.174L3.53434 42.2102L3.32784 42.3334L3.16119 42.3878L3.05612 42.4059Z" fill="#4C5566" fill-opacity="0.8"/>
<path d="M21.8982 42.2611L21.7461 42.2502L21.6555 42.2104L21.5432 42.1125L21.478 42.0147L21.4164 41.8408L21.3874 41.6814L21.3838 41.3771L21.4236 41.1018L21.4562 40.9424L21.4925 40.725L21.6628 40.0113L21.8113 39.4715L21.9526 38.8049L21.9743 38.7759L22.0105 38.8991L22.0649 39.3737L22.1663 40.1381L22.2243 40.4714L22.333 41.301L22.3402 41.5148L22.333 41.5655V41.6524L22.304 41.8191L22.246 41.9785L22.1591 42.1162L22.0395 42.2067L21.8982 42.2611Z" fill="#F9FAFF"/>
<path d="M2.94021 41.906L2.79891 41.8988L2.68298 41.8626L2.56705 41.7901L2.45836 41.6742L2.37866 41.5401L2.31707 41.3445L2.29171 41.2141L2.28809 40.9895L2.34968 40.5475L2.50184 39.8482L2.74819 38.9027L3.0344 37.5984L3.04889 37.5803L3.06701 37.6347L3.12135 38.1564L3.20468 38.631L3.22641 38.7976L3.37858 39.6055L3.42567 39.975L3.45828 40.1924L3.50175 40.6308V41.0366L3.44016 41.3771L3.3822 41.5293L3.29525 41.6814L3.18656 41.7974L3.05614 41.8771L2.94021 41.906Z" fill="#F9FAFF"/>
<path d="M12.2182 39.0475L12.1023 39.0294L11.8668 38.9533L11.7907 38.9062L11.74 38.8265L11.7074 38.7142L11.653 38.5765L11.595 38.5258L11.5153 38.4823L11.4646 38.4135L11.4393 38.1236L11.4284 37.8447L11.3994 37.5657L11.4139 37.5222L11.5081 37.4933L11.624 37.4788H11.7798L11.8124 37.4969L11.7653 37.6237L11.7726 37.8302L11.7907 37.8881L11.8994 38.0258L11.9791 38.0693L12.066 38.0802L12.1312 38.0584L12.2399 37.9425L12.2906 37.9208L12.4138 37.8918L12.4356 37.899L12.4392 37.9715L12.4356 38.0331L12.4827 38.149L12.5261 38.2432L12.5189 38.3338L12.508 38.4026L12.537 38.5077L12.6131 38.6127L12.6167 38.6816L12.5732 38.7975L12.5044 38.9098L12.4573 38.9678L12.3957 39.0004L12.2762 39.033L12.2182 39.0475Z" fill="#F9FAFF"/>
<path d="M10.2374 39.0403L10.1468 39.0367L10.049 39.0149L9.94752 39.0041L9.92578 38.9859L9.99099 38.9497L10.3279 38.8302L10.4439 38.7722L10.5054 38.6961L10.5707 38.5766L10.6322 38.5403L10.759 38.5222L10.8569 38.5258L10.8714 38.5476L10.8605 38.5766L10.8206 38.6019L10.683 38.6454L10.6467 38.6889L10.6069 38.8302L10.5598 38.8917L10.2374 39.0403Z" fill="#F9FAFF"/>
<path d="M11.0066 38.4207L10.9414 38.4171L10.9233 38.3446L10.916 38.1888L10.9378 37.9533L10.9269 37.8265L10.9341 37.7505L10.9631 37.6092L10.9849 37.5403L11.0175 37.5222H11.1841L11.224 37.5476L11.2457 37.6237L11.2892 37.9932L11.2964 38.2939L11.2747 38.3446L11.2348 38.3663L11.0066 38.4207Z" fill="#F9FAFF"/>
<path d="M13.8845 37.9968L13.7722 37.986L13.6563 37.9352L13.5404 37.8302L13.4788 37.7251L13.3882 37.4969L13.3483 37.2143L13.3447 36.9643L13.3773 36.4933L13.4643 36.0513L13.5041 35.91L13.515 35.8448L13.5476 35.6963L13.6346 35.3376L13.6672 35.2L13.8157 34.508L13.8628 34.2109L13.8809 34.2073L13.9027 34.2906L13.9534 34.6022L14.0331 35.0224L14.1345 35.4463L14.2034 35.6782L14.2903 36.026L14.3772 36.4933L14.4026 36.8266L14.3954 37.2541L14.3483 37.4932L14.2649 37.6997L14.1852 37.8302L14.0838 37.9171L13.9679 37.9751L13.8845 37.9968Z" fill="#F9FAFF"/>
<path d="M1.33345 37.7327L1.22476 37.729L1.13057 37.6892L0.996518 37.5877L0.895077 37.4464L0.833488 37.3015L0.786391 37.0805L0.764653 36.8414L0.771899 36.5299L0.840734 36.0408L1.02188 35.1749L1.12694 34.6894L1.14506 34.5771L1.19578 34.2293L1.21751 34.0228L1.23925 33.9178L1.2791 33.4758V32.7222L1.22838 32.2222L1.10883 31.4868L0.953044 30.5919L0.876963 30.1681L0.688573 28.8783L0.652344 28.3095L0.681327 27.0777L0.840734 25.8496L0.967535 25.2264L1.09434 24.7301L1.28997 24.1033L1.51821 23.4802L1.86964 22.6795L2.23192 22.0057L2.70652 21.2485L3.01447 20.8174L3.42023 20.3174L3.86223 19.832L4.33682 19.3574L4.84403 18.9262L5.23892 18.6292L5.65556 18.3466L5.82221 18.2415L5.85844 18.1908L5.91278 18.1872L5.97799 18.1618L6.06132 18.169L6.24247 18.2089L6.44535 18.2016L6.60838 18.1654L6.78952 18.0893L6.97429 17.977L7.14457 17.8394L7.22065 17.7633L7.27137 17.7669L7.3076 17.8212L7.3873 17.9336L7.467 18.0096L7.59743 18.0857L7.74959 18.1401L7.81842 18.1509L8.04666 18.1437L8.20245 18.0966L8.34012 18.0205L8.4959 17.9009L8.78211 17.5966L9.22048 17.0604L9.36177 16.9409L9.51031 16.8539L9.65885 16.796L9.78565 16.7561L9.81826 16.7163L9.80739 16.6692L9.71682 16.6366L9.62625 16.6329L9.44148 16.6619L9.27483 16.7271L9.1118 16.8213L8.95601 16.9481L8.57198 17.343L8.45967 17.4698L8.2894 17.6039L8.17709 17.6473L8.03217 17.6582L7.89088 17.622L7.81118 17.5713L7.74597 17.4916L7.69887 17.3503V17.2271L7.74597 17.0278L7.8619 16.7923L8.01044 16.6076L8.16984 16.4627L8.36548 16.3214L8.57923 16.2127L8.8908 16.1004L9.13716 16.0497L9.51394 16.0279L9.88347 16.0678L10.1407 16.133L10.561 16.3033L10.7493 16.4119L11.0138 16.6184L11.0826 16.7126L11.1551 16.8177L11.1877 16.8358L11.2348 16.825L11.2602 16.7815L11.2819 16.6511V15.6548L11.2457 14.8251L11.2094 14.2563L11.1841 14.0534L11.1515 13.5462L11.1225 13.2854L11.0319 12.3507L10.9522 11.8217L10.887 11.5428L10.7928 11.2493L10.7059 11.0899L10.5682 10.9269L10.5175 10.8182L10.5066 10.7783L10.5102 10.6298L10.5936 10.311L10.7566 9.91972L10.9703 9.53932L11.2819 9.07559L11.5899 8.66982L11.9703 8.24594L12.4775 7.73149L12.6659 7.56122L12.9086 7.34022L13.3288 6.99967L13.836 6.62651L14.3903 6.27871L14.749 6.09032L14.9917 5.98164L15.2055 5.91643L15.3903 5.90918L15.4845 5.94179L15.5533 6.02874L15.5714 6.1338L15.5316 6.35842L15.3903 6.66999L14.9736 7.31486L14.7708 7.57933L14.6657 7.70976L14.4338 7.99597L13.9882 8.48868L13.5317 8.95241L12.8035 9.57192L12.3688 9.89436L12.1623 10.0864L12.0789 10.2204L12.0355 10.3291L12.0246 10.4414L12.0391 11.9268L12.0608 12.3724L12.0536 12.4413L12.0608 12.5536V13.5643L12.0355 14.8686L12.0246 15.0135L11.9847 15.8758L11.9449 16.6184L11.963 16.6837L11.992 16.7054H12.0463L12.3724 16.4735L12.5318 16.3902L12.7818 16.2888L12.9883 16.238L13.1006 16.2235L13.3759 16.2272L13.5462 16.2706L13.6839 16.3286L13.8542 16.4373L13.9665 16.5496L14.0824 16.7308L14.1295 16.872L14.1367 17.0206L14.1078 17.1981L14.0426 17.343L13.9339 17.4698L13.7418 17.5966L13.5897 17.6582L13.5498 17.6981L13.5716 17.7415L13.6187 17.7741L13.731 17.785L13.9157 17.756L14.0896 17.6872L14.2273 17.5894L14.365 17.4336L14.4483 17.2742L14.5063 17.0894L14.5208 16.9409L14.499 16.7561L14.4592 16.6438L14.3831 16.4916L14.3614 16.4482L14.4121 16.4554L14.6186 16.5931L14.7273 16.6728L14.9664 16.8648L15.0859 16.9771L15.441 17.314L15.6185 17.4843L15.9047 17.7234L16.1438 17.8828L16.325 17.9698L16.4554 18.006L16.6547 18.0205L16.843 17.9988L16.9227 18.0277L17.3068 18.2524L17.7307 18.5241L18.3502 18.9661L18.9081 19.4334L19.0132 19.5312L19.3754 19.8754L19.437 19.9443L19.6798 20.1942L20.0384 20.6109L20.1036 20.7014L20.2087 20.8282L20.5058 21.2231L20.5674 21.3101L21.0384 22.0129L21.2159 22.3064L21.4731 22.81L21.6542 23.2012L21.6796 23.2737L21.8354 23.6505L22.0564 24.2736L22.252 24.9402L22.3281 25.2373L22.4295 25.759L22.5346 26.4691L22.5853 26.9328L22.589 27.0198L22.6034 27.2806L22.6107 27.469L22.589 27.5306L22.6216 27.6683L22.6288 28.5269L22.6252 28.8276L22.6143 29.2189L22.5817 29.5159L22.5672 29.7695L22.5527 29.8203L22.5382 30.0413L22.4984 30.3564L22.368 31.1752L22.2991 31.8853L22.2701 32.0809L22.2774 32.9903L22.3064 33.9178L22.2882 34.3308L22.2593 34.5952L22.147 35.1966L22.0962 35.3307L22.0709 35.3271L22.0383 35.2655L21.8934 34.8162L21.7376 34.3923L21.6506 34.0192L21.5999 33.5192L21.618 32.5664L21.5927 32.1425L21.4948 31.4288L21.3898 30.9216L21.3499 30.7767L21.3101 30.4217L21.3209 29.9326L21.3499 29.6101L21.3825 29.4036L21.3898 29.0921L21.3608 28.8783L21.2738 28.5921L21.1978 28.4327L21.1036 28.2842L20.9695 28.1501L20.8608 28.0777L20.734 28.0342L20.6072 28.0306L20.4768 28.074L20.35 28.1682L20.2377 28.2986L20.1616 28.4363L20.0529 28.7406L20.0022 28.9942L19.937 29.4761L19.8428 29.7985L19.7703 30.0195L19.6761 30.5014L19.6544 30.7876L19.658 31.0086L19.6834 31.168L19.6979 31.3383L19.7595 31.5991L19.8066 31.7947L19.8428 31.9143L19.9877 32.5737L20.0167 32.9251L20.0058 33.0845L19.9515 33.2729L19.8718 33.4178L19.7885 33.5084L19.6906 33.5736L19.6327 33.5881L19.5349 33.5844L19.4588 33.5555L19.3718 33.4903L19.2885 33.3924L19.2197 33.2693L19.1762 33.0845L19.1653 32.8635L19.1798 32.6425L19.2269 32.3309L19.4225 31.4614L19.5131 31.0955L19.5638 30.7695L19.5747 30.4941L19.5385 30.2912L19.4696 30.0702L19.361 29.842L19.1798 29.5522L18.9371 29.2551L18.6871 29.0268L18.3574 28.7877L17.9154 28.5196L17.6618 28.2986L17.5169 28.1392L17.3865 27.9472L17.1872 27.6284L16.9227 27.2516L16.6945 27.0234L16.4916 26.8893L16.3358 26.8278L16.1511 26.777L16.0098 26.7589L15.7924 26.7698L15.546 26.8278L15.3939 26.8966L15.2236 27.0234L15.0968 27.1502L14.97 27.3313L14.9048 27.4799L14.8287 27.6248L14.7418 27.9364L14.6693 28.4327L14.6367 29.0957L14.6403 29.1826L14.6222 29.708L14.5751 30.1644L14.4918 30.5195L14.365 30.9035L14.2273 31.2477L14.1041 31.5303L13.9628 31.9723L13.8868 32.2983L13.8578 32.4215L13.8433 32.4179L13.7274 31.9904L13.5498 31.5592L13.3723 31.1825L13.1513 30.7658L13.0209 30.5376L12.8325 30.1862L12.7166 29.9072L12.6043 29.5558L12.4775 28.9906L12.3289 28.1392L12.2166 27.7226L12.1079 27.4654L12.0137 27.2951L11.9123 27.1611L11.8833 27.1357L11.8145 27.0741L11.7239 27.0161L11.6116 26.9872H11.4739L11.3507 27.0343L11.2457 27.1176L11.1479 27.2553L11.0356 27.5089L10.9015 27.853L10.7928 28.0378L10.6479 28.2298L10.224 28.6356L10.0972 28.8095L10.0175 28.9725L9.95593 29.1899L9.93057 29.3457L9.91245 29.8601L9.94868 30.447L10.1516 31.61L10.1697 32.023L10.1588 32.1788L10.1226 32.3309L10.0501 32.4432L9.9668 32.5048L9.87985 32.5411L9.7929 32.5374L9.72769 32.4976L9.65523 32.4251L9.60451 32.3309L9.56828 32.2114L9.54292 32.0665L9.56103 31.7187L9.62625 31.3853L9.77116 30.7187L9.84 30.3275L9.86173 30.0159L9.8255 29.6971L9.74942 29.3819L9.62625 29.016L9.55016 28.737L9.4922 28.3602L9.45959 28.0632L9.41249 27.8422L9.32555 27.6139L9.19874 27.4002L9.0647 27.2371L8.90891 27.1176L8.78936 27.056L8.64082 27.0161L8.57561 27.0053L8.38722 27.0161L8.22419 27.0596L8.04666 27.1429L7.84741 27.2951L7.53584 27.5704L7.29673 27.7299L7.10109 27.824L6.78952 27.9255L6.28232 28.0414L6.05407 28.1284L5.8838 28.2479L5.67729 28.4581L5.53962 28.6609L5.44543 28.8348L5.37297 29.045L5.31863 29.3022L5.30776 29.6753L5.315 29.9579L5.31138 30.4615L5.25704 30.8926L5.2027 31.0955L4.8549 31.8853L4.73897 32.273L4.72085 32.2911L4.69911 32.186L4.66288 31.9759L4.5071 31.4977L4.40566 31.2694L4.29335 30.9361L4.21727 30.5883L4.17379 30.255L4.13032 29.5341L4.09409 29.3167L4.05062 29.2116L3.97091 29.1355L3.90208 29.1138L3.82237 29.121L3.74992 29.1609L3.6847 29.2297L3.61587 29.3746L3.55428 29.6101L3.44922 30.2876L3.36589 30.5774L3.24633 30.8564L3.19199 30.976L3.07244 31.2948L3.02171 31.5085L2.99998 31.5774L2.96737 31.6172L2.9094 31.6245L2.86231 31.581L2.82608 31.4759L2.75724 31.2151L2.55436 30.7006L2.50364 30.5086L2.4493 30.0811L2.43843 29.6898L2.41307 29.6029L2.36959 29.5449L2.30076 29.5196L2.22468 29.5413L2.16671 29.6138L2.12324 29.708L2.0544 29.9471L2.01093 30.313L1.98919 30.5485L1.96021 30.7622L1.7537 31.5991L1.5798 32.2585L1.46749 32.8381L1.40591 33.2729L1.39141 33.6641L1.40953 34.059L1.46025 34.4829L1.47112 34.53L1.48561 34.6677L1.64139 35.5481L1.77182 36.2473L1.81891 36.7364L1.80805 36.9972L1.76819 37.2291L1.69211 37.4537L1.60879 37.5769L1.57256 37.6095L1.46749 37.6892L1.33345 37.7327Z" fill="#F9FAFF"/>
<path d="M12.1341 37.4849L12.0752 37.4815V37.4642L12.1306 37.4607L12.1445 37.4711L12.1341 37.4849Z" fill="#F9FAFF"/>
<path d="M10.9792 37.3955H10.8017L10.7619 37.3738L10.6713 37.2325L10.6351 37.1238L10.6025 36.8412L10.6097 36.6456L10.588 36.5985L10.5481 36.5731L10.3851 36.5405L10.3307 36.497L10.2366 36.3376L10.2003 36.2217L10.2076 36.1456L10.2438 36.0985L10.309 36.0478L10.3199 35.9862L10.2655 35.834L10.28 35.8014L10.3778 35.7724L10.6314 35.7362L10.6822 35.7108L10.7039 35.6601L10.6894 35.6167L10.6496 35.5949L10.4865 35.6022L10.3018 35.6239L10.2438 35.6094L10.2148 35.5514L10.2184 35.4609L10.2366 35.4283L10.2692 35.421L10.3778 35.4319L10.4612 35.3957L10.5554 35.3196L10.6822 35.1529L10.7003 35.1094L10.6894 35.0189L10.6278 34.8051L10.4938 34.5298L10.4141 34.3994L10.3489 34.287L10.2547 34.1458L10.2329 34.0842L10.2438 33.9574L10.2583 33.8885L10.2474 33.8125L10.2039 33.7255L10.1134 33.6132L9.91049 33.4103L9.81992 33.3161L9.68225 33.1784L9.63878 33.1603L9.50111 33.1676L9.44314 33.1313L9.37793 33.1241L9.27649 33.1422L9.17142 33.106L9.01926 33.0299L8.80551 32.9611L8.77653 32.9357V32.8995L8.82725 32.8669L9.20403 32.7618L9.25837 32.722V32.664L9.22939 32.6278L9.16418 32.6205L8.71132 32.7437L8.64611 32.7473L8.59539 32.7256L8.5338 32.664L8.47221 32.6423L8.37801 32.6531L8.22947 32.693L8.07369 32.7038L7.87443 32.693L7.73676 32.7256L7.55562 32.8125L7.33824 32.8669L7.1897 32.9248L7.1571 32.9647L7.12812 33.0734L7.07739 33.106L6.91436 33.1386L6.889 33.1567L6.87089 33.2581L6.8093 33.3197L6.80568 33.3922V33.4429L6.76945 33.49L6.59193 33.5697L6.53034 33.6313L6.42165 33.7943L6.3021 33.8958L6.02313 34.0987L5.92169 34.211L5.84561 34.3414L5.76591 34.5298L5.72606 34.6348L5.63548 34.7689L5.62099 34.8087L5.63186 34.8848L5.69345 35.0116L5.71881 35.1022L5.79489 35.1891L5.83112 35.2725L5.82025 35.3123L5.78765 35.3268L5.6536 35.2978L5.43623 35.2399L5.34203 35.2326L5.29856 35.258L5.27682 35.2942L5.29131 35.3377L5.40362 35.3812L5.77678 35.4971L5.81301 35.5261L5.82387 35.5804L5.81663 35.6637L5.83474 35.7036L5.89633 35.7833L5.88909 35.834L5.84199 35.8811L5.64273 35.9789L5.58114 36.0405L5.53767 36.1601L5.51593 36.2579L5.48332 36.2833L5.42173 36.2724L5.22972 36.1854L4.58847 35.8232L3.92548 35.3957L3.55232 35.1276L3.25887 34.8848L3.22989 34.8232L3.23351 34.7399L3.28061 34.6167L3.31321 34.595L3.3748 34.6059L3.8023 34.8015H3.86751L3.8965 34.758L3.88925 34.6928L3.85302 34.6493L3.37842 34.4211L3.3277 34.3668L3.32046 34.3414L3.33133 33.9501L3.30959 33.6603L3.32408 33.6059L3.37118 33.5878L3.5016 33.5842H3.65376L4.01605 33.5588L4.0559 33.5407L4.08851 33.4936L4.08126 33.4538L4.04504 33.4212L3.95809 33.4176L3.32408 33.4393L3.28423 33.4212L3.25525 33.3741L3.1683 33.0806L3.0741 32.8524L3.06686 32.8125L3.08497 32.7727L3.22626 32.6785L4.16821 32.1423L4.25154 32.0698L4.25879 32.0264L4.23343 31.9938H4.17908L4.02692 32.0698L3.26611 32.5155L3.05599 32.6314L2.99802 32.6423L2.95092 32.6096L2.86035 32.4684L2.63935 32.1966L2.38213 31.9575L2.17925 31.8017L2.16113 31.7691L2.18649 31.5807L2.25171 31.1786L2.27344 31.0011L2.2988 30.9467L2.31692 30.9649L2.44372 31.501L2.54516 31.7836L2.70819 32.088L2.8676 32.2872L2.9944 32.4213L3.027 32.4466L3.06323 32.4394L3.10671 32.2619L3.2009 32.088L3.30234 31.8054L3.40741 31.4539L3.50522 31.2329L3.58131 31.088L3.72622 30.7221L3.78419 30.4613L3.82404 30.1968L3.84215 30.1642L3.86389 30.1823L3.90737 30.3888L3.92548 30.5917L4.01243 31.0156L4.17908 31.4938L4.26241 31.7075L4.33487 31.9503L4.37472 32.2474L4.38559 32.5626L4.36747 32.7691L4.29502 33.1712L4.07764 33.9537L3.99069 34.4972V34.6711L4.01605 34.8595L4.0704 35.0406L4.14648 35.2L4.23705 35.3196L4.35298 35.4138L4.47616 35.4754L4.5776 35.5007L4.75512 35.4935L4.89279 35.4464L5.02322 35.363L5.13553 35.2435L5.21885 35.1167L5.29493 34.9211L5.33841 34.7073V34.4501L5.29856 34.0842L5.09567 32.9683L5.0848 32.8451L5.08843 32.5336L5.16451 32.2039L5.30942 31.8452L5.49781 31.4612L5.6536 31.0337L5.72968 30.7185L5.7804 30.3381L5.78402 29.9396L5.77315 29.82L5.7804 29.5048L5.81663 29.3019L5.8601 29.1317L5.92169 29.0085L6.03763 28.8636L6.15718 28.7549L6.35644 28.6353L6.68974 28.5085L7.0629 28.3926L7.37809 28.2404L7.6172 28.0883L8.04833 27.7622L8.27295 27.6245L8.42873 27.5593L8.54466 27.5376L8.6606 27.5485L8.80189 27.5992L8.85623 27.639L8.94318 27.7658L9.00115 27.9216L9.11708 28.6317L9.22577 28.9614L9.39242 29.3164L9.44314 29.4758L9.48299 29.7765L9.48662 30.0229L9.44314 30.3635L9.33083 30.8888L9.26924 31.0953L9.17867 31.4757L9.14606 31.751V32.1097L9.18592 32.3379L9.26924 32.5517L9.35619 32.7002L9.47212 32.827L9.62066 32.9357L9.74746 32.9828L9.84528 33.0009L10.0156 32.9901L10.1858 32.9393L10.2909 32.8777L10.4105 32.7691L10.5046 32.6386L10.5807 32.472L10.6351 32.2619L10.6568 32.1024L10.6423 31.8235L10.5771 31.3742L10.3126 30.1606L10.3018 30.0483L10.309 29.6751L10.3452 29.4577L10.396 29.3273L10.4757 29.1969L10.5844 29.0846L10.9104 28.831L11.0626 28.6788L11.1894 28.4904L11.2655 28.3419L11.356 28.0629L11.4321 27.9397L11.4865 27.889L11.5553 27.8745L11.6241 27.8999L11.7147 27.9868L11.8161 28.1499L11.9176 28.3854L12.0299 28.8092L12.1205 29.2476L12.1712 29.5302L12.2726 29.8635L12.3922 30.1787L12.5262 30.4504L12.5733 30.5337L12.6784 30.7402L12.9863 31.3018L13.3196 32.0336L13.4537 32.414L13.566 32.914L13.6131 33.24L13.6203 33.548L13.5877 33.7001L13.5551 33.7255H13.4935L13.3848 33.6748L13.3088 33.5987L13.2834 33.5299L13.2508 33.3922L13.1965 33.3234L13.1276 33.2871L13.0624 33.298L12.8668 33.4176L12.7545 33.5299L12.6204 33.6096L12.3306 33.7074L12.1712 33.8125L12.0661 33.8378L11.9466 33.8306L11.8886 33.8052L11.8415 33.7581L11.7872 33.6096L11.7799 33.4502L11.8125 33.2871L11.798 33.2147L11.6785 33.1132L11.5988 33.0806L11.5299 33.0734L11.3633 33.0842L11.2002 33.0516L11.0952 33.0625L10.7583 33.1821L10.6242 33.1784L10.5771 33.2074L10.5517 33.2509H10.5191L10.4648 33.1205L10.4068 32.9792L10.3742 32.943L10.3199 32.9357L10.2728 32.9647L10.2583 33.0263L10.4105 33.4791L10.4249 33.5697L10.4105 33.6458L10.309 33.7762L10.2909 33.8378L10.3126 33.8813L10.4249 33.9646L10.5119 34.0117L10.5699 34.0805L10.6532 34.3559L10.7836 34.8921L10.9032 35.4609L10.8959 35.6456L10.9177 35.7036L10.9611 35.7616L11.03 36.084L11.1713 36.9934L11.2075 37.3158L11.1821 37.3629L11.0734 37.3919L10.9792 37.3955Z" fill="#F9FAFF"/>
<path d="M11.4304 37.3519L11.3797 37.3302L11.3652 37.2831L11.3398 36.9679L11.3543 36.957L11.4377 37.0331L11.5101 37.0548L11.713 37.0693L11.8217 37.0476L11.8434 37.0585L11.8398 37.1092L11.7855 37.2143L11.7927 37.294L11.742 37.3157L11.5101 37.3447L11.4304 37.3519Z" fill="#F9FAFF"/>
<path d="M12.0553 37.2831L11.9865 37.2723L11.9756 37.2324L12.0046 37.1636L12.1966 36.8629L12.2473 36.7795L12.3741 36.6419L12.49 36.5622L12.6313 36.4861L12.6784 36.4897L12.7219 36.5187L12.74 36.5622L12.7291 36.6455L12.6784 36.7361L12.548 36.9172L12.4357 37.1165L12.3161 37.236L12.1024 37.2759L12.0553 37.2831Z" fill="#F9FAFF"/>
<path d="M11.3493 36.8846H11.3312L11.2877 36.66L11.1609 35.8412L11.1211 35.6746L11.4616 35.5912L11.6537 35.5514L12.0848 35.45L12.1645 35.4608L12.2297 35.526L12.2478 35.5949L12.2261 35.7217L12.2514 35.7977L12.313 35.8557L12.3819 35.9101L12.4036 35.9535L12.371 36.0405L11.9109 36.5223L11.8058 36.7071L11.7297 36.7795L11.6211 36.8158L11.4363 36.823L11.3783 36.8448L11.3493 36.8846Z" fill="#F9FAFF"/>
<path d="M5.31625 36.4426L5.16408 36.4317L5.03728 36.3991L4.93947 36.3375L4.72934 36.1854L4.64239 36.1274L4.31995 35.8593L4.25836 35.8339L4.06273 35.8665L3.98302 35.8376L3.83448 35.7108L3.42148 35.3231L3.23671 35.1238L3.2041 35.0659L3.23308 35.0623L3.62073 35.334L3.7729 35.4463L4.46487 35.9173L4.77644 36.0912L5.17858 36.3194L5.33074 36.3955L5.34523 36.4172L5.31625 36.4426Z" fill="#F9FAFF"/>
<path d="M11.4065 36.1384L11.3413 36.1203L11.2652 36.0551L11.2471 35.9935L11.2543 35.9391L11.3087 35.8776L11.392 35.8377L11.5876 35.8015L11.7072 35.7979L11.7724 35.8196L11.7978 35.8739L11.776 35.9862L11.747 36.0696L11.6999 36.0949L11.5695 36.0732L11.4065 36.1384Z" fill="#4C5566" fill-opacity="0.8"/>
<path d="M11.186 35.4936L11.1063 35.49L11.07 35.4465L10.9469 34.9067L10.8418 34.4249L10.849 34.3669L10.907 34.3705L11.0193 34.3923L11.1135 34.385L11.1534 34.3633L11.2113 34.3198H11.2765L11.4287 34.3561L11.483 34.3923L11.5338 34.4539L11.6243 34.6423L11.7185 34.7509L11.7222 34.8162L11.7149 34.9104L11.7439 34.9756L11.82 35.048L11.8671 35.1929L11.9323 35.269V35.298L11.8635 35.3306L11.512 35.4212L11.186 35.4936Z" fill="#F9FAFF"/>
<path d="M4.68852 35.0009L4.59433 34.99L4.50375 34.9393L4.44579 34.8777L4.39507 34.7581L4.37695 34.6386L4.39144 34.3814L4.45666 33.9212L4.6849 32.7728L4.69939 32.7583L4.71388 32.7873L4.89502 34.1096L4.90952 34.3922L4.90227 34.6857L4.86604 34.8415L4.80808 34.9357L4.74286 34.9828L4.68852 35.0009Z" fill="#F9FAFF"/>
<path d="M3.02589 34.8306L2.97154 34.8125L2.87735 34.7147L2.6165 34.3705L2.38463 34.0191L2.28682 33.8705L2.10567 33.5879L1.89192 33.1967L1.81946 33.0083L1.80859 32.9177L1.84482 32.7547L1.97162 32.3706L2.06582 32.1243L2.10567 32.012L2.14552 31.9902L2.19987 32.0047L2.39913 32.1569L2.52593 32.2946L2.7433 32.5663L2.86286 32.7619L2.98241 33.0155L3.07661 33.2764L3.12733 33.4865L3.17442 33.7981L3.18167 34.1386L3.15631 34.4212L3.08385 34.7473L3.044 34.8197L3.02589 34.8306Z" fill="#F9FAFF"/>
<path d="M16.3868 33.8886L16.2926 33.8777L16.2057 33.856L16.1042 33.8451L16.0499 33.798L16.0173 33.74L16.0137 33.6965L16.0427 33.6494L16.0861 33.6313L16.1767 33.6096L16.2564 33.519L16.3397 33.4357L16.6767 33.1821L16.7129 33.1785L16.7238 33.1821L16.7201 33.2256L16.6296 33.3632L16.5064 33.4937L16.4774 33.5661L16.4883 33.6241L16.5354 33.6603L16.6151 33.6712L16.8288 33.6096L16.9085 33.5553L17.1984 33.2147L17.2165 33.164L17.2346 33.0879L17.2962 32.9756L17.365 32.9249L17.4375 32.9068L17.5244 32.8995L17.5606 32.8778L17.5824 32.8198V32.6713L17.6331 32.5807L17.7744 32.4865L17.8432 32.4285L18.0026 32.3778L18.1403 32.2836L18.191 32.2546L18.2599 32.2365L18.4374 32.2257L18.5606 32.1858L18.6004 32.1641L18.662 32.1713L18.6982 32.2293L18.7055 32.309L18.6548 32.3706L18.5171 32.4466L18.3903 32.501L18.2635 32.5952L18.0171 32.9539L17.894 33.0589L17.8179 33.0988L17.7164 33.1024L17.6657 33.0988L17.586 33.1314L17.4665 33.2473L17.3867 33.3596L17.2346 33.5915L17.1621 33.7255L17.1078 33.7871L17.0245 33.8197L16.8904 33.8451L16.8288 33.827L16.7419 33.7726H16.673L16.5897 33.827L16.5426 33.856L16.4339 33.8813L16.3868 33.8886Z" fill="#F9FAFF"/>
<path d="M21.0243 33.7291L20.9845 33.7146L20.97 33.6566L20.9772 33.5552L20.9845 33.432L20.97 33.3596L20.8903 33.2726L20.8396 33.2219L20.8215 33.1784L20.8251 33.1096L20.883 32.9864L20.9374 32.8994L20.9591 32.7908L20.9446 32.6929L20.8794 32.5698L20.8033 32.4973L20.8106 32.3814L20.912 32.1024L20.9374 31.9829L20.912 31.9321L20.8577 31.8814L20.7236 31.78L20.6693 31.7075V31.6532L20.72 31.5626L20.8432 31.3452L20.9301 31.1496L20.9265 31.0626L20.8903 31.0373L20.8504 31.0518L20.7635 31.2003L20.6802 31.367L20.5461 31.5481L20.4918 31.588L20.4447 31.5807L20.3287 31.5119L20.2092 31.4974L20.1548 31.4648L20.1222 31.3923L20.0534 31.0699L20.0317 30.8887L20.0244 30.5554L20.0643 30.2511L20.1621 29.8997L20.3034 29.4794L20.3396 29.32L20.3613 28.9867L20.3903 28.8672L20.4773 28.7186L20.5715 28.6425L20.6439 28.6172L20.7236 28.6281L20.8033 28.6715L20.8686 28.7512L20.9374 28.8817L21.0062 29.1063L21.0316 29.2693V29.6606L20.999 30.0808L20.97 30.2873L20.9591 30.5047L21.0207 31.0626L21.0678 31.2873L21.1475 31.5662L21.2345 32.03L21.2743 32.4538L21.2816 32.9248L21.2562 33.3233L21.2345 33.403L21.0642 33.6929L21.0243 33.7291Z" fill="#F9FAFF"/>
<path d="M14.8159 33.7146L14.7579 33.7002L14.6202 33.606L14.5224 33.5299L14.4681 33.519L14.3304 33.5661L14.1964 33.5589L14.1637 33.5335L14.142 33.4429L14.1348 33.2147L14.1637 33.1314L14.2036 33.1096L14.363 33.1205L14.4427 33.1169L14.555 33.1386L14.6094 33.1821L14.7434 33.4176L14.8014 33.5335L14.8521 33.6349V33.6893L14.8159 33.7146Z" fill="#F9FAFF"/>
<path d="M15.1041 33.6275L15.0425 33.6239L14.9954 33.5659L14.7418 33.1167L14.7128 33.0333L14.7273 32.9464L14.778 32.8594L14.8541 32.8015L14.9338 32.787L15.0715 32.7942L15.1367 32.7616L15.2925 32.5261L15.383 32.4356L15.412 32.4247L15.5714 32.4283L15.6077 32.4102L15.6185 32.3558L15.5751 32.2906L15.4772 32.2327L15.3939 32.2109L15.2961 32.2218L15.191 32.2435L15.057 32.2399L14.9302 32.182L14.865 32.1892L14.778 32.2472L14.6657 32.3522L14.5715 32.4138L14.4012 32.4247L14.3759 32.4102L14.3541 32.3305L14.3107 32.2906L14.2998 32.2689L14.3107 32.2001L14.6331 31.5117L14.8287 31.0335L14.9483 30.6241L15.0063 30.3488L15.0715 29.9068L15.115 29.0554L15.1403 28.3852L15.191 28.1243L15.2454 27.9214L15.3541 27.6896L15.4736 27.5338L15.6004 27.4287L15.749 27.3563L15.912 27.3164H16.0859L16.2381 27.3454L16.412 27.407L16.6112 27.541L16.7561 27.6932L16.9228 27.9432L17.1909 28.4467L17.3285 28.6533L17.4553 28.7982L17.6981 29.0119L17.9662 29.2076L18.448 29.4829L18.8067 29.7184L18.977 29.8814L19.1146 30.077L19.2233 30.3125L19.2523 30.4719L19.2704 30.8016L19.2342 31.1494L19.2052 31.3088L19.1798 31.3342L19.1436 31.3378L19.0494 31.3306L18.9878 31.3378L18.8936 31.3306L18.64 31.3922L18.5966 31.3849L18.5929 31.3378L18.669 31.2364L19.0023 30.8053L19.1545 30.5843L19.1762 30.5154L19.1653 30.4321L19.1291 30.4104L19.0856 30.4393L18.89 30.6857L18.535 31.1494L18.4371 31.24H18.3828L18.2886 31.1639L17.6329 30.4937L16.8902 29.6785L16.8068 29.5698L16.3938 29.059L16.3395 28.954L16.3467 28.9069L16.4264 28.8308L16.6692 28.6206L16.9409 28.3743L16.9735 28.3091L16.9518 28.2511L16.9119 28.2402L16.8721 28.262L16.4772 28.6025L16.2779 28.7547L16.2127 28.7692L16.1692 28.7474L15.9555 28.483L15.7816 28.2511L15.6765 28.1026L15.5497 27.9069L15.5135 27.8526L15.4809 27.8055L15.441 27.8019L15.4048 27.8309L15.3903 27.8707L15.3975 27.9359L15.4664 28.0519L15.9881 28.7583L16.0533 28.8416L16.075 28.896L16.0243 28.9612L15.5533 29.3488L15.2345 29.5952L15.191 29.6604V29.7293L15.2055 29.7474L15.2562 29.7401L15.3577 29.6785L15.7598 29.3633L15.9772 29.1858L16.1257 29.0808L16.1801 29.0626L16.2199 29.0771L16.3214 29.1967L16.7271 29.6966L16.8395 29.8234L17.1438 30.1749L18.0423 31.1494L18.0857 31.1893L18.2415 31.3487L18.256 31.3922L18.2451 31.4175L17.8828 31.5045L17.7995 31.5081L17.6981 31.4827L17.5459 31.4791L17.4662 31.4429L17.3793 31.3813L17.3249 31.3632L17.2235 31.374L17.0025 31.4574L16.8974 31.5117L16.8467 31.5661L16.6438 31.8305L16.5677 31.8849L16.4735 31.9356L16.3793 32.0407L16.3431 32.1276L16.3178 32.2182L16.3286 32.3232L16.3649 32.3957L16.4264 32.4464L16.4844 32.4645L16.7742 32.4464L16.8068 32.4609L16.8213 32.5044L16.7416 32.7689L16.7308 32.9174L16.6909 32.9717L16.4228 33.1819L16.383 33.1964L16.3141 33.1855L16.1583 33.1239L16.0026 33.0877L15.8903 33.0949L15.8106 33.1311L15.749 33.2181L15.6004 33.5043L15.5497 33.555L15.4881 33.5659L15.3686 33.5188L15.3033 33.5297L15.1621 33.6057L15.1041 33.6275Z" fill="#F9FAFF"/>
<path d="M5.45266 33.4865L5.35484 33.4828L5.31137 33.4575L5.29688 33.414L5.31861 33.3741L5.42005 33.3415L6.01058 33.2836L6.65184 33.1749L6.68806 33.1495L6.69531 33.0916L6.61923 32.8633L6.40186 32.3126L6.18086 31.8417L6.04319 31.5699L5.89827 31.2403L5.85842 31.2004L5.81857 31.1968L5.73887 31.2185L5.70264 31.2004L5.69902 31.1569L5.73524 31.0953L5.77872 31.0446L5.78234 30.9903L5.7751 30.9214L5.79683 30.878L5.84031 30.8744L5.92726 30.9541L5.99247 30.9432L6.41635 30.6968L6.75328 30.5193L7.7387 29.9433L8.51038 29.494L8.61182 29.4179L8.62631 29.3709L8.59008 29.2658L8.44154 28.9941L8.16983 28.5738L8.08288 28.4325L7.93072 28.1934L7.90898 28.1318L7.91622 28.0847L7.95245 28.063L7.9923 28.0739L8.07925 28.1789L8.36909 28.5956L8.65529 29.0702L8.74587 29.2368L8.80021 29.2911L8.85818 29.2839L9.1154 29.1426L9.18786 29.1354L9.22409 29.1752L9.22046 29.2332L9.18061 29.2803L8.95962 29.4143L8.91614 29.4614L8.90527 29.5303L8.95599 29.6389L9.28205 30.2476L9.35813 30.4142L9.369 30.4939L9.34364 30.5483L9.31466 30.5628L9.27843 30.5447L9.1951 30.4142L8.83282 29.6969L8.74949 29.5774L8.70239 29.5701L8.53574 29.6462L8.31112 29.7839L8.14447 29.8744L8.06476 29.9288L7.9923 29.9578L7.16629 30.436L6.05044 31.0627L6.01421 31.1026L6.02145 31.1678L6.30042 31.733L6.47431 32.1134L6.61198 32.4431L6.83298 33.0843V33.1387L6.77139 33.2111L6.74603 33.3017L6.67357 33.327L5.92001 33.4394L5.45266 33.4865Z" fill="#4C5566" fill-opacity="0.8"/>
<path d="M7.00731 33.3995L6.95659 33.3886L6.93848 33.356L6.94935 33.3126L6.98195 33.2908L7.05441 33.2727L7.12687 33.2763L7.14498 33.3017L7.13773 33.3379L7.05441 33.3814L7.00731 33.3995Z" fill="#F9FAFF"/>
<path d="M10.788 32.1785L10.7482 32.164L10.7373 32.1024L10.7627 32.059L10.8931 32.001L11.1467 31.9032L11.8133 31.6133L12.4763 31.2909L12.7408 31.146H12.7915L12.8205 31.1822L12.8277 31.2257L12.8023 31.2656L12.6321 31.367L11.8314 31.7583L11.2626 32.0119L10.8387 32.1676L10.788 32.1785Z" fill="#4C5566" fill-opacity="0.8"/>
<path d="M6.71768 26.1283L6.66696 26.0993L6.64885 26.0558L6.6416 24.1973L6.65972 24.1502L6.7213 24.1284H7.95309L8.00381 24.1502L8.02917 24.2299L8.02555 24.4943L8.00381 24.5487L7.96396 24.5704H7.2104L7.13069 24.5958L7.10895 24.661L7.11258 24.8168L7.13431 24.8639L7.2104 24.8856H7.79368L7.84078 24.911L7.85889 24.9617L7.86252 25.2696L7.8444 25.324L7.80455 25.3493L7.19953 25.3566L7.13431 25.3783L7.10895 25.4363L7.1162 25.6283L7.14156 25.6682L7.19228 25.6826H7.94584L8.0183 25.708L8.03642 25.7334L8.04004 26.063L8.0183 26.1029L7.97845 26.121L6.71768 26.1283Z" fill="#4C5566" fill-opacity="0.8"/>
<path d="M13.7001 26.1029L13.3451 26.0956L13.298 26.0739L13.2763 26.0232L13.2726 24.6139L13.2509 24.5668L13.2038 24.545L12.7872 24.5378L12.7437 24.5088L12.7256 24.4472V24.1646L12.7437 24.132L12.8162 24.1103L14.2472 24.103L14.3305 24.1248L14.3559 24.1537L14.3523 24.4762L14.3197 24.5305L14.2544 24.545L13.8414 24.5523L13.7943 24.574L13.7762 24.6211L13.7726 26.0304L13.7509 26.0775L13.7001 26.1029Z" fill="#4C5566" fill-opacity="0.8"/>
<path d="M15.0875 26.0956L14.8157 26.092L14.7614 26.0703L14.7397 26.0123L14.7324 24.1864L14.7433 24.132L14.7759 24.1067L15.1092 24.1103L15.1708 24.132L15.1925 24.19V24.7479L15.2106 24.8312L15.2541 24.8566L15.9388 24.8602L16.0113 24.8385L16.033 24.7805L16.0367 24.1537L16.0584 24.1248L16.1164 24.103H16.4279L16.4823 24.1248L16.5076 24.1719L16.5149 25.9978L16.4931 26.0594L16.4533 26.0848L16.0983 26.0775L16.0656 26.0558L16.0475 25.9869V25.4109L16.0294 25.3457L15.9823 25.3203L15.2433 25.3239L15.2143 25.3493L15.1998 25.4254L15.207 26.0195L15.1889 26.0594L15.1382 26.0884L15.0875 26.0956Z" fill="#4C5566" fill-opacity="0.8"/>
<path d="M8.49799 26.114L8.45813 26.0959L8.44727 26.0742L9.05953 24.1866L9.10301 24.125L9.14648 24.1069L9.63195 24.1106L9.69716 24.1323L9.73339 24.1866L10.487 26.0307L10.4797 26.0778L10.4326 26.0995L10.0848 26.1032L9.98337 26.0814L9.94714 26.0343L9.84208 25.7264L9.79136 25.6938H9.10301L9.04142 25.7264L8.9436 26.0307L8.911 26.085L8.82767 26.114H8.49799ZM9.59572 25.2083L9.62833 25.1866L9.61746 25.1395L9.40733 24.5779H9.38559L9.20445 25.1286L9.18634 25.1829L9.21894 25.2083H9.59572Z" fill="#4C5566" fill-opacity="0.8"/>
<path d="M12.055 26.1027L11.997 26.081L11.5949 25.5086L11.5369 25.4651L11.3051 25.4687L11.2869 25.4868L11.2761 25.5339L11.2797 26.0158L11.2652 26.0701L11.2072 26.0991H10.8739L10.8268 26.0774L10.8051 26.0267L10.7979 24.1899L10.8232 24.1319L10.8776 24.1138H11.8231L12.0043 24.1428L12.1311 24.1935L12.247 24.2732L12.3484 24.3927L12.4173 24.5449L12.4426 24.6645L12.4282 24.8528L12.3992 24.9615L12.3376 25.0847L12.2289 25.2188L12.1093 25.313L12.1021 25.3492L12.5405 26.052L12.5332 26.0846L12.4861 26.1027H12.055ZM11.7144 24.9941L11.7941 24.9652L11.863 24.9072L11.8956 24.842L11.9101 24.7369L11.8775 24.6427L11.7905 24.5739L11.6673 24.5449L11.3449 24.5413L11.2978 24.563L11.2797 24.6101L11.2833 24.9362L11.3014 24.976L11.3594 24.9978H11.6818L11.7144 24.9941Z" fill="#4C5566" fill-opacity="0.8"/>
<path d="M10.6861 23.5776L10.6318 23.5558L10.6137 23.5015L10.6064 21.6828L10.6318 21.6321L10.6717 21.614L10.9868 21.6104L11.0557 21.6357L11.0774 21.6756L11.081 22.2588L11.0992 22.3277L11.1463 22.3494H11.8092L11.8636 22.3349L11.8889 22.2915V21.7082L11.8962 21.6502L11.9252 21.6212L11.9723 21.6104H12.2947L12.3599 21.6357L12.3817 21.7082L12.3853 23.4906L12.3635 23.5558L12.2983 23.5776L11.9542 23.574L11.9107 23.5522L11.8926 23.5051L11.8889 22.8892L11.8636 22.8494L11.7839 22.8313H11.1607L11.1137 22.8494L11.0883 22.9001V23.4906L11.0666 23.5558L10.9868 23.5776H10.6861Z" fill="#4C5566" fill-opacity="0.8"/>
<path d="M9.64039 23.5849H9.29259L9.23825 23.5595L9.22375 23.5197L9.21651 22.1176L9.19477 22.0633L9.12231 22.0416H8.68394L8.64409 22.0126L8.62598 21.9329V21.701L8.65134 21.6467L8.70206 21.6249L10.2382 21.6177L10.2961 21.6358L10.3215 21.6901L10.3179 22.0126L10.2671 22.0488L10.1838 22.0597L9.76719 22.0524L9.72734 22.0705L9.70922 22.1031L9.7056 23.5161L9.69111 23.5559L9.64039 23.5849Z" fill="#4C5566" fill-opacity="0.8"/>
<path d="M14.2874 23.5671L13.0991 23.5707L13.0339 23.549L13.0121 23.4838L13.0049 21.676L13.0266 21.6289L13.0846 21.6071L14.2729 21.6035L14.3454 21.6289L14.3671 21.676L14.3635 21.9731L14.3454 22.0201L14.2946 22.0455L13.5773 22.0491L13.5121 22.0709L13.4976 22.1035L13.4903 22.2411L13.5121 22.31L13.5411 22.3353L13.6099 22.3462L14.1533 22.339L14.2113 22.3607L14.233 22.4114V22.7411L14.2077 22.7846L14.1461 22.8063H13.5737L13.5193 22.8281L13.5012 22.8824L13.5048 23.049L13.5374 23.0853L13.5737 23.0961H14.3309L14.3888 23.1215L14.4069 23.1686V23.52L14.3671 23.5563L14.2874 23.5671Z" fill="#4C5566" fill-opacity="0.8"/>
<path d="M7.40573 21.2449L7.19198 21.234L6.9891 21.1905L6.84781 21.1326L6.64493 21.0058L6.5145 20.879L6.40582 20.7159L6.32249 20.5094L6.28264 20.3138L6.27539 20.1327L6.30437 19.9334L6.36596 19.7414L6.44929 19.5856L6.55073 19.4515L6.70289 19.3211L6.85143 19.2306L7.06156 19.1617L7.22459 19.1327L7.38762 19.1255L7.66296 19.1545L7.90207 19.2233L7.9854 19.274L8.018 19.3175L8.02887 19.3682V19.7196L8.00351 19.7595L7.96728 19.7704L7.72455 19.6472L7.50717 19.6001L7.35139 19.5928L7.19198 19.6182L7.05431 19.6798L6.95649 19.7486L6.86592 19.8537L6.81158 19.9805L6.77535 20.1327L6.77897 20.2776L6.8152 20.4261L6.89853 20.5602L7.00359 20.658L7.12315 20.7268L7.2898 20.7775L7.47819 20.7884L7.65571 20.7594L7.79701 20.6978L7.9383 20.6072L7.98177 20.5783L8.01076 20.5855L8.02887 20.6217L8.03249 20.9514L8.01076 21.0275L7.94192 21.0963L7.80063 21.1652L7.57239 21.2268L7.40573 21.2449Z" fill="#4C5566" fill-opacity="0.8"/>
<path d="M11.7712 21.0924L11.2604 21.0887L11.2205 21.0742L11.1879 21.0199L10.6046 19.2628L10.5938 19.1758L10.6155 19.1469L10.7169 19.1251L10.985 19.1324L11.0466 19.1469L11.0828 19.2193L11.4777 20.5163L11.5067 20.5489H11.5466L11.5611 20.5199L11.9596 19.2483L12.0067 19.1541L12.0791 19.1143L12.3581 19.1179L12.445 19.1432L12.4595 19.1758L12.4378 19.2773L11.8436 21.0561L11.8074 21.0815L11.7712 21.0924Z" fill="#4C5566" fill-opacity="0.8"/>
<path d="M12.9207 21.0782L12.8736 21.0637L12.8301 21.0057V19.1834L12.8482 19.1436L12.8808 19.1182L12.9388 19.1073L14.1271 19.1001L14.1923 19.1255L14.2104 19.1653V19.4551L14.185 19.5276L14.1271 19.5493L13.3808 19.553L13.3482 19.5783L13.3337 19.6254V19.7993L13.3482 19.85L13.4134 19.8718L14.0003 19.8754L14.0727 19.9008L14.0945 19.9515L14.0981 20.2739L14.0655 20.2993L14.0075 20.3101H13.3989L13.3518 20.3246L13.3264 20.3645L13.33 20.5565L13.3554 20.6145L13.3989 20.6326L14.1814 20.6362L14.2249 20.6616L14.243 20.7123V21.0094L14.2176 21.0565L14.1705 21.0746L12.9207 21.0782Z" fill="#4C5566" fill-opacity="0.8"/>
<path d="M9.39782 21.1759L9.17683 21.1686L9.0138 21.1396L8.8399 21.0635L8.70223 20.9766L8.55007 20.8389L8.42327 20.6505L8.33994 20.4549L8.30371 20.2593V19.9803L8.35081 19.7774L8.41964 19.6108L8.55731 19.4151L8.70947 19.2775L8.84352 19.1941L9.00293 19.1325L9.26378 19.0854L9.51013 19.0927L9.71301 19.1398L9.93039 19.234L10.1188 19.3861L10.2311 19.5274L10.2891 19.6325L10.3579 19.8209L10.3941 20.0238V20.2267L10.3579 20.444L10.2891 20.6216L10.1767 20.8027L10.0681 20.915L9.93401 21.0128L9.76373 21.0962L9.5681 21.1541L9.39782 21.1759ZM9.47028 20.7266L9.62606 20.6795L9.72026 20.6179L9.81808 20.5056L9.87967 20.3752L9.9159 20.2122L9.91227 20.0419L9.87242 19.8789L9.78185 19.7339L9.66229 19.6216L9.53187 19.5528L9.37246 19.5238L9.24566 19.5311L9.10075 19.5745L8.97757 19.6506L8.87975 19.7593L8.80367 19.8934L8.76744 20.0564L8.77469 20.252L8.81816 20.3897L8.90149 20.5346L9.01017 20.6288L9.11886 20.6904L9.28189 20.7339L9.43405 20.7375L9.47028 20.7266Z" fill="#4C5566" fill-opacity="0.8"/>
<path d="M16.3829 21.0601L15.9807 21.0565L15.9155 21.0311L15.6329 20.5529L15.5786 20.484L15.5025 20.4623H15.3213L15.267 20.484L15.2453 20.5311L15.2416 21.0021L15.2199 21.042L15.1801 21.0601H14.8685L14.8033 21.0383L14.7852 20.9949V19.1399L14.8178 19.111L14.8866 19.1001H15.7344L15.959 19.1255L16.0677 19.1581L16.1908 19.2341L16.285 19.332L16.3502 19.4479L16.3973 19.6182L16.4118 19.745L16.4046 19.8935L16.3539 20.0384L16.2923 20.1435L16.2053 20.2304L16.0785 20.3246L16.0713 20.3645L16.4263 20.9586L16.4444 21.0238L16.4227 21.0528L16.3829 21.0601ZM15.6474 20.0094L15.7525 19.9805L15.8322 19.9189L15.8756 19.8464L15.8938 19.7269L15.8648 19.6399L15.8141 19.5856L15.7344 19.5457H15.296L15.2489 19.5674L15.2308 19.6073L15.2344 19.9261L15.2525 19.9841L15.2996 20.0058H15.6474V20.0094Z" fill="#4C5566" fill-opacity="0.8"/>
<path d="M6.41056 17.727L6.24753 17.7161L6.09175 17.6654L5.96494 17.5676L5.90698 17.4843L5.85626 17.3756L5.81641 17.1836L5.82003 16.9952L5.87075 16.7524L5.93234 16.6003L6.10986 16.3104L6.29825 16.1003L6.41781 15.9916L6.76198 15.7453L7.16412 15.5315L7.56989 15.3685L8.1423 15.2272L8.44662 15.1837L8.86326 15.1729L9.20381 15.2091L9.48277 15.267L9.76536 15.3467L10.0805 15.488L10.3015 15.6148L10.5914 15.8358L10.8196 16.0641L10.9392 16.2307L10.9428 16.2597L10.8848 16.2307L10.6711 16.0822L10.3414 15.9155L10.0335 15.8105L9.74724 15.7489L9.39582 15.7054L9.05165 15.709L8.71472 15.7706L8.42126 15.8612L8.13143 15.9989L7.87421 16.1583L7.7148 16.2959L7.51554 16.5206L7.25469 16.9155L7.01196 17.343L6.84893 17.5277L6.71126 17.6292L6.54823 17.698L6.41056 17.727Z" fill="#F9FAFF"/>
<path d="M16.6422 17.5635L16.4864 17.5599L16.3488 17.5201L16.1604 17.4005L15.693 16.9839L15.3597 16.694L15.1931 16.56L15.0409 16.4368L14.6786 16.1905L14.454 16.0673L14.0881 15.9151L13.7765 15.8463L13.4686 15.81L13.2657 15.8173L13.0157 15.8644L12.7041 15.9658L12.6353 15.9912L12.6172 15.9839L12.6752 15.9224L12.8128 15.8282L13.1353 15.6579L13.4251 15.5383L13.8671 15.4152L14.1388 15.3681L14.4178 15.3354L14.9032 15.3499L15.2583 15.3934L15.6278 15.4731L15.8959 15.5746L16.135 15.6905L16.3596 15.8354L16.664 16.089L16.8487 16.2883L16.9791 16.5093L17.0516 16.6832L17.0951 16.8498L17.0987 17.031L17.0697 17.1867L17.019 17.3063L16.9248 17.4331L16.798 17.5128L16.6422 17.5635Z" fill="#F9FAFF"/>
<path d="M13.2202 17.4223L13.1731 17.415L13.1224 17.3462L13.0427 17.2013L12.9412 17.06L12.8325 16.9658L12.6623 16.8788L12.5246 16.8426L12.3978 16.8354L12.2456 16.8607L12.213 16.8498L12.2021 16.8027L12.2239 16.7593L12.3181 16.6832L12.4594 16.6107L12.5753 16.5817L12.7202 16.5781L12.8833 16.6107L13.0028 16.6868L13.0898 16.7738L13.1513 16.8752L13.1912 17.0092L13.231 17.3933L13.2202 17.4223Z" fill="#4C5566" fill-opacity="0.8"/>
<path d="M10.9509 15.8431L10.8857 15.796L10.6936 15.6076L10.4111 15.3722L10.1212 15.1693L9.79878 15.0135L9.49446 14.9048L9.10681 14.8106L8.83147 14.7744L8.68656 14.7635L8.32064 14.7671L7.96198 14.8215L7.51636 14.9446L7.08886 15.1041L6.92221 15.1403L6.78092 15.1294L6.65774 15.0859L6.57079 15.0171L6.52731 14.9446L6.50195 14.8251L6.52007 14.6548L6.58528 14.499L6.67948 14.3614L6.80265 14.2527L6.98018 14.1331L7.17581 14.0389L7.43304 13.9556L7.7446 13.8904L7.92213 13.8687L8.29528 13.8759L8.67569 13.9447L9.00899 14.057L9.46548 14.2853L9.82777 14.5208L10.1357 14.7526L10.4835 15.0932L10.6828 15.3287L10.8893 15.6547L10.9545 15.796L10.9581 15.825L10.9509 15.8431Z" fill="#F9FAFF"/>
<path d="M12.4266 15.7305L12.4121 15.7196L12.4701 15.582L12.6911 15.2704L13.115 14.8139L13.4229 14.5675L13.7997 14.3248L14.2091 14.1074L14.6112 13.9625L14.9192 13.9009L15.0713 13.8828L15.3901 13.8901L15.5749 13.9263L15.7053 13.9806L15.8321 14.0603L15.9227 14.1509L15.9843 14.2632L16.0096 14.3647L16.0024 14.4806L15.9481 14.611L15.8575 14.7269L15.7126 14.8067L15.4771 14.8791L15.238 14.9008L14.2707 14.9588L13.912 15.0132L13.6693 15.0747L13.3468 15.1834L13.1077 15.2849L12.7599 15.4805L12.4592 15.7124L12.4266 15.7305Z" fill="#F9FAFF"/>
<path d="M12.2782 15.3864L12.2637 15.3791L12.2673 15.2885L12.3651 14.9009L12.4883 14.4987L12.6912 14.0423L12.9194 13.6256L13.0716 13.4119L13.3433 13.1076L13.4628 12.9952L13.6585 12.8431L13.8577 12.7163L14.1113 12.6148L14.2635 12.5786L14.4917 12.5859L14.6222 12.6293L14.7309 12.7163L14.7961 12.796L14.8359 12.9155L14.8432 13.046L14.8069 13.1583L14.7272 13.2851L14.5823 13.4227L14.3541 13.5677L14.0172 13.7379L13.7201 13.8865L13.4991 14.0314L13.0607 14.3611L12.7854 14.6255L12.6115 14.8465L12.4122 15.1581L12.3035 15.3574L12.2782 15.3864Z" fill="#F9FAFF"/>
<path d="M10.9906 15.3756L10.9508 15.3357L10.7479 15.0133L10.5885 14.8031L10.2914 14.4952L9.90736 14.1764L9.47623 13.9047L8.76977 13.5243L8.59949 13.3975L8.49081 13.2779L8.41473 13.1366L8.38574 13.0279L8.38937 12.8866L8.44733 12.7598L8.52703 12.6801L8.62485 12.6222L8.73354 12.5932L8.8857 12.5859L9.08858 12.6294L9.35305 12.7562L9.60303 12.912L9.94721 13.2127L10.2044 13.4953L10.487 13.8793L10.6573 14.1764L10.7913 14.4807L10.9037 14.8394L10.9942 15.2053L11.0051 15.343L10.9906 15.3756Z" fill="#F9FAFF"/>
<path d="M10.1646 10.1115L10.1103 10.1006L10.027 10.0209L9.96538 9.93394L9.94727 9.87235L9.95089 9.76004L9.98349 9.61512L10.1791 9.15864L10.4327 8.72752L10.8566 8.11162L11.3493 7.53196L11.5667 7.3001L11.8674 6.9994L12.3492 6.58277L13.0159 6.07556L13.4977 5.77848L13.9977 5.49952L14.3962 5.32925L14.6606 5.2749L14.7585 5.29302L14.8635 5.37997L14.9034 5.44518L14.8961 5.48865L14.849 5.5285L14.3889 5.73501L13.9324 5.99223L13.6825 6.15526L13.5629 6.23497L13.0811 6.58277L12.9506 6.69507L12.5521 7.01751L12.0196 7.49211L11.5776 7.9812L11.4616 8.11525L11.2551 8.35798L10.8711 8.87605L10.5958 9.29631L10.2878 9.85786L10.1972 10.0716L10.1646 10.1115Z" fill="#F9FAFF"/>
<path d="M9.49347 9.77815L9.41377 9.77453L9.34856 9.72381L8.95728 9.28544L9.01163 9.06082L9.008 8.96663L8.97178 8.90141L8.76889 8.66955L8.39574 8.25292L7.519 7.30372L6.58067 6.28931L6.22925 5.89079L6.10969 5.77124L6.04086 5.66617L6.02637 5.5756L6.05173 5.39083L6.15317 5.03941L6.31982 4.63365L6.51908 4.22789L6.71834 3.88009L6.9176 3.57939L7.35597 3.00335L7.62768 2.70627L7.96099 2.38384L8.2001 2.18095L8.55514 1.90924L9.06235 1.5868L9.59854 1.30784L10.026 1.13032L10.363 1.01438L10.5586 0.974531L10.747 0.967285L10.8521 0.996268L10.9281 1.05423L11.2868 1.44551L11.3955 1.57231L11.7578 1.97445L11.9643 2.20631L12.8374 3.15913L13.0185 3.3439L13.1236 3.46708L13.9388 4.3402L14.0112 4.38367L14.08 4.39454L14.2395 4.36556L14.3337 4.36918L14.3989 4.41265L14.5329 4.55757L14.609 4.65539L14.6959 4.75683L14.7068 4.81479L14.6706 4.90537L14.609 5.06115L14.551 5.08651L14.301 5.16622L13.754 5.41257L13.4171 5.59372L12.6164 6.12628L12.2179 6.44147L11.6998 6.91245L11.2506 7.35806L10.9281 7.74209L10.7216 8.00294L10.3992 8.44855L10.0768 8.96663L9.9101 9.27095L9.80866 9.50282L9.74345 9.69845L9.72171 9.72381L9.64563 9.7383L9.56231 9.74917L9.49347 9.77815Z" fill="#F9FAFF"/>
<path d="M8.66638 9.68391L8.62652 9.65855L8.48523 9.51363L8.4164 9.41582L8.10845 8.97745L7.89108 8.63327L7.73529 8.34706L7.68819 8.22389L7.68457 8.20215L7.73891 8.22026L8.01788 8.49198L8.47074 9.01005L8.56131 9.15497L8.5758 9.23105L8.5432 9.41944L8.56856 9.50639L8.66638 9.65493V9.68391Z" fill="#F9FAFF"/>
<path d="M9.24221 8.20946L9.0973 8.20584L8.93427 8.16236L8.75675 8.06454L8.57923 7.92687L8.35461 7.68776L8.08651 7.33996L7.90537 7.03564L7.80755 6.79653L7.75321 6.59003L7.73509 6.39439L7.75683 6.22049L7.81117 6.01399L7.93435 5.75676L7.92711 5.69517L7.81842 5.5249L7.57569 5.2097L7.45251 5.03218L7.2134 4.72061L7.16992 4.62642L7.18441 4.54672L7.28585 4.37282L7.3728 4.24964L7.42715 4.23877L7.467 4.26051L7.76408 4.62642L9.14077 6.41613L9.53567 6.94145L9.74942 7.21316L9.90883 7.41967L9.92332 7.47039L9.91969 7.53198L9.73493 7.8363L9.59726 8.0102L9.48495 8.1044L9.36177 8.17323L9.24221 8.20946Z" fill="#4C5566" fill-opacity="0.8"/>
<path d="M9.16965 7.57207L9.06096 7.56483L8.93054 7.51048L8.80373 7.40904L8.64433 7.23877L8.40522 6.90184L8.31102 6.72432L8.25306 6.55042L8.24219 6.48883L8.24581 6.3729L8.27842 6.27508L8.30378 6.24609H8.35087L8.41971 6.32217L9.23124 7.35832L9.28196 7.45252L9.27471 7.49237L9.23124 7.53947L9.16965 7.57207Z" fill="#F9FAFF"/>
<path d="M10.0498 7.31835L10.0027 7.29299L9.53894 6.46697L9.02812 5.58299L8.40498 4.4454L7.93763 3.56142L7.92676 3.4962L7.96661 3.41288L8.10066 3.25347L8.16225 3.19913L8.22383 3.14116L8.27818 3.12667L8.33252 3.15565L8.49555 3.31144L8.59699 3.42012L9.8324 4.70987L10.0425 4.91638L10.0643 4.92L10.0534 4.87652L9.71647 4.34396L8.80712 2.95639L8.71293 2.78974V2.72091L8.78176 2.63396L9.01 2.46368L9.10782 2.42383L9.15492 2.43107L9.36142 2.60497L9.4846 2.72091L11.325 4.48163L12.075 5.19534L12.1184 5.26055L12.1076 5.31489L11.9916 5.40909L11.7743 5.55038L11.7163 5.56487L11.6547 5.53589L11.5424 5.42358L11.1584 5.03231L10.9772 4.85479L10.8251 4.68813L10.7128 4.5722L10.1041 3.9382L9.77081 3.57228L9.69835 3.53243L9.72009 3.5904L9.81428 3.75343L10.173 4.31498L10.6041 5.01057L10.8033 5.31489L10.9845 5.6011L11.2163 5.95977L11.2345 6.0286L11.2019 6.08657L10.9265 6.34742L10.8794 6.36916L10.8287 6.35829L10.7345 6.27134L10.22 5.72428L9.91572 5.39098L8.9629 4.40555L8.91581 4.37294L8.90856 4.39468L8.96653 4.51786L9.59691 5.57574L10.3251 6.86911L10.3505 6.95969L10.3215 7.0249L10.1077 7.28212L10.0498 7.31835Z" fill="#4C5566" fill-opacity="0.8"/>
<path d="M5.80252 5.38726L5.75542 5.37277L5.65398 5.25321L5.625 5.18076L5.63225 5.03946L5.66123 4.8873L5.78803 4.52139L5.94744 4.16272L6.18655 3.73522L6.57782 3.15918L6.66839 3.02514L6.86041 2.80052L7.00894 2.61575L7.07053 2.55416L7.41471 2.18825L7.57774 2.02884L7.71541 1.91291L7.89293 1.75713L8.34579 1.4202L8.81676 1.13761L9.27325 0.891255L9.70799 0.699241L10.0703 0.586932L10.3058 0.543457L10.4108 0.54708L10.4724 0.57244L10.592 0.691996L10.6137 0.739093L10.5956 0.76083L10.2297 0.833288L9.80581 0.978204L9.25151 1.23905L8.86024 1.4528L8.31318 1.81871L7.91104 2.14115L7.62846 2.39475L7.33138 2.70995L6.91837 3.21715L6.64665 3.59755L6.32422 4.11925L6.08511 4.59385L5.95106 4.9344L5.8315 5.35828L5.80252 5.38726Z" fill="#F9FAFF"/>
<path d="M12.436 4.99613L12.244 4.96714L12.0773 4.90556L11.9107 4.80411L11.5629 4.49979L11.4433 4.36212L11.4288 4.32227L11.4469 4.2788L11.5411 4.21721L11.7657 4.09765L11.8237 4.09403L11.8744 4.12301L11.9904 4.23532L12.099 4.33314L12.2367 4.42371L12.3708 4.45632L12.4396 4.44183L12.4939 4.39835L12.5157 4.32227L12.4831 4.22808L12.3744 4.10127L12.2585 4.00346L12.0048 3.84405L11.6788 3.68464L11.1064 3.44191L10.5811 3.18468L10.2731 2.97455L10.1065 2.81152L9.97965 2.64125L9.91082 2.47097L9.88184 2.31519L9.8927 2.17027L9.92893 2.03985L10.0123 1.91305L10.1246 1.81161L10.2586 1.75002L10.4506 1.70654H10.6535L10.8129 1.74277L11.0303 1.83334L11.3201 2.02173L11.5339 2.21737L11.581 2.29345L11.5592 2.34417L11.4179 2.42388L11.2368 2.49996L11.1716 2.50358L11.0955 2.45648L10.9397 2.31881L10.7876 2.23186L10.6463 2.19563L10.5557 2.21012L10.5014 2.26085L10.476 2.32606L10.4796 2.40214L10.5231 2.48909L10.6354 2.6014L10.8528 2.74631L11.0991 2.88036L11.2187 2.92383L11.2766 2.94557L11.3382 2.9818L11.9179 3.22453L12.2186 3.3767L12.5229 3.55784L12.7113 3.71L12.849 3.85492L12.9722 4.02882L13.0374 4.16649L13.0772 4.33676L13.0808 4.47081L13.0591 4.59036L12.9939 4.7063L12.9033 4.81861L12.7765 4.90556L12.628 4.96714L12.5121 4.98888L12.436 4.99613Z" fill="#4C5566" fill-opacity="0.8"/>
<path d="M14.673 4.00318L14.615 3.95971L14.4955 3.85465L14.4158 3.82204L14.3252 3.82929L14.2564 3.85102L14.1839 3.84015L14.0571 3.72784L13.7926 3.43801L13.3108 2.93081L13.2891 2.87646L13.3579 2.88733L13.6767 3.08297L14.1006 3.39454L14.4411 3.69886L14.6621 3.94522L14.6839 3.99232L14.673 4.00318Z" fill="#F9FAFF"/>
<path d="M18.397 40.7285C19.0999 40.7285 19.6759 41.3009 19.6759 42.0074C19.6759 42.7102 19.1035 43.2863 18.397 43.2863C17.6906 43.2863 17.1182 42.7139 17.1182 42.0074C17.1182 41.3009 17.6906 40.7285 18.397 40.7285ZM18.397 43.0037C18.9043 43.0037 19.3064 42.6016 19.3064 42.0074C19.3064 41.4205 18.9043 41.0111 18.397 41.0111C17.8826 41.0111 17.4877 41.4169 17.4877 42.0074C17.4877 42.5979 17.8826 43.0037 18.397 43.0037ZM17.8826 41.2937H18.4152C18.7774 41.2937 18.984 41.3988 18.984 41.7176C18.984 41.9748 18.8282 42.0799 18.6072 42.098L18.984 42.7139H18.6724L18.3318 42.1125H18.1869V42.7139H17.8826V41.2937ZM18.4369 41.877C18.5818 41.877 18.6796 41.8516 18.6796 41.6886C18.6796 41.5437 18.5238 41.5256 18.4043 41.5256H18.1869V41.877H18.4369Z" fill="#4C5566" fill-opacity="0.8"/>
<path d="M13.3364 39.714L13.2676 39.7068V39.6887L13.3292 39.6851L13.3509 39.6959L13.3364 39.714Z" fill="#F9FAFF"/>
<path d="M34.6856 7.64795C32.7039 7.64795 30.3925 8.53918 30.3925 11.0535C30.3925 12.691 31.5373 13.3214 32.6423 13.93C33.548 14.4264 34.403 14.8974 34.403 15.8936C34.403 17.2051 33.2328 17.792 32.0699 17.792C31.041 17.792 30.0773 17.4044 29.244 17.0312C29.1933 17.1979 28.7405 18.6652 28.6934 18.8173C29.8491 19.2231 30.9396 19.4368 31.9358 19.4368C33.3633 19.4368 36.6855 19.0709 36.6855 15.6654C36.6855 13.8902 35.4283 13.162 34.3161 12.5171C33.472 12.028 32.6713 11.5643 32.6713 10.7093C32.6713 9.73111 33.7074 9.29274 34.7363 9.29274C35.5153 9.29274 36.3739 9.50649 37.1202 9.86153C37.1673 9.70213 37.5803 8.28558 37.6238 8.13704C36.7905 7.8146 35.8051 7.64795 34.6856 7.64795Z" fill="#4C5566" fill-opacity="0.8"/>
<path d="M38.9479 10.0786H40.7956L40.0166 13.7377H43.7373L44.5163 10.0786H46.3639L44.4366 19.1322H42.5889L43.433 15.1615H39.7123L38.8682 19.1322H37.0205L38.9479 10.0786Z" fill="#4C5566" fill-opacity="0.8" stroke="#4C5566" stroke-opacity="0.8" stroke-width="0.45" stroke-miterlimit="3.8637"/>
<path d="M47.9405 10.0786H53.3639L53.0886 11.506H49.4838L49.0092 13.7377H52.23L51.9402 15.1652H48.7085L48.1687 17.7084H51.8097L51.4945 19.1358H46.0059L47.9405 10.0786Z" fill="#4C5566" fill-opacity="0.8" stroke="#4C5566" stroke-opacity="0.8" stroke-width="0.45" stroke-miterlimit="3.8637"/>
<path d="M54.9508 10.0786H57.1282C58.8309 10.0786 60.7982 10.0533 60.7982 12.2198C60.7982 13.774 59.6099 14.6072 58.1064 14.6326V14.658C58.6063 14.6833 58.9251 14.9949 59.0447 15.4876L59.9287 19.1322H57.9868L57.5376 17.0056C57.3274 16.0455 57.3782 15.3717 56.3746 15.3717H55.6754L54.8711 19.1322H53.0234L54.9508 10.0786ZM56.0051 13.9443H56.6789C57.668 13.9443 58.8708 13.6472 58.8708 12.4516C58.8708 11.5024 58.0375 11.5024 57.2876 11.5024H56.5232L56.0051 13.9443Z" fill="#4C5566" fill-opacity="0.8" stroke="#4C5566" stroke-opacity="0.8" stroke-width="0.45" stroke-miterlimit="3.8637"/>
<path d="M61.8613 10.0791H63.709L63.988 17.0169H64.0133L67.0747 10.0791H69.5527L69.5926 17.0169H69.6179L72.8749 10.0791H74.7914L70.3969 19.1327H68.0891L67.9985 11.8942H67.9731L64.727 19.1327H62.4446L61.8613 10.0791Z" fill="#4C5566" fill-opacity="0.8" stroke="#4C5566" stroke-opacity="0.8" stroke-width="0.45" stroke-miterlimit="3.8637"/>
<path d="M75.811 10.0786H77.7384L75.7965 19.1322H73.8691L75.811 10.0786Z" fill="#4C5566" fill-opacity="0.8" stroke="#4C5566" stroke-opacity="0.8" stroke-width="0.45" stroke-miterlimit="3.8637"/>
<path d="M79.441 10.0786H81.7778L83.745 16.9512H83.7703L85.2738 10.0786H87.0164L85.0239 19.1322H82.6472L80.7199 12.1944H80.6945L79.2309 19.1322H77.4629L79.441 10.0786Z" fill="#4C5566" fill-opacity="0.8" stroke="#4C5566" stroke-opacity="0.8" stroke-width="0.45" stroke-miterlimit="3.8637"/>
<path d="M88.2545 30.7546C88.9573 30.7546 89.5333 31.3271 89.5333 32.0335C89.5333 32.74 88.9609 33.3124 88.2545 33.3124C87.548 33.3124 86.9756 32.74 86.9756 32.0335C86.9756 31.3271 87.548 30.7546 88.2545 30.7546ZM88.2545 33.0298C88.7617 33.0298 89.1638 32.624 89.1638 32.0335C89.1638 31.4466 88.758 31.0372 88.2545 31.0372C87.74 31.0372 87.3451 31.443 87.3451 32.0335C87.3451 32.624 87.74 33.0298 88.2545 33.0298ZM87.74 31.3162H88.2726C88.6349 31.3162 88.8414 31.4212 88.8414 31.7401C88.8414 31.9973 88.6856 32.1024 88.4646 32.1205L88.8414 32.7364H88.5298L88.1893 32.135H88.0443V32.7364H87.74V31.3162ZM88.2907 31.9031C88.4356 31.9031 88.537 31.8777 88.537 31.7147C88.537 31.5698 88.3813 31.5517 88.2617 31.5517H88.0443V31.9031H88.2907Z" fill="#4C5566" fill-opacity="0.8"/>
<path d="M37.4393 30.6569L37.269 30.6279C37.269 30.6279 37.2219 21.9728 37.2219 21.8315C37.0879 21.8315 34.483 21.8315 34.3924 21.8315C34.3562 21.9185 30.7696 30.6533 30.7696 30.6533L30.5993 30.6279C30.5993 30.6279 30.2768 21.9692 30.2732 21.8315C30.1464 21.8315 28.3603 21.8315 28.2227 21.8315C28.2335 21.9801 28.8965 33.1205 28.9038 33.2545C29.0306 33.2545 31.4144 33.2545 31.505 33.2545C31.5376 33.1712 35.3453 24.056 35.3453 24.056L35.5155 24.0814C35.5155 24.0814 35.6242 33.1168 35.6242 33.2581C35.7583 33.2581 38.1675 33.2581 38.2544 33.2581C38.2943 33.1748 43.3265 22.0344 43.4171 21.8352C43.2178 21.8352 41.3882 21.8352 41.3013 21.8352C41.2614 21.9185 37.4393 30.6569 37.4393 30.6569Z" fill="#4C5566" fill-opacity="0.8"/>
<path d="M43.4035 24.1357H45.1969L43.389 33.1893H41.5957L43.4035 24.1357Z" fill="#4C5566" fill-opacity="0.8" stroke="#4C5566" stroke-opacity="0.8" stroke-width="0.45" stroke-miterlimit="3.8637"/>
<path d="M46.7953 24.1357H48.5161L46.98 31.7619H50.3457L50.0522 33.1893H44.9766L46.7953 24.1357Z" fill="#4C5566" fill-opacity="0.8" stroke="#4C5566" stroke-opacity="0.8" stroke-width="0.45" stroke-miterlimit="3.8637"/>
<path d="M52.9369 24.1357H54.6577L53.1216 31.7619H56.4873L56.1938 33.1893H51.1182L52.9369 24.1357Z" fill="#4C5566" fill-opacity="0.8" stroke="#4C5566" stroke-opacity="0.8" stroke-width="0.45" stroke-miterlimit="3.8637"/>
<path d="M58.9937 24.1357H60.787L58.9828 33.1893H57.1895L58.9937 24.1357Z" fill="#4C5566" fill-opacity="0.8" stroke="#4C5566" stroke-opacity="0.8" stroke-width="0.45" stroke-miterlimit="3.8637"/>
<path d="M65.0787 24.1357H66.9844L68.5458 33.1894H66.825L66.5279 31.1134H62.8796L61.7855 33.1894H59.8799L65.0787 24.1357ZM63.6404 29.6896H66.296L65.7562 25.7479H65.7055L63.6404 29.6896Z" fill="#4C5566" fill-opacity="0.8" stroke="#4C5566" stroke-opacity="0.8" stroke-width="0.45" stroke-miterlimit="3.8637"/>
<path d="M71.2901 24.1357H74.1304L74.7065 30.6606H74.7318L78.112 24.1357H80.9741L79.1445 33.1893H77.3258L78.9453 25.6936H78.9199L75.0362 33.1893H73.3877L72.6994 25.6936H72.674L71.1017 33.1893H69.4678L71.2901 24.1357Z" fill="#4C5566" fill-opacity="0.8" stroke="#4C5566" stroke-opacity="0.8" stroke-width="0.45" stroke-miterlimit="3.8637"/>
<path d="M86.6748 25.8745C86.1712 25.6028 85.5191 25.4072 84.8924 25.4072C84.2801 25.4072 83.4541 25.668 83.4541 26.4433C83.4541 27.8961 86.3777 27.8055 86.3777 30.3235C86.3777 32.5407 84.7329 33.3449 82.8527 33.3449C82.0303 33.3449 81.1825 33.1384 80.4072 32.8414L80.8492 31.298C81.5122 31.6205 82.2114 31.9212 82.9505 31.9212C83.7765 31.9212 84.5844 31.4792 84.5844 30.5082C84.5844 28.8743 81.6607 29.1351 81.6607 26.7187C81.6607 24.813 83.2077 23.9834 84.8561 23.9834C85.6061 23.9834 86.3814 24.0885 87.0806 24.3855L86.6748 25.8745Z" fill="#4C5566" fill-opacity="0.8" stroke="#4C5566" stroke-opacity="0.8" stroke-width="0.45" stroke-miterlimit="3.8637"/>
</svg>
