<svg width="76" height="24" viewBox="0 0 76 24" fill="none" xmlns="http://www.w3.org/2000/svg">
<g clip-path="url(#clip0_449_1679)">
<path fill-rule="evenodd" clip-rule="evenodd" d="M0.413742 9.16805C-3.21354 17.9769 21.6553 24.7615 22.6687 14.5587C23.2249 8.97325 20.231 2.48078 12.4666 1.79592C5.62913 1.19628 2.56725 3.93877 0.413742 9.16805Z" fill="#F9FAFF"/>
<path fill-rule="evenodd" clip-rule="evenodd" d="M10.6904 1.76538C5.59546 1.76538 2.74987 3.97215 0.485131 9.13751C-0.17915 10.6533 0.0525759 12.1996 1.07217 13.6911C3.32764 16.9906 9.37415 19.4804 14.8738 19.4804C19.4743 19.4804 22.4219 17.785 22.6165 14.5525C22.8204 11.1677 22.0048 7.90781 20.0243 5.55493C18.2199 3.406 15.6369 2.31022 12.572 1.89626C11.9602 1.81408 11.2527 1.76538 10.6904 1.76538ZM14.8738 19.7239C9.34325 19.7239 3.08973 17.2128 0.964032 13.8006C-0.0339352 12.2026 -0.299648 10.7325 0.367723 9.15273C2.64482 3.75908 5.8859 1.41838 11.0395 1.52796C11.6018 1.54014 12.2599 1.57362 12.8778 1.62841C16.0479 1.90844 18.291 3.31164 20.1046 5.49101C22.0666 7.84693 22.8853 11.1434 22.7185 14.5646C22.5578 17.855 19.533 19.7239 14.8738 19.7239Z" fill="#4C5566" fill-opacity="0.8"/>
<path fill-rule="evenodd" clip-rule="evenodd" d="M30.0837 18.2597L30.0064 18.208C28.7736 17.4227 27.6613 16.1869 27.1021 14.9876C26.5583 13.8127 26.3328 12.2999 26.2988 9.58484V9.44482H27.7695L27.7726 9.5818C27.8375 13.484 28.2546 14.738 30.0867 16.4304C31.9189 14.8141 32.3978 13.3714 32.3978 9.58484V9.44482H33.9056L33.9025 9.58788C33.85 12.4491 33.6368 13.8675 33.0806 15.0089C32.5183 16.1991 31.4555 17.3679 30.164 18.211L30.0837 18.2597Z" fill="#4C5566" fill-opacity="0.8"/>
<path fill-rule="evenodd" clip-rule="evenodd" d="M39.0998 18.0468C36.5168 18.0468 34.4931 16.1201 34.4931 13.6607C34.4931 11.2713 36.4829 9.32629 38.9268 9.32629C40.6292 9.32629 42.0165 10.1512 42.8291 11.6518L42.8878 11.7553L37.2738 16.0805C37.8454 16.4915 38.3367 16.6345 39.1338 16.6345C40.0082 16.6345 40.6416 16.458 41.8342 15.8857L41.9887 15.8127L42.3965 17.225L42.2853 17.2768C41.0618 17.8216 40.141 18.0468 39.0998 18.0468ZM38.9453 10.6382C37.2831 10.6382 35.9792 11.9744 35.9792 13.6759C35.9792 14.2451 36.0596 14.5525 36.3531 15.0395L40.9011 11.5057C40.3573 10.8908 39.7796 10.6382 38.9453 10.6382Z" fill="#4C5566" fill-opacity="0.8"/>
<path fill-rule="evenodd" clip-rule="evenodd" d="M45.0078 17.8945H43.5556V13.8949C43.5556 12.2969 43.7348 11.5725 44.3219 10.8024C45.014 9.88928 46.1633 9.32617 47.3189 9.32617C47.4239 9.32617 47.566 9.32617 47.7761 9.34444L47.909 9.35661V10.8085L47.6186 10.7811C47.4981 10.7689 47.3961 10.7598 47.3374 10.7598C46.6299 10.7598 45.9316 11.1129 45.5145 11.6821C45.1375 12.1995 45.0109 12.7596 45.0109 13.898V17.8945H45.0078Z" fill="#4C5566" fill-opacity="0.8"/>
<path fill-rule="evenodd" clip-rule="evenodd" d="M52.222 18.0468C49.744 18.0468 47.8037 16.1323 47.8037 13.6942C47.8037 11.2865 49.7842 9.32324 52.222 9.32324C53.5907 9.32324 54.9347 9.9868 55.7349 11.0552C56.4054 11.9592 56.6557 12.9363 56.6557 14.656V17.8916H55.185V16.8932L54.9656 17.1215C54.0758 17.779 53.2786 18.0468 52.222 18.0468ZM52.2405 10.7386C50.6246 10.7386 49.3084 12.0566 49.3084 13.6759C49.3084 15.3044 50.6061 16.6315 52.2034 16.6315C53.1272 16.6315 53.9213 16.2662 54.7833 15.4535L55.185 15.0395V14.6743C55.185 13.2528 55.0645 12.638 54.6752 12.0444C54.1777 11.2622 53.1983 10.7386 52.2405 10.7386Z" fill="#4C5566" fill-opacity="0.8"/>
<path d="M59.6767 6.33105H58.2061V17.8945H59.6767V6.33105Z" fill="#4C5566" fill-opacity="0.8"/>
<path d="M62.7695 6.33105H61.2988V17.8945H62.7695V6.33105Z" fill="#4C5566" fill-opacity="0.8"/>
<path d="M65.9433 9.44189H64.4727V17.8946H65.9433V9.44189Z" fill="#4C5566" fill-opacity="0.8"/>
<path fill-rule="evenodd" clip-rule="evenodd" d="M65.2171 8.11796C64.6949 8.11796 64.2686 7.69792 64.2686 7.18047C64.2686 6.66302 64.6857 6.26123 65.2171 6.26123C65.7238 6.26123 66.1502 6.68128 66.1502 7.18047C66.1471 7.69792 65.73 8.11796 65.2171 8.11796Z" fill="#4C5566" fill-opacity="0.8"/>
<path fill-rule="evenodd" clip-rule="evenodd" d="M71.5619 18.0468C69.0839 18.0468 67.1436 16.1323 67.1436 13.6942C67.1436 11.2865 69.1241 9.32324 71.5619 9.32324C72.9306 9.32324 74.2746 9.9868 75.0748 11.0552C75.7453 11.9592 75.9956 12.9363 75.9956 14.656V17.8916H74.5249V16.9145L74.3055 17.1215C73.4157 17.779 72.6185 18.0468 71.5619 18.0468ZM71.5804 10.7386C69.9645 10.7386 68.6514 12.0566 68.6514 13.6759C68.6514 15.3044 69.949 16.6315 71.5464 16.6315C72.4702 16.6315 73.2643 16.2662 74.1263 15.4535L74.528 15.0608V14.6743C74.528 13.2528 74.4075 12.638 74.0182 12.0444C73.5176 11.2622 72.5351 10.7386 71.5804 10.7386Z" fill="#4C5566" fill-opacity="0.8"/>
<path fill-rule="evenodd" clip-rule="evenodd" d="M20.5464 19.8366C19.7091 20.7376 17.5711 21.8638 17.5711 21.8638C16.672 22.3995 15.1642 22.9017 15.1642 22.9017C14.0149 23.2852 12.8531 23.0296 12.8531 23.0296C10.9746 22.7069 9.76963 21.1667 9.76963 21.1667C8.85509 20.1044 8.95087 19.5626 8.95087 19.5626C8.99412 19.2096 9.57189 19.1913 9.57189 19.1913C9.69239 19.1213 10.2053 19.2035 10.2053 19.2035C10.4401 19.2156 12.4082 19.4805 12.4082 19.4805C12.6585 19.5809 14.7255 19.6509 14.7255 19.6509C15.9335 19.7514 18.257 19.3313 18.257 19.3313C19.1623 19.1943 20.2128 18.6769 20.2128 18.6769C20.5588 18.476 21.0377 18.3299 21.0377 18.3299C21.8626 17.8277 21.8565 18.0286 21.8565 18.0286C21.8379 18.6647 20.5464 19.8366 20.5464 19.8366ZM23.0089 11.9805C20.7565 7.16212 15.6617 5.97199 10.8943 6.7299C3.30293 7.9383 7.14958 26.2986 15.9088 22.7434C20.4229 20.9111 25.6166 17.5598 23.0089 11.9805Z" fill="#4C5566" fill-opacity="0.8"/>
<path fill-rule="evenodd" clip-rule="evenodd" d="M21.2868 9.51806C21.2868 9.51806 20.9346 8.92147 20.156 8.37359C20.156 8.37359 18.7687 7.19563 16.6059 6.74514C16.6059 6.74514 14.7799 6.39206 14.128 6.55034C14.128 6.55034 13.714 6.55643 13.6491 6.84559C13.6491 6.84559 13.6058 7.04648 13.6429 7.12866L13.6676 7.37521C13.6676 7.37521 13.8221 7.7983 13.853 7.82874C13.853 7.82874 14.6131 9.22586 15.8335 9.9168C15.8335 9.9168 17.1868 10.8787 19.2198 10.7021C19.2198 10.7021 20.1065 10.6199 20.6071 10.3886C20.604 10.3886 21.6328 10.0933 21.2868 9.51806Z" fill="#4C5566" fill-opacity="0.8"/>
<path fill-rule="evenodd" clip-rule="evenodd" d="M22.8831 2.05146C20.9891 -0.274022 17.5534 -0.63928 15.2114 1.24484C12.8664 3.12593 12.5049 6.54109 14.3958 8.87266C16.2897 11.2012 19.7224 11.5634 22.0674 9.68231C24.4125 7.79515 24.7771 4.38302 22.8831 2.05146Z" fill="#F9FAFF"/>
<path fill-rule="evenodd" clip-rule="evenodd" d="M22.8822 2.05153L22.9131 2.02718C21.8255 0.693991 20.2374 0 18.6339 0C17.4227 0 16.2023 0.39874 15.1858 1.21448C13.8418 2.292 13.1435 3.87174 13.1435 5.46366C13.1435 6.66901 13.5421 7.88349 14.3639 8.89404C15.4484 10.2303 17.0365 10.9212 18.6401 10.9212C19.8543 10.9212 21.0747 10.5255 22.0912 9.70979C23.4322 8.62923 24.1304 7.04949 24.1304 5.45453C24.1304 4.24917 23.7319 3.03469 22.9069 2.02414L22.8822 2.05153L22.8513 2.07589C23.6608 3.07121 24.0563 4.27048 24.0563 5.45757C24.0563 7.02818 23.3673 8.58662 22.0449 9.65195C21.0407 10.4555 19.8389 10.8482 18.6432 10.8482C17.0643 10.8482 15.4979 10.1664 14.4288 8.84839C13.6193 7.85001 13.2239 6.65379 13.2239 5.46366C13.2239 3.89305 13.9129 2.33765 15.2383 1.27232C16.2394 0.465704 17.4413 0.0760955 18.637 0.0730517C20.2158 0.0730517 21.7823 0.757911 22.8544 2.07284L22.8822 2.05153Z" fill="#4C5566" fill-opacity="0.8"/>
<path fill-rule="evenodd" clip-rule="evenodd" d="M22.4506 8.26389C21.9531 8.32781 21.2765 7.07985 21.2765 7.07985C20.9057 6.38281 20.1457 5.4514 20.1457 5.4514C18.9963 3.9995 17.2445 3.0407 17.2445 3.0407C16.988 2.88851 16.1538 2.34366 16.1538 2.34366C15.9252 2.18538 15.7645 1.84752 15.7645 1.84752C15.644 0.827841 17.2599 0.438232 17.2599 0.438232C19.6946 -0.340986 21.7368 1.16266 21.7368 1.16266C23.5876 2.46542 23.844 4.30388 23.844 4.30388C24.1839 6.06626 23.6586 6.98549 23.6586 6.98549C23.084 8.41608 22.4506 8.26389 22.4506 8.26389ZM22.8831 2.05146C20.9891 -0.274022 17.5534 -0.63928 15.2114 1.24484C12.8664 3.12593 12.5049 6.54109 14.3958 8.87266C16.2897 11.2012 19.7224 11.5634 22.0674 9.68231C24.4125 7.79515 24.7771 4.38302 22.8831 2.05146Z" fill="#4C5566" fill-opacity="0.8"/>
<path fill-rule="evenodd" clip-rule="evenodd" d="M14.8111 6.66898C14.8111 6.66898 13.7081 6.57158 13.7452 7.05251C13.7452 7.05251 13.7204 7.49082 13.912 7.82259C13.912 7.82259 14.5794 9.20449 15.8739 9.92587C15.8739 9.92587 17.8235 11.2895 20.4312 10.3642C20.4312 10.3642 21.5466 10.0141 21.009 9.42669C21.009 9.42669 20.4003 8.50745 19.0594 7.81042C19.0563 7.81042 17.2149 6.7116 14.8111 6.66898Z" fill="#F9FAFF"/>
</g>
<defs>
<clipPath id="clip0_449_1679">
<rect width="76" height="23.2" fill="white"/>
</clipPath>
</defs>
</svg>
