<svg width="145" height="68" viewBox="0 0 145 68" fill="none" xmlns="http://www.w3.org/2000/svg">
<path fill-rule="evenodd" clip-rule="evenodd" d="M26.8733 42.6941C25.2884 41.7012 24.1202 38.2748 24.1202 34.2029C24.1202 34.0535 24.1208 33.906 24.1246 33.7591L24.1259 33.761C19.7166 33.0681 16.5311 31.1699 16.4491 28.9243L16.4365 28.9508C15.3579 30.2917 14.7419 31.8419 14.7419 33.4937C14.7419 38.3543 20.0773 42.3367 26.8449 42.6891L26.8733 42.6941ZM12.7031 33.848C12.7031 28.4099 19.4714 24 27.8202 24C36.1696 24 42.9379 28.4099 42.9379 33.848C42.9379 39.2867 36.1696 43.6965 27.8202 43.6965C19.4714 43.6965 12.7031 39.2867 12.7031 33.848ZM27.8208 25.421C29.4328 25.421 30.804 27.8665 31.3121 31.2783L31.3134 31.2727C34.4498 30.7847 36.6449 29.6588 36.6449 28.3481C36.6449 26.5898 32.694 25.1657 27.8208 25.1657C22.9482 25.1657 18.9973 26.5898 18.9973 28.3481C18.9973 29.6588 21.1925 30.7841 24.3282 31.2727L24.3301 31.2783C24.8383 27.8665 26.2094 25.421 27.8208 25.421ZM28.7967 42.6885C35.5644 42.3361 40.9003 38.3536 40.9003 33.493C40.9003 31.8413 40.2838 30.2911 39.2057 28.9502L39.1925 28.9237C39.1112 31.1693 35.9256 33.0675 31.5158 33.7603L31.5177 33.7584C31.5208 33.9053 31.5221 34.0529 31.5221 34.2023C31.5221 38.2742 30.3532 41.7006 28.769 42.6935L28.7967 42.6885ZM27.8208 31.5311C28.5205 31.532 29.2199 31.5021 29.917 31.4416L29.9164 31.4423C29.5822 29.2559 28.7702 27.712 27.8214 27.712C26.8727 27.712 26.0613 29.2559 25.7265 31.4423L25.7259 31.4416C26.4226 31.5018 27.1215 31.5317 27.8208 31.5311ZM27.8208 39.6296C29.0344 39.6296 30.0248 37.1041 30.0771 33.9375L30.0834 33.9394C28.5784 34.078 27.0638 34.078 25.5588 33.9394L25.5651 33.9375C25.6175 37.1041 26.6072 39.6296 27.8208 39.6296ZM89.8437 33.848C89.8437 29.6916 93.214 26.3213 97.3704 26.3213C101.529 26.3213 104.898 29.6916 104.898 33.848C104.898 38.0056 101.528 41.3747 97.3704 41.3747C93.214 41.3747 89.8437 38.0056 89.8437 33.848ZM97.3704 38.6146C99.6916 38.6146 101.574 36.48 101.574 33.8473C101.574 31.2153 99.6916 29.0807 97.3704 29.0807C95.0491 29.0807 93.1679 31.2153 93.1679 33.8473C93.1679 36.4806 95.0498 38.6146 97.3704 38.6146ZM113.439 29.457V41.033H110.267V29.457H110.278H105.843V26.8401H117.863V29.457H113.439ZM121.7 37.8398L121.697 37.843L120.481 41.0336H116.776L122.632 26.8401H126.579L132.434 41.0336H128.73L127.514 37.843L127.51 37.8398H121.7ZM124.606 35.4442H126.601L126.6 35.4448L124.619 30.2501H124.592L122.61 35.4448L122.609 35.4442H124.606ZM54.9778 29.457V41.033H51.8061V29.457H51.8175H47.3818V26.8401H59.4022V29.457H54.9778ZM60.2135 33.848C60.2135 29.6916 63.5838 26.3213 67.7415 26.3213C71.8985 26.3213 75.2688 29.6916 75.2688 33.848C75.2688 38.0056 71.8985 41.3747 67.7415 41.3747C63.5838 41.3747 60.2135 38.0056 60.2135 33.848ZM67.7415 38.6146C70.0621 38.6146 71.9445 36.48 71.9445 33.8473C71.9445 31.2153 70.0621 29.0807 67.7415 29.0807C65.4202 29.0807 63.5384 31.2153 63.5384 33.8473C63.5384 36.4806 65.4202 38.6146 67.7415 38.6146ZM82.5553 41.033H84.1635V35.6441L89.6968 26.8401H85.993L82.5553 32.8059L79.1188 26.8401H75.4151L80.9477 35.6441V41.033H82.5553Z" fill="#4C5566" fill-opacity="0.8"/>
</svg>
