<?xml version="1.0" encoding="utf-8"?>
<!-- Generator: Adobe Illustrator 16.0.4, SVG Export Plug-In . SVG Version: 6.00 Build 0)  -->
<!DOCTYPE svg PUBLIC "-//W3C//DTD SVG 1.1//EN" "http://www.w3.org/Graphics/SVG/1.1/DTD/svg11.dtd">
<svg version="1.1" id="Layer_1" xmlns="http://www.w3.org/2000/svg" xmlns:xlink="http://www.w3.org/1999/xlink" x="0px" y="0px"
	 width="180px" height="60px" viewBox="0 0 180 60" enable-background="new 0 0 180 60" xml:space="preserve">
<g>
	<path fill="#1C3F94" d="M83.127,43.393l-2.912-7.053H68.659l-2.912,7.053h-7.553l12.558-30.349h7.417l12.559,30.349H83.127z
		 M74.438,20.324l-4.323,10.646h8.645L74.438,20.324z"/>
	<path fill="#1C3F94" d="M102.102,43.393c-2.504,0-4.096,0-6.461-0.818c-6.006-2.049-7.644-8.509-7.644-14.242
		c0-4.368,0.955-8.873,4.093-12.103c2.549-2.639,6.871-3.185,10.33-3.185h10.283v5.415h-9.555c-6.371,0-8.008,3.413-8.008,9.236
		c0,2.229,0.318,5.369,1.41,7.372c1.365,2.502,4.232,2.911,6.824,2.911h9.328v5.414L102.102,43.393L102.102,43.393z"/>
	<path fill="#1C3F94" d="M142.824,43.393V20.597l-7.918,22.795h-6.643l-7.508-22.795v22.795h-6.141V13.043h9.463l7.553,23.705
		l7.916-23.705h9.465v30.348L142.824,43.393L142.824,43.393z"/>
</g>
<g>
	<path fill="#1C3F94" d="M59.596,51.001c0.111,0.134,0.224,0.254,0.497,0.438c0.782,0.537,1.736,0.699,2.679,0.699
		c1.573,0,2.436-0.577,2.436-1.45c0-0.994-1.126-1.086-2.547-1.207c-1.796-0.152-2.415-0.204-2.962-0.701
		c-0.437-0.405-0.507-0.862-0.507-1.196c0-2.04,2.699-2.091,3.358-2.091c1.004,0,2.02,0.162,2.851,0.721
		c0.355,0.243,0.518,0.437,0.721,0.721l-0.923,0.375c-0.153-0.152-0.244-0.253-0.417-0.375c-0.639-0.457-1.43-0.6-2.212-0.6
		c-0.578,0-1.298,0.082-1.725,0.294c-0.497,0.243-0.639,0.609-0.639,0.903c0,0.214,0.082,0.407,0.213,0.549
		c0.243,0.283,0.619,0.344,1.289,0.416c0.65,0.07,1.289,0.111,1.938,0.183c0.304,0.03,0.618,0.071,0.923,0.142
		c0.771,0.183,1.644,0.68,1.644,1.856c0,0.294-0.05,0.751-0.365,1.197c-0.558,0.791-1.664,1.137-3.146,1.137
		c-0.588,0-1.339-0.081-1.847-0.213c-1.472-0.364-1.989-1.115-2.192-1.411L59.596,51.001z"/>
	<path fill="#1C3F94" d="M67.571,45.675h6.616v0.882h-5.601v2.141h5.449v0.843h-5.449v2.414h5.854v0.884h-6.87V45.675z"/>
	<path fill="#1C3F94" d="M75.607,45.675h4.871c0.629,0.01,1.39,0.02,2.008,0.578c0.233,0.202,0.64,0.669,0.64,1.532
		c0,1.714-1.451,1.947-1.928,2.028l2.639,3.025h-1.33l-2.425-2.861h-3.46v2.861h-1.016L75.607,45.675L75.607,45.675z M76.612,46.536
		v2.598h3.541c0.558,0,1.268-0.011,1.673-0.548c0.185-0.233,0.244-0.507,0.244-0.761c0-0.273-0.07-0.548-0.213-0.762
		c-0.325-0.517-0.843-0.517-1.31-0.527H76.612z"/>
	<path fill="#1C3F94" d="M90.554,45.675h1.116l-3.379,7.163h-1.025l-3.438-7.163h1.126l2.495,5.296
		c0.184,0.375,0.225,0.487,0.345,0.894c0.071-0.355,0.103-0.438,0.266-0.781L90.554,45.675z"/>
	<path fill="#1C3F94" d="M92.5,45.675h1.047v7.163H92.5V45.675z"/>
	<path fill="#1C3F94" d="M103.408,50.87c-0.273,0.487-0.559,0.974-1.268,1.42c-0.883,0.558-2.02,0.72-2.881,0.72
		c-2.912,0-4.354-1.673-4.354-3.804c0-1.695,0.842-2.477,1.328-2.842c0.305-0.244,1.156-0.903,2.994-0.903
		c0.518,0,1.766,0.071,2.729,0.67c0.762,0.478,1.117,1.076,1.309,1.4l-1.096,0.243c-0.162-0.284-0.334-0.589-0.781-0.883
		c-0.436-0.283-1.207-0.538-2.119-0.538c-1.705,0-3.287,0.803-3.287,2.821c0,0.71,0.201,1.441,0.74,2.04
		c0.486,0.497,1.318,0.913,2.607,0.913c1.107,0.01,1.848-0.274,2.283-0.62c0.385-0.283,0.619-0.648,0.721-0.862L103.408,50.87z"/>
	<path fill="#1C3F94" d="M104.576,45.675h6.615v0.882h-5.602v2.141h5.449v0.843h-5.449v2.414h5.855v0.884h-6.869V45.675z"/>
	<path fill="#1C3F94" d="M112.875,51.001c0.111,0.134,0.223,0.254,0.496,0.438c0.783,0.537,1.736,0.699,2.68,0.699
		c1.572,0,2.436-0.577,2.436-1.45c0-0.994-1.125-1.086-2.547-1.207c-1.797-0.152-2.414-0.204-2.961-0.701
		c-0.438-0.405-0.51-0.862-0.51-1.196c0-2.04,2.699-2.091,3.359-2.091c1.004,0,2.02,0.162,2.852,0.721
		c0.354,0.243,0.518,0.437,0.721,0.721l-0.924,0.375c-0.152-0.152-0.244-0.253-0.416-0.375c-0.641-0.457-1.432-0.6-2.213-0.6
		c-0.578,0-1.299,0.082-1.725,0.294c-0.496,0.243-0.639,0.609-0.639,0.903c0,0.214,0.082,0.407,0.213,0.549
		c0.244,0.283,0.621,0.344,1.289,0.416c0.65,0.07,1.289,0.111,1.938,0.183c0.305,0.03,0.619,0.071,0.924,0.142
		c0.771,0.183,1.645,0.68,1.645,1.856c0,0.294-0.051,0.751-0.365,1.197c-0.559,0.791-1.664,1.137-3.146,1.137
		c-0.588,0-1.34-0.081-1.846-0.213c-1.473-0.364-1.99-1.115-2.191-1.411L112.875,51.001z"/>
	<path fill="#1C3F94" d="M120.709,51.742h1.105v1.238c0,0.243,0,0.549-0.152,0.781c-0.244,0.386-0.67,0.416-0.953,0.436v-0.557
		c0.455-0.031,0.455-0.214,0.455-0.802h-0.455V51.742z"/>
	<path fill="#1C3F94" d="M127.172,45.675h1.045v7.163h-1.045V45.675z"/>
	<path fill="#1C3F94" d="M130.986,45.675l4.83,5.123c0.346,0.365,0.416,0.447,0.76,0.874c-0.049-0.509-0.049-0.6-0.061-1.057v-4.941
		h0.975v7.163h-0.994l-5.072-5.367c-0.266-0.294-0.346-0.396-0.559-0.66c0.041,0.498,0.051,0.64,0.051,1.238v4.789h-0.975v-7.163
		L130.986,45.675L130.986,45.675z"/>
	<path fill="#1C3F94" d="M147.383,50.87c-0.273,0.487-0.557,0.974-1.268,1.42c-0.883,0.558-2.02,0.72-2.881,0.72
		c-2.912,0-4.354-1.673-4.354-3.804c0-1.695,0.842-2.477,1.328-2.842c0.305-0.244,1.158-0.903,2.994-0.903
		c0.518,0,1.766,0.071,2.729,0.67c0.762,0.478,1.117,1.076,1.309,1.4l-1.094,0.243c-0.164-0.284-0.336-0.589-0.781-0.883
		c-0.438-0.283-1.209-0.538-2.121-0.538c-1.705,0-3.287,0.803-3.287,2.821c0,0.71,0.203,1.441,0.74,2.04
		c0.488,0.497,1.318,0.913,2.607,0.913c1.107,0.01,1.848-0.274,2.283-0.62c0.385-0.283,0.619-0.648,0.721-0.862L147.383,50.87z"/>
	<path fill="#1C3F94" d="M149.504,51.731v1.107h-1.115v-1.107H149.504z"/>
</g>
<g>
	<polygon fill="#C9CACC" points="22.812,18.93 28.183,13.56 28.708,13.035 29.233,13.56 34.604,18.93 39.976,13.56 28.708,2.292 
		17.441,13.56 	"/>
	
		<rect x="24.909" y="15.656" transform="matrix(-0.7071 0.7071 -0.7071 -0.7071 62.7631 12.9121)" fill="#C9CACC" width="7.596" height="7.595"/>
	<polygon fill="#C9CACC" points="39.976,46.44 34.604,41.069 29.233,46.44 28.708,46.966 28.183,46.44 22.812,41.069 17.441,46.44 
		16.916,45.916 28.708,57.708 	"/>
	<polygon fill="#C9CACC" points="16.916,14.085 16.916,14.085 17.027,13.974 	"/>
</g>
<g>
	<polygon fill="#8DC63F" points="40.5,14.085 35.129,19.456 45.149,29.476 45.673,30 45.149,30.524 35.129,40.544 40.5,45.915 
		56.415,30 56.416,30 56.416,30 	"/>
</g>
<g>
	
		<rect x="15.728" y="22.914" transform="matrix(-0.7071 -0.7071 0.7071 -0.7071 17.7324 67.3433)" fill="#0079C1" width="14.169" height="14.17"/>
	<polygon fill="#0079C1" points="28.708,14.084 23.337,19.456 33.356,29.476 33.88,30 33.356,30.524 23.337,40.544 28.708,45.916 
		44.624,30 	"/>
</g>
<g>
	<polygon fill="#1C3F94" points="16.925,14.077 16.916,14.085 16.916,14.085 16.916,14.085 	"/>
	<polygon fill="#1C3F94" points="6.364,24.637 1,30 1,30 	"/>
	<polygon fill="#1C3F94" points="16.916,45.916 1,30 17.178,46.179 17.178,46.179 	"/>
	
		<rect x="5.662" y="18.745" transform="matrix(-0.7071 -0.7071 0.7071 -0.7071 7.6651 63.1739)" fill="#1C3F94" width="22.508" height="22.508"/>
</g>
<rect x="1" fill="none" width="179" height="60"/>
</svg>
