<svg width="32" height="32" viewBox="0 0 32 32" fill="none" xmlns="http://www.w3.org/2000/svg">
<path fill-rule="evenodd" clip-rule="evenodd" d="M9.43263 0H22.9318C23.4461 0.00227924 23.8231 0.273346 23.9582 0.431626L28.8722 6.56803C29.0257 6.7649 29.1344 6.96478 29.1344 7.27271V24.3637C29.1344 24.7445 28.7868 25.091 28.4048 25.091H27.6764L27.6747 7.99993H24.7559L25.8505 9.45442C26.1584 9.85215 26.2154 10.1817 26.2154 10.5454V22.1139H26.2071V26.1139H26.2202L26.227 27.6364C26.2293 28.0186 25.874 28.3671 25.4859 28.3636H24.765L24.7559 11.2728L21.4724 11.2729L22.9317 13.0911L22.9663 13.1401C23.0935 13.3198 23.2966 13.6065 23.2966 13.8183L23.2968 31.2728C23.299 31.655 22.9552 32.0035 22.5671 32H3.59535C3.20727 32.0038 2.86344 31.655 2.86573 31.2728V7.63622C2.86951 7.25779 3.21107 6.90546 3.59535 6.90901L17.4592 6.90897C17.7193 6.90897 17.9802 7.01551 18.1888 7.27271L20.0131 9.45468V4.72731H6.14918V3.99983C6.14918 3.61911 6.49681 3.27262 6.8788 3.27262H7.81237V3.28442H11.8124V3.27291H20.7427C20.925 3.27291 21.0962 3.44514 21.2558 3.63665L22.5669 5.09107V1.45469L8.70301 1.45978V0.727213C8.70301 0.346489 9.05063 0 9.43263 0ZM24.0263 6.5455H26.9451L24.0263 2.90911V6.5455ZM24.0263 9.81812L21.4724 6.18173V9.81812H24.0263ZM21.1075 13.4548L18.1887 9.45465V13.4548H21.1075ZM18.464 16.2202C18.5961 16.0848 18.776 16.0059 18.9656 16.0003C19.2667 15.9914 19.5426 16.1672 19.6599 16.4435C19.7772 16.7198 19.7123 17.0394 19.4965 17.2484L11.8687 24.8452C11.7318 24.9816 11.546 25.0582 11.3524 25.0582C11.1587 25.058 10.9729 24.9814 10.8363 24.8449L7.30668 21.326C7.16697 21.19 7.08782 21.0044 7.0868 20.8101C7.08578 20.6155 7.16264 20.4288 7.30083 20.2916C7.43877 20.1541 7.62633 20.0775 7.82153 20.0788C8.01672 20.08 8.20327 20.1592 8.33942 20.2982L11.3529 23.3028L18.464 16.2202Z" fill="#546FFF"/>
</svg>
