<svg width="32" height="32" viewBox="0 0 32 32" fill="none" xmlns="http://www.w3.org/2000/svg">
<path fill-rule="evenodd" clip-rule="evenodd" d="M18.7757 4.65143C18.4075 4.65143 18.109 4.94991 18.109 5.31809C18.109 5.68629 18.4075 5.98476 18.7757 5.98476H21.109V8.47408C16.2016 8.8161 12.3268 12.9054 12.3268 17.8997C12.3268 23.1182 16.5572 27.3486 21.7756 27.3486C26.994 27.3486 31.2244 23.1182 31.2244 17.8997C31.2244 12.9055 27.3497 8.81618 22.4423 8.47409V5.98476H24.7757C25.1439 5.98476 25.4423 5.68628 25.4423 5.31809C25.4423 4.9499 25.1439 4.65143 24.7757 4.65143H18.7757ZM21.7757 13.3095C21.3759 13.3095 21.0518 13.6336 21.0518 14.0335V16.9291C21.0518 17.3289 21.3759 17.653 21.7757 17.653C22.1755 17.653 22.4996 17.3289 22.4996 16.9291V14.0335C22.4996 13.6336 22.1755 13.3095 21.7757 13.3095ZM21.7756 19.1008C21.1759 19.1008 20.6898 19.587 20.6898 20.1867C20.6898 20.7864 21.1759 21.2725 21.7756 21.2725C22.3753 21.2725 22.8615 20.7864 22.8615 20.1867C22.8615 19.587 22.3753 19.1008 21.7756 19.1008Z" fill="#546FFF"/>
<path d="M11.5876 22.8997C11.3762 22.4699 11.1913 22.0248 11.0349 21.5664H8.77563V22.8997H11.5876Z" fill="#546FFF"/>
<path d="M10.5509 19.5664C10.4866 19.1296 10.4472 18.6846 10.4341 18.2331H3.44226V19.5664H10.5509Z" fill="#546FFF"/>
<path d="M10.5509 16.2331C10.6177 15.7794 10.7113 15.3344 10.8301 14.8998H0.775635V16.2331H10.5509Z" fill="#546FFF"/>
</svg>
