<svg width="33" height="32" viewBox="0 0 33 32" fill="none" xmlns="http://www.w3.org/2000/svg">
<g clip-path="url(#clip0_40_1001)">
<path d="M30.8944 7C30.8944 6.77062 30.8767 6.53499 30.8472 6.28692L32.5 5.29499L31.3884 2.65995L29.5765 3.28619C29.4415 3.11873 29.2945 2.95751 29.1412 2.80873L29.6766 1.26491L27.2178 0L26.3883 1.39502C25.7942 1.28984 25.2118 1.28984 24.612 1.39502L23.7825 0L21.3297 1.26491L21.8588 2.80873C21.7059 2.95751 21.5647 3.11873 21.4235 3.28619L19.6181 2.65995L18.5 5.29499L20.1532 6.28692C20.1233 6.53499 20.1118 6.77061 20.1118 7C20.1118 7.2294 20.1233 7.46501 20.1532 7.71308L18.5 8.70501L19.6181 11.34L21.4235 10.7138C21.5647 10.8813 21.7062 11.0422 21.8588 11.1913L21.3297 12.7351L23.7825 14L24.612 12.605C25.2062 12.7102 25.7944 12.7102 26.3883 12.605L27.2178 14L29.6766 12.7351L29.1412 11.1913C29.2945 11.0425 29.4415 10.8813 29.5765 10.7138L31.3884 11.34L32.5 8.70501L30.8475 7.71308C30.8767 7.46501 30.8944 7.2294 30.8944 7ZM25.5001 10.2859C23.7825 10.2859 22.3825 8.81025 22.3825 6.99965C22.3825 5.1894 23.7825 3.71377 25.5001 3.71377C27.2179 3.71412 28.618 5.1894 28.618 7C28.618 8.81061 27.2179 10.2859 25.5001 10.2859Z" fill="#546FFF"/>
<path fill-rule="evenodd" clip-rule="evenodd" d="M18.0279 15.3119L20.9035 14.3087L22.5 18.0932L19.8727 19.6778C19.9377 20.1335 19.9702 20.5667 19.9702 20.9999C19.9702 21.4273 19.9374 21.8662 19.8727 22.3223L22.5 23.9069L20.9032 27.6913L18.0276 26.6824C17.731 27.0698 17.4128 27.4232 17.0729 27.7311L17.92 30.182L14.3971 32L13.0917 29.7829C12.0178 29.9995 10.9819 29.9995 9.90831 29.7829L8.6029 32L5.07996 30.182L5.92711 27.7311C5.5872 27.4232 5.26899 27.0698 4.97245 26.6824L2.09681 27.6913L0.5 23.9069L3.12731 22.3223C3.06229 21.8663 3.02977 21.4273 3.02977 20.9999C3.02977 20.567 3.06259 20.1335 3.12731 19.6778L0.5 18.0932L2.09681 14.3087L4.97245 15.3119C5.269 14.9299 5.58722 14.5765 5.92711 14.2632L5.07996 11.8123L8.60321 10L9.90862 12.2114C10.9774 11.9948 12.0236 11.9948 13.092 12.2114L14.3974 10L17.9204 11.8123L17.0732 14.2632C17.4131 14.5765 17.7313 14.9302 18.0279 15.3119ZM9.91932 15.2074H12.1044L12.1045 20.6504L15.8707 22.6394L14.8935 24.7044L9.91932 22.0765V15.2074Z" fill="#546FFF"/>
</g>
<defs>
<clipPath id="clip0_40_1001">
<rect width="32" height="32" fill="white" transform="translate(0.5)"/>
</clipPath>
</defs>
</svg>
